<svg width="56" height="105" viewBox="0 0 56 105" fill="none" xmlns="http://www.w3.org/2000/svg">
<path fill-rule="evenodd" clip-rule="evenodd" d="M55.3075 14.8099C54.7908 18.0306 55.2057 21.276 54.5925 24.6335C53.854 28.6806 51.3718 32.5267 50.4847 36.6003C50.175 38.0213 50.1357 39.8864 49.949 41.6014C49.7675 43.2642 49.2457 45.2189 49.4132 46.6024C49.6915 48.9081 51.469 51.6167 52.4497 54.1042C53.2665 56.1774 55.0872 59.7999 55.3075 61.7846C55.5 63.5189 54.9672 65.9374 54.7711 68.036C54.5757 70.1356 54.2411 72.2874 54.0568 74.2874C53.6515 78.6967 53.7715 83.3474 52.9854 87.1474C52.4204 89.8764 50.9961 92.291 50.4847 94.8278C49.8686 97.8842 50.0307 101.413 49.4132 104.651C46.98 104.659 44.6322 104.752 42.4468 105.008C37.1636 98.1831 31.1236 90.8981 25.1218 84.2896C23.3711 82.3617 21.1157 78.5474 18.8704 77.681C16.3647 76.7142 12.5765 77.696 11.0111 75.1806C9.4186 73.4392 7.75145 71.7721 6.01038 70.1796C5.95753 69.8153 5.52683 69.8296 5.47397 69.4653C4.06004 67.9024 2.57147 66.4139 1.00897 64.9999C0.121824 61.5274 1.87825 59.2192 2.25897 56.4267C2.67182 55.8274 2.32182 54.4649 2.43754 53.5692C2.43754 52.0806 2.43754 50.5924 2.43754 49.1039C1.75397 44.281 3.48469 40.0385 3.33111 35.8864C3.16719 31.4635 1.46111 27.3871 1.18754 22.8478C5.38611 22.3746 3.88861 15.2828 4.40254 10.1663C4.70183 7.19028 6.3486 5.19956 6.72467 3.20063C10.2954 1.59135 14.7954 0.912066 20.299 1.23599C21.0768 1.12064 22.3182 1.46885 22.7997 1.05742C24.0322 1.27599 25.6393 0.770638 26.5504 1.05742C29.8282 2.08849 27.8186 8.50635 30.1225 9.98778C31.6947 10.9988 35.1379 10.4224 37.4461 10.5235C40.1036 10.6406 42.5529 10.7499 44.9475 10.8806C48.1543 12.4374 49.8654 15.4889 55.3075 14.8099Z" fill="#C8C8C8"/>
</svg>
