<svg width="62" height="71" viewBox="0 0 62 71" fill="none" xmlns="http://www.w3.org/2000/svg">
<path fill-rule="evenodd" clip-rule="evenodd" d="M31.8063 7.80633C37.9898 3.21348 48.1813 2.62848 56.4548 0.125977C58.143 18.2642 60.1237 36.1088 61.992 54.0667C59.6509 59.4063 57.5848 65.0203 55.2048 70.3206C47.0448 66.9299 38.3709 64.0535 29.6627 61.2113C28.9498 58.412 28.1559 55.6931 27.1627 53.1738C26.8041 52.6388 25.6966 52.8538 24.8405 52.8167C24.593 52.4095 23.5977 52.7499 23.0541 52.6381C21.2934 52.7474 19.503 52.5324 17.6963 52.4595C15.8709 52.386 13.652 51.8599 12.3377 52.281C10.5623 52.8495 10.737 55.3238 9.12267 56.2106C8.58696 56.2106 8.05055 56.2106 7.51483 56.2106C7.26733 55.8031 6.27197 56.1438 5.72912 56.032C3.26555 55.8163 2.48839 53.9146 0.90625 52.8171C0.90625 52.1028 0.90625 51.3881 0.90625 50.6738C1.31696 50.251 0.970536 49.071 1.08482 48.3521C1.08482 47.1613 1.08482 45.9706 1.08482 44.7799C0.450179 41.6313 3.47447 40.4553 4.4784 38.3499C5.61697 35.9624 5.36233 33.7467 6.4434 31.2056C11.1345 27.7395 15.653 24.1017 21.8041 22.0963C23.9412 18.756 25.3127 14.6503 27.877 11.737C29.2609 10.5006 30.5709 9.19062 31.8063 7.80633Z" fill="#C8C8C8"/>
</svg>
