<svg width="93" height="68" viewBox="0 0 93 68" fill="none" xmlns="http://www.w3.org/2000/svg">
<path fill-rule="evenodd" clip-rule="evenodd" d="M31.2391 0.548828C35.8391 1.19669 40.5484 1.38919 45.7066 1.08454C47.7316 0.966328 50.2306 1.32204 51.9581 0.905971C52.6238 0.917042 53.0877 0.725971 53.5656 0.548828C55.8888 3.0124 58.1988 5.64561 60.5316 8.40811C62.7084 10.9849 65.1356 14.1867 68.212 15.731C70.9584 17.1099 74.4638 16.8099 78.2141 17.696C78.7877 20.0399 79.1566 22.5881 80.0002 24.6617C82.4052 25.2338 85.6906 24.9253 88.2163 25.376C89.7113 28.1681 90.9716 31.1938 92.3241 34.1281C90.8181 38.167 89.5759 43.1906 88.9306 48.7745C88.2066 55.041 88.2391 60.1549 89.6449 64.8495C86.8881 66.1413 84.7023 68.0038 80.0002 67.3502C78.9288 67.3502 77.857 67.3502 76.7852 67.3502C75.2573 66.2692 73.8852 65.0617 72.3202 63.7781C71.0234 62.7145 68.8356 61.5217 68.0334 60.027C66.7716 57.6763 66.5966 54.2588 65.8902 51.4538C65.1688 48.5892 64.3241 45.867 63.5684 43.0588C59.1016 41.4524 55.1552 39.3263 50.3509 38.0574C47.5527 38.0574 44.7545 38.0574 41.9563 38.0574C40.2288 38.176 38.0281 37.821 36.5981 38.2363C34.2166 38.2363 31.8352 38.2363 29.4538 38.2363C27.4884 38.3545 25.0491 37.9992 23.3809 38.4149C21.6941 39.8835 21.5741 42.9192 20.3445 44.8449C17.4045 47.0409 13.3656 45.8663 9.80628 46.9881C6.44092 48.0492 3.85377 51.9142 0.339844 51.8109C0.774129 49.1492 1.08984 46.3688 1.58984 43.7731C3.30413 42.6474 4.31092 40.6056 6.41235 39.6653C9.56271 38.2553 13.6241 38.2967 17.3077 37.1645C18.2056 33.9642 20.2052 31.3088 20.8799 28.0553C21.5124 25.0063 20.7991 21.9649 21.4156 18.5888C21.6427 17.346 22.6045 16.0045 23.2016 14.6595C25.5573 9.35383 28.3945 4.43061 31.2391 0.548828Z" fill="#C8C8C8"/>
</svg>
