<svg width="94" height="124" viewBox="0 0 94 124" fill="none" xmlns="http://www.w3.org/2000/svg">
<path fill-rule="evenodd" clip-rule="evenodd" d="M60.5268 12.1084C63.2365 12.4484 63.8447 11.2138 65.1707 9.78666C67.7507 7.00988 69.9989 3.65488 71.6007 0.677734C76.8482 5.01059 82.5943 10.0624 88.0329 14.7881C89.4236 15.9963 92.9443 18.1363 93.3911 19.6106C93.6989 20.6263 93.1507 22.0363 93.3911 22.8256C93.3911 24.552 93.3911 26.2788 93.3911 28.0052C93.5068 28.842 93.1575 30.1442 93.5696 30.6842C94.2672 35.847 91.3879 37.4327 90.1761 40.6867C90.4004 40.7599 90.5411 40.917 90.5332 41.2224C88.6964 44.6499 86.9111 47.4617 84.4604 50.1531C83.3757 51.3442 81.7504 52.4363 81.2454 53.7252C80.2489 56.2699 80.575 59.1209 79.6379 62.2988C79.2264 62.7802 79.5743 64.0213 79.4593 64.7992C79.4593 66.1088 79.4593 67.4188 79.4593 68.7284C79.4593 69.9192 79.4593 71.1099 79.4593 72.3006C79.0479 72.782 79.3957 74.0234 79.2807 74.8009C79.2807 76.1106 79.2807 77.4206 79.2807 78.7302C79.2807 80.2184 79.2807 81.707 79.2807 83.1956C75.7418 82.2585 74.1247 83.3206 71.9575 84.6245C70.8979 85.262 69.5868 85.9127 68.9211 86.5892C66.4893 89.0602 65.5825 93.3635 64.6343 96.5913C61.2154 97.9949 57.8443 99.4463 54.0965 100.521C53.0311 103.504 51.7943 106.316 49.9886 108.558C49.605 108.89 48.68 108.679 48.024 108.737C46.8907 108.854 45.2879 108.502 44.4518 108.916C42.7847 108.916 41.1179 108.916 39.4507 108.916C37.5447 109.034 35.165 108.678 33.5565 109.094C32.4186 108.968 32.0225 109.585 31.5918 110.166C30.8622 110.746 30.2072 111.401 29.6272 112.13C28.9572 112.651 28.3618 113.246 27.8411 113.916C27.8411 113.976 27.8411 114.035 27.8411 114.095C27.1114 114.675 26.4568 115.33 25.8764 116.06C25.2072 118.308 25.0379 121.056 24.6261 123.561C22.0072 121.941 19.7229 119.812 17.1243 117.846C14.6079 115.941 11.4532 114.378 9.44395 112.13C8.31288 110.865 7.94966 109.113 6.58645 108.022C3.06073 108.035 2.39645 105.187 0.871094 103.2C4.71002 105.017 9.96609 105.417 15.6957 105.343C17.7443 102.935 20.8304 100.221 22.8404 97.3056C24.8065 94.4538 26.2064 91.3052 25.6982 86.2317C25.6982 85.1006 25.6982 83.9695 25.6982 82.8381C25.6982 80.2781 25.6982 77.7181 25.6982 75.1577C25.58 73.3113 25.9354 70.9913 25.5197 69.4424C25.5197 65.7513 25.5197 62.0599 25.5197 58.3685C26.3486 57.0709 28.419 56.4317 28.9132 54.9749C29.3182 53.7817 29.1365 51.7609 29.2704 50.1524C30.1915 39.092 31.0618 26.7602 32.1282 16.3949C36.2411 16.5492 40.7907 16.5909 44.4525 16.752C45.7718 16.8102 47.3097 17.2467 48.5607 16.752C51.1486 15.7284 50.835 10.4713 55.3479 11.9295C55.5954 12.337 56.5911 11.9963 57.134 12.1081C58.2643 12.1085 59.3954 12.1084 60.5268 12.1084Z" fill="#C8C8C8"/>
</svg>
