<svg width="76" height="114" viewBox="0 0 76 114" fill="none" xmlns="http://www.w3.org/2000/svg">
<path fill-rule="evenodd" clip-rule="evenodd" d="M27.9389 0.205078C28.2646 4.65079 30.2186 8.85722 30.2603 13.2436C30.2903 16.3872 28.8325 19.4026 29.1889 22.8886C28.7761 23.4879 29.1261 24.8501 29.0103 25.7461C29.0103 27.2344 29.0103 28.7229 29.0103 30.2115C29.6564 35.3472 26.7586 37.4015 27.7603 42.3572C28.2271 42.9619 28.7711 43.4897 29.1889 44.1433C30.6621 45.7658 32.2107 47.3137 33.8325 48.7872C35.4257 50.5287 37.0921 52.1958 38.8339 53.7883C40.3246 55.5722 44.1275 55.044 46.6932 55.7529C57.2707 67.3229 67.7011 79.0404 75.8068 93.0829C72.5193 98.7858 69.4278 104.684 66.3403 110.587C64.5868 111.512 63.1268 112.731 61.3389 113.623C60.2653 113.74 58.7225 113.388 57.9453 113.802C56.8739 113.802 55.8025 113.802 54.7303 113.802C53.4803 113.802 52.2296 113.802 50.9796 113.802C50.2018 113.917 48.9611 113.569 48.4789 113.98C47.4075 113.98 46.3361 113.98 45.2639 113.98C44.0139 113.98 42.7632 113.98 41.5132 113.98C40.6203 113.98 39.7268 113.98 38.8339 113.98C37.6982 113.271 36.3111 112.812 35.4403 111.837C33.9143 106.278 32.7382 100.37 31.1539 94.869C26.6003 91.0576 21.6778 87.6026 17.0432 83.9737C15.5003 82.7658 14.05 81.114 12.3989 80.2229C9.95178 78.9019 7.01391 78.7422 4.36177 77.3651C2.93391 75.6372 1.68105 73.7347 0.253906 72.0069C0.705335 70.9701 1.57283 70.349 1.86105 69.149C2.27462 68.4312 1.92319 66.9486 2.03962 65.934C1.92391 65.0379 2.27391 63.6754 1.86105 63.0762C1.86105 61.2304 1.86105 59.3847 1.86105 57.539C1.86105 55.7529 1.86105 53.9669 1.86105 52.1808C1.74533 51.3436 2.09462 50.0419 1.68248 49.5015C1.68248 47.6558 1.68248 45.8101 1.68248 43.9647C1.68248 42.1787 1.68248 40.3926 1.68248 38.6065C1.68248 37.7729 1.68248 36.9394 1.68248 36.1058C3.94462 32.0229 6.77249 27.8122 9.18392 23.7815C10.0103 22.4004 11.2318 20.7894 11.6846 19.4951C13.2843 14.919 13.0421 10.0665 14.721 5.02758C19.0943 3.38686 23.4936 1.77294 27.9389 0.205078Z" fill="#C8C8C8"/>
</svg>
