<svg width="129" height="118" viewBox="0 0 129 118" fill="none" xmlns="http://www.w3.org/2000/svg">
<path fill-rule="evenodd" clip-rule="evenodd" d="M0.117188 8.18985C1.31147 6.93628 2.67576 5.98701 4.04648 4.79629C5.32505 3.68522 6.49077 1.96308 7.97577 1.40237C9.09898 0.97844 11.0011 0.937355 12.4415 0.687712C16.0561 0.0612836 18.7333 -0.0869307 22.8008 0.151998C28.5122 0.487355 32.109 1.28522 36.0179 3.00986C45.4633 7.17736 53.0218 14.7145 64.06 15.8699C64.4486 16.7913 64.1411 18.4095 64.2393 19.6209C64.2393 20.8116 64.2393 22.0024 64.2393 23.1934C64.3536 23.912 64.0072 25.0924 64.4179 25.5152C64.4179 26.5274 64.4179 27.5395 64.4179 28.5516C64.4179 29.7423 64.4179 30.9331 64.4179 32.1238C64.5315 32.7841 64.1865 33.9027 64.5965 34.267C64.1954 37.7356 65.4943 38.9324 66.5608 41.0545C67.2722 42.4695 67.7133 44.1184 68.3472 44.9841C69.1033 46.0167 70.9504 47.1406 72.2765 48.1991C73.6743 49.3145 74.9279 50.5777 76.385 51.4141C77.8193 52.2374 79.6711 52.8738 81.3858 53.7359C83.0411 54.5681 84.6768 55.7906 86.2086 56.2366C90.5683 57.507 96.1172 57.4684 100.319 58.737C101.234 59.9059 102.437 60.7863 103.355 61.952C103.852 63.4795 104.157 65.1991 104.784 66.5963C108.211 69.1234 112.172 71.1159 115.501 73.7406C115.813 76.0052 116.235 78.1138 116.573 80.1706C116.924 82.3142 116.945 84.7102 117.644 86.6006C118.034 87.6538 119.209 89.042 119.966 90.1731C123.361 95.2424 126.781 100.101 128.897 106.07C126.918 106.771 123.807 105.848 121.752 106.784C119.985 107.589 119.606 110.692 118.18 112.5C117.446 113.43 115.51 114.973 114.251 115.358C112.2 115.984 109.768 115.439 107.821 115.893C106.297 116.249 105.289 117.586 103.891 117.858C102.337 118.161 100.66 117.515 98.5329 117.679C96.7633 116.143 96.0258 113.993 94.0672 112.321C92.5304 111.009 90.3276 110.412 88.8879 109.106C87.9568 108.262 85.6247 104.987 85.1365 103.569C85.1365 102.616 85.1365 101.664 85.1365 100.711C85.0247 100.168 85.3654 99.1727 84.9579 98.9249C85.0968 97.3574 84.6965 96.3291 84.7793 94.817C83.2104 93.7984 82.0679 92.1384 80.1358 91.4234C74.7983 89.4488 68.0911 91.6095 63.7029 93.5666C62.0825 96.1731 60.6583 98.9759 58.7022 101.247C52.8715 101.37 48.6018 103.055 44.2343 104.641C39.6779 98.3613 38.8283 88.3752 36.7329 79.6349C34.9611 77.7149 33.1154 75.8692 31.1958 74.0977C28.7761 72.9452 25.8451 72.3045 24.0508 70.5256C23.2326 69.5581 22.3397 68.6649 21.3722 67.8463C21.3086 67.612 21.0576 67.5656 21.0143 67.3106C20.2554 66.4024 19.4226 65.5688 18.5143 64.8099C15.9322 62.1024 16.0833 56.5209 15.6565 51.057C15.439 48.2759 15.6718 45.0377 14.9415 42.8406C14.1561 40.4749 10.3265 38.9052 9.40504 36.4106C8.68647 34.4652 8.70898 31.7313 8.33291 29.4449C7.93113 26.997 7.71148 24.1099 7.08291 22.1213C6.31577 19.6967 4.59898 17.4991 3.51076 15.3341C2.27684 12.8809 1.22862 10.5316 0.117188 8.18985Z" fill="#C8C8C8"/>
</svg>
