<svg width="76" height="89" viewBox="0 0 76 89" fill="none" xmlns="http://www.w3.org/2000/svg">
<path fill-rule="evenodd" clip-rule="evenodd" d="M9.54008 24.7494C11.5872 22.3373 14.3183 21.1384 17.3987 19.2123C20.5901 17.2173 22.4608 14.6023 26.8651 14.5684C30.6758 14.4494 34.9622 14.8066 38.4751 14.3898C45.0912 12.8348 48.9773 8.52658 54.193 5.45908C57.323 3.61836 61.3344 2.28122 64.3737 0.458008C64.3737 1.05336 64.3737 1.64871 64.3737 2.24407C64.4901 3.14014 64.1401 4.50229 64.5529 5.10193C64.4608 9.06336 68.4905 8.90406 70.6258 10.6391C71.1658 11.0512 72.468 10.7019 73.3044 10.8176C73.6922 13.3473 73.8344 16.1223 74.9122 17.9623C74.2222 21.6844 71.008 25.0144 71.5187 29.3934C71.6755 30.7409 73.3255 32.3409 73.6615 34.2159C74.0722 36.5055 73.409 39.153 73.8408 41.1816C74.1129 42.4609 75.4194 43.4794 75.6265 44.5755C74.6647 46.2926 73.8337 48.1405 72.7687 49.7551C67.7458 51.1166 63.0894 52.8169 57.2294 54.7566C54.8276 55.5516 52.2558 56.4055 49.5494 57.2569C47.3244 57.9569 42.869 58.7212 41.8687 59.9362C41.0812 60.893 41.2576 63.5266 41.1544 65.6516C41.0579 67.6234 41.1133 69.8459 40.9758 71.3673C40.7994 73.3241 39.4551 74.9394 38.4751 76.5473C35.888 80.7926 33.7647 84.0673 31.1522 88.3359C29.2626 87.7101 27.9029 88.1402 26.3294 87.4427C24.6701 86.7069 23.9508 84.7473 22.4001 84.2273C20.258 83.5098 17.7655 84.0944 14.898 83.513C13.2462 80.6141 12.9197 77.1462 11.1472 74.5823C9.69615 72.4841 6.92226 71.7501 5.61012 69.5812C7.45297 64.3784 11.4994 56.9998 8.11081 51.363C6.74653 51.1202 5.29404 50.9648 3.64583 51.0055C2.46762 49.9805 1.68652 48.5587 0.609375 47.433C2.05187 39.8862 2.2576 31.1012 7.21796 27.0716C8.06617 26.3719 8.84044 25.598 9.54008 24.7494Z" fill="#C8C8C8"/>
</svg>
