<svg width="124" height="117" viewBox="0 0 124 117" fill="none" xmlns="http://www.w3.org/2000/svg">
<path fill-rule="evenodd" clip-rule="evenodd" d="M35.1695 0.553711C40.236 3.37585 45.4838 6.79408 49.9942 10.1987C51.5124 11.3448 53.3724 12.3684 54.6381 13.5923C56.1495 15.0541 57.3842 17.228 58.746 18.9509C60.1453 20.7209 61.3963 22.738 62.8542 24.3091C65.197 26.8341 68.2499 28.6573 70.5345 31.0966C73.4095 34.1662 75.1424 38.3466 78.2149 41.4559C80.4913 43.7598 84.3935 45.073 87.5027 46.8141C88.7285 47.5002 89.9778 48.4259 91.2535 49.1359C92.6356 49.9055 94.2999 50.4191 95.3613 51.2791C96.6102 52.2909 97.642 54.2194 98.9335 55.7444C100.233 57.2791 101.862 58.623 102.684 60.0309C103.934 62.1716 104.459 64.6802 105.721 66.6394C107.719 69.7427 111.234 72.093 113.937 74.4984C116.821 77.0655 119.901 79.358 122.689 82.0002C123.495 83.8141 123.596 86.3319 123.761 88.7873C123.761 88.9066 123.761 89.0255 123.761 89.1444C121.617 89.1444 119.474 89.1444 117.331 89.1444C115.216 88.5205 113.42 87.5784 110.722 87.5373C109.35 89.2009 108.411 91.2991 107.15 93.0741C107.088 96.823 106.615 100.161 106.614 103.969C104.645 106.882 102.925 110.044 101.256 113.257C98.1613 113.868 95.4138 116.484 92.3252 116.651C91.1285 116.716 88.8745 116.032 87.5027 115.758C83.6817 114.997 80.2781 113.984 78.572 111.471C77.8652 110.43 77.4027 108.622 76.786 107.184C75.4528 104.075 74.246 101.315 73.0352 98.4323C72.3731 96.8559 72.0017 95.033 71.2492 93.9673C70.5378 92.9594 68.4381 91.2716 67.4985 91.1094C65.3335 90.7355 62.372 92.1362 60.3538 91.8237C59.1745 93.6809 58.1881 95.7305 57.1388 97.718C54.0781 97.5059 51.2363 97.3991 48.2085 97.1823C45.7999 97.0098 41.3831 96.1519 39.0992 96.6466C37.3045 97.0348 35.3406 100.29 34.0981 101.648C32.397 103.506 30.8506 105.115 29.097 106.649C28.1413 104.775 27.2256 103.047 26.4177 100.933C25.7556 99.1991 25.1563 96.2277 23.9174 95.0387C23.0152 94.1734 20.606 93.6573 19.0949 93.0741C13.9063 91.0723 8.82739 89.1023 4.09167 87.1801C3.91346 82.2973 2.07775 79.0726 0.519531 75.5702C1.96846 73.6773 4.75346 73.993 6.05667 71.998C6.65167 71.0869 6.64025 69.1891 6.94953 67.7109C7.84882 63.4166 9.1031 58.7105 10.1645 55.0294C12.1277 54.1173 14.1045 53.3198 16.416 52.3505C18.1049 51.6423 21.3427 50.8987 22.3099 49.3141C23.421 47.4937 23.226 44.4202 23.5599 41.8126C23.8967 39.1852 24.2192 36.5666 24.4531 33.9537C25.8242 32.6791 27.2374 31.2762 29.097 29.6673C31.4113 27.6644 34.7131 26.2976 33.741 21.4512C34.1535 20.8519 33.8035 19.4894 33.9195 18.5934C34.5895 13.8594 30.732 9.6423 31.7763 5.19766C32.2163 3.32123 34.4245 2.52443 35.1695 0.553711Z" fill="#C8C8C8"/>
</svg>
