<svg width="57" height="79" viewBox="0 0 57 79" fill="none" xmlns="http://www.w3.org/2000/svg">
<path fill-rule="evenodd" clip-rule="evenodd" d="M18.2281 4.59759C21.8191 4.25902 23.267 1.77761 26.087 0.667969C29.1973 2.0819 32.4388 7.3433 36.4466 4.77616C37.1381 6.4658 38.2006 7.78511 38.947 9.4201C40.5081 10.1215 42.132 10.7601 43.5909 11.5637C43.5506 12.8926 43.3034 14.0148 43.4123 15.493C43.1166 15.743 43.1166 17.2076 43.4123 17.458C43.8641 24.5447 44.917 32.5773 45.7345 39.4273C46.0352 41.9476 45.9791 44.8458 46.6273 46.7501C47.327 48.8058 49.7902 50.4712 50.3781 52.4658C52.0831 52.9044 53.5316 53.5991 55.2006 54.0733C55.6309 56.3223 56.3956 58.2366 56.9866 60.3251C56.7698 61.2394 55.8588 61.4594 55.3791 62.1108C49.5313 63.3483 48.0481 68.9494 46.4484 74.4351C43.5595 74.6722 41.1909 77.5612 38.2323 78.0076C34.6623 78.5462 31.1813 77.0937 26.9798 77.4715C24.4966 67.8754 21.2195 56.3541 18.4063 46.0358C17.6909 43.4123 17.0398 37.1758 15.1913 35.8551C14.1052 35.0787 11.8266 35.2083 10.3688 35.1405C9.33485 22.9569 4.26734 14.8069 0.902344 4.95473C1.7952 4.95473 2.68842 4.95473 3.58127 4.95473C4.65592 5.25223 6.97234 5.25223 8.04663 4.95473C9.05877 4.95473 10.0709 4.95473 11.0831 4.95473C11.7434 4.8408 12.8623 5.1858 13.2266 4.77616C14.1791 4.77616 15.1316 4.77616 16.0841 4.77616C16.7445 4.66223 17.8638 5.00759 18.2281 4.59759Z" fill="#C8C8C8"/>
</svg>
