<svg width="92" height="64" viewBox="0 0 92 64" fill="none" xmlns="http://www.w3.org/2000/svg">
<path fill-rule="evenodd" clip-rule="evenodd" d="M91.1923 38.5593C91.3055 39.1607 90.9623 40.2182 91.3708 40.524C91.3708 40.8811 91.3708 41.2386 91.3708 41.5957C88.8658 42.7814 87.398 45.0054 84.048 45.3464C83.3876 45.4604 82.2687 45.1154 81.9048 45.525C80.9523 45.525 79.9998 45.525 79.0469 45.525C78.3869 45.6389 77.2676 45.2939 76.9037 45.7036C75.8916 45.7036 74.8794 45.7036 73.8673 45.7036C72.498 45.7036 71.1287 45.7036 69.7594 45.7036C68.663 45.6093 67.1737 45.9079 66.3659 45.525C65.6426 42.5311 66.9019 39.1514 65.6516 36.7729C65.1576 35.8339 62.9112 34.7818 62.0794 34.2725C60.7716 33.4722 59.1359 32.1675 57.9716 32.1293C56.9655 32.0957 55.2833 33.1036 54.3994 33.5579C53.3866 34.079 51.8455 34.7104 51.0059 35.3443C50.1426 35.9957 48.1598 38.5643 47.7908 39.6307C46.9841 41.9625 47.9573 45.57 46.0048 46.4182C45.0373 47.2368 44.1441 48.1297 43.3255 49.0972C42.0605 50.2136 40.8694 51.4043 39.7533 52.6696C39.3641 53.2925 38.9505 53.8914 38.3244 54.2771C37.3569 55.0953 36.4637 55.9886 35.6451 56.9564C34.3801 58.0725 33.1891 59.2632 32.073 60.5286C31.1433 61.5179 30.6359 62.8672 29.3937 63.2079C27.2184 63.8043 23.6116 63.5211 21.5348 63.2079C19.4658 62.8961 17.8362 61.4818 15.9976 61.4214C12.2941 61.3004 8.95121 63.3675 5.63835 63.565C3.79442 63.6747 2.17156 63.1757 0.101562 63.0293C2.21835 58.7 4.3512 53.7197 6.53156 49.0972C7.28799 47.4943 8.67192 45.7439 8.67478 44.275C8.67906 42.3232 6.76906 39.6529 5.63835 37.13C4.90228 35.4879 2.57192 31.4182 2.60192 29.9857C2.61764 29.2393 3.6162 27.6386 4.20942 26.4136C7.36228 19.9007 10.8505 13.6896 11.8898 6.05143C11.7866 4.90429 10.6744 4.76608 10.2823 3.90822C12.9851 4.18215 15.4701 4.67393 17.9626 5.15857C18.7741 7.08536 19.1833 9.41501 20.463 10.8743C20.6558 11.1697 22.0566 11.1697 22.2491 10.8743C23.4991 10.8743 24.7494 10.8743 25.9998 10.8743C27.4298 10.7564 29.3319 11.1107 30.4651 10.6957C32.4762 9.9143 34.2909 7.68214 36.3594 5.87286C37.1587 5.17393 38.2151 4.4793 39.2169 3.55108C40.7734 2.10894 41.463 0.550006 44.0394 1.05036C44.3448 1.45929 45.4026 1.11609 46.0041 1.2293C47.4923 1.2293 48.9809 1.2293 50.4694 1.2293C51.2351 3.91609 52.2784 6.32608 52.9698 9.08786C54.7466 9.55215 56.3244 11.1775 58.5066 11.41C61.2676 11.7043 64.3101 10.6964 67.6159 11.0529C68.1587 10.9407 69.1544 11.2818 69.4019 10.8743C70.7558 10.0832 71.7416 7.55893 72.6169 5.69429C73.5001 3.81357 73.9801 1.82036 75.1176 0.514648C76.7955 1.25786 78.2001 2.37109 79.9401 3.37216C81.2801 4.14359 83.9083 4.89822 84.7626 6.23C85.2626 7.01036 85.5023 8.73323 85.8344 9.98109C86.8926 13.9568 87.678 18.1518 88.1562 22.6629C89.3937 24.3425 91.4173 25.2361 90.8351 28.7354C90.9483 29.3371 90.6051 30.3947 91.0137 30.7C91.0137 31.7122 91.0137 32.7243 91.0137 33.7365C91.1269 34.3379 90.7837 35.3957 91.1923 35.7014C91.1923 36.6539 91.1923 37.6064 91.1923 38.5593Z" fill="#C8C8C8"/>
</svg>
