<svg width="101" height="87" viewBox="0 0 101 87" fill="none" xmlns="http://www.w3.org/2000/svg">
<path fill-rule="evenodd" clip-rule="evenodd" d="M82.8585 67.4663C81.2638 69.0656 79.4692 70.7992 77.5003 72.646C75.7485 74.2892 74.0063 76.442 71.9631 77.8256C69.9706 79.1749 67.4303 80.2567 64.8188 81.7553C62.4645 83.1063 59.936 85.4227 57.6745 85.8635C56.0302 86.1835 54.0599 85.9813 52.3159 86.042C50.5452 86.1035 48.6652 86.1452 46.7792 86.2206C43.7927 86.3399 38.456 87.0452 35.7053 86.5778C33.5445 86.2106 31.9867 83.9892 29.8113 83.1842C28.3077 80.9256 28.5506 75.966 26.7749 74.2535C25.1506 72.6867 22.2549 73.5177 19.8088 72.467C22.7463 70.471 19.4867 66.321 19.0945 63.3577C17.6903 62.5592 16.0292 62.0177 14.272 61.572C13.6195 59.7277 11.2842 58.0377 10.6999 56.0349C10.1377 54.1088 10.1167 51.2617 9.80703 48.7117C9.51632 46.316 9.20811 43.8102 8.91418 41.3885C7.99953 33.857 7.52132 27.1431 7.48524 20.6695C6.03382 19.8585 4.41846 19.2117 2.84132 18.5263C2.09811 17.0663 1.12632 15.8353 0.519531 14.2392C4.49132 13.7481 7.27204 9.94742 10.3431 9.05991C14.3088 7.91313 18.4324 9.12739 21.417 6.55917C22.2174 4.6206 22.8888 2.55311 23.7392 0.6649C25.8824 0.6649 28.0256 0.6649 30.1692 0.6649C31.837 0.546685 33.9781 0.901685 35.3488 0.486328C37.7302 0.486328 40.112 0.486328 42.4935 0.486328C45.4106 0.486328 48.3281 0.486328 51.2456 0.486328C55.1242 1.96597 59.0527 3.39562 62.6767 5.1299C64.1338 10.6985 65.6031 16.2542 66.9634 21.9199C70.1324 24.4667 73.1817 27.1328 76.4299 29.5999C77.3849 30.0145 79.1074 29.6613 80.3595 29.7788C81.0195 29.6649 82.1385 30.0099 82.5027 29.5999C86.0374 30.0981 87.5363 27.6092 89.647 27.2781C89.0799 32.1463 90.2924 34.6578 91.7906 37.6378C94.4767 42.9806 97.2867 49.1785 100.364 53.177C99.0292 53.5092 97.4442 53.5913 96.2563 54.0699C91.7145 58.461 87.2495 62.9263 82.8585 67.4663Z" fill="#C8C8C8"/>
</svg>
