<svg width="58" height="73" viewBox="0 0 58 73" fill="none" xmlns="http://www.w3.org/2000/svg">
<path fill-rule="evenodd" clip-rule="evenodd" d="M0.914062 69.1887C1.74121 64.0027 3.4844 59.7327 3.59333 53.828C6.74405 49.5923 10.1133 46.0394 12.1669 40.6109C14.2491 35.1044 14.3976 28.5976 16.0962 22.3923C16.8762 19.5441 18.5287 16.7916 19.6683 13.9973C20.8758 11.0391 21.7241 8.01443 23.2405 5.60265C27.9037 4.75443 32.7033 5.8598 36.8155 4.70944C40.5194 3.67337 43.6987 -0.144134 49.1397 0.958723C50.4419 0.668366 49.6294 2.49336 49.854 3.2805C49.1962 6.35336 45.4762 8.7148 45.2105 11.8541C45.0501 13.7455 46.6908 16.0823 47.1748 18.1055C47.9058 21.1584 47.0862 24.7266 49.1397 26.6787C49.9133 26.6787 50.6876 26.6787 51.4619 26.6787C52.0612 27.0916 53.4233 26.7416 54.3198 26.8573C55.3319 26.8573 56.3441 26.8573 57.3562 26.8573C56.4048 29.1934 55.814 31.3598 55.3912 34.0019C54.9944 36.4805 54.9237 39.5052 54.1412 42.0394C53.4073 44.4144 51.4605 47.4787 50.0326 50.2559C48.6194 53.0044 46.4976 55.3062 44.8533 57.4002C43.1619 59.5541 41.2373 61.7341 39.3162 64.1877C37.6665 66.2934 35.618 70.0598 33.7791 70.9752C31.3084 72.2041 28.0312 72.2477 24.8483 72.4037C24.0147 72.4037 23.1812 72.4037 22.3476 72.4037C21.1569 72.4037 19.9662 72.4037 18.7755 72.4037C18.2326 72.5159 17.2365 72.1748 16.989 72.5823C10.389 72.6941 5.09192 71.5009 0.914062 69.1887Z" fill="#C8C8C8"/>
</svg>
