<svg width="80" height="105" viewBox="0 0 80 105" fill="none" xmlns="http://www.w3.org/2000/svg">
<path fill-rule="evenodd" clip-rule="evenodd" d="M32.1444 97.6728C27.2719 100.778 21.6055 103.09 15.1762 104.639C12.8844 102.584 10.4423 100.68 8.38906 98.3875C7.80871 97.6578 7.15407 97.0032 6.42443 96.4228C4.81872 94.7557 3.16978 91.855 3.20942 89.2786C3.2305 87.905 4.09872 85.9018 4.63837 84.0985C5.71194 80.5096 6.83264 77.3493 7.85335 73.9178C8.38478 72.1318 9.21408 70.1378 9.28229 68.5596C9.38372 66.2132 8.55228 63.711 8.03192 61.5939C7.51621 59.495 6.86693 57.4861 6.24586 55.1639C4.30479 54.1875 2.01513 53.56 0.351562 52.3061C0.351562 52.0678 0.351562 51.83 0.351562 51.5918C0.763348 51.1103 0.414777 49.8693 0.530134 49.0914C0.530134 47.7818 0.530134 46.4718 0.530134 45.1621C0.530134 43.9714 0.530134 42.7807 0.530134 41.59C0.941562 41.1086 0.593348 39.8671 0.708705 39.0896C0.708705 37.7796 0.708705 36.47 0.708705 35.16C0.708705 33.9693 0.708705 32.7786 0.708705 31.5878C1.12013 31.1064 0.77192 29.865 0.887277 29.0871C0.887277 27.7775 0.887277 26.4675 0.887277 25.1578C1.21156 20.6375 1.14372 17.0611 2.49479 14.0839C3.64372 11.5528 6.72514 9.89177 8.38906 7.47534C9.58371 5.74034 9.99586 4.03106 11.2469 2.2957C15.5951 1.88106 19.2169 0.739983 23.5712 0.331055C25.0898 2.02748 27.1369 3.19535 29.108 4.43892C31.5869 10.4253 32.1494 16.6971 33.9309 23.0146C35.7334 29.4096 39.908 34.9939 40.0037 42.8404C38.9798 44.9125 38.1162 47.145 37.1459 49.2703C35.2644 49.9496 33.3894 50.6343 31.6087 51.4135C31.3241 53.8168 30.5894 56.6932 30.8944 59.0939C34.4109 62.2543 40.6976 61.5393 46.0766 63.0232C48.8173 63.7796 50.8562 65.3 53.2208 65.8811C57.2073 73.8018 60.1516 82.7654 65.7237 89.1007C70.4294 89.4561 75.2676 89.6782 79.8344 90.1721C79.8344 90.5889 79.8344 91.0057 79.8344 91.4225C79.4201 92.2586 79.773 93.8614 79.6559 94.9946C79.6559 96.5425 79.6559 98.0903 79.6559 99.6386C78.108 99.6386 76.5594 99.6386 75.0116 99.6386C74.3516 99.7525 73.2323 99.4071 72.868 99.8171C71.7373 99.8171 70.6059 99.8171 69.4744 99.8171C68.8144 99.9311 67.6959 99.5861 67.3316 99.9957C66.2594 99.9957 65.188 99.9957 64.1166 99.9957C63.3973 100.11 62.2173 99.7636 61.7944 100.174C57.2484 100.51 53.5305 101.675 49.113 102.139C46.1359 102.139 43.1587 102.139 40.1823 102.139C38.4112 100.755 37.2219 98.7882 35.1809 97.6736C34.5794 97.3761 32.7455 97.376 32.1444 97.6728Z" fill="#C8C8C8"/>
</svg>
