<svg width="53" height="78" viewBox="0 0 53 78" fill="none" xmlns="http://www.w3.org/2000/svg">
<path fill-rule="evenodd" clip-rule="evenodd" d="M38.0345 0.371094C39.6995 3.17145 44.5788 2.75716 47.6795 4.1218C46.8627 8.43145 51.717 9.77645 52.3238 12.8739C52.957 16.1089 50.6588 18.1989 50.3588 21.4472C48.8153 22.94 46.9549 24.1157 45.7145 25.9122C45.7145 26.0314 45.7145 26.1504 45.7145 26.2693C45.4174 27.6407 45.4174 30.2564 45.7145 31.6275C45.9735 33.0357 46.9417 33.7347 47.3224 35.0211C47.3224 36.2118 47.3224 37.4025 47.3224 38.5932C43.5352 41.2468 46.2099 45.8104 45.0002 50.2029C44.3824 52.4472 39.3767 55.4571 38.2131 57.5261C37.6556 58.5164 37.7263 59.8007 37.3202 60.5625C36.0863 62.8754 31.7727 64.2929 31.4259 66.8139C31.2466 68.114 32.3766 69.0197 32.8545 70.029C32.8545 70.8625 32.8545 71.6961 32.8545 72.5297C32.5949 72.6272 31.9317 72.3207 31.9616 72.7082C26.1077 71.6721 23.4231 75.6579 19.1017 76.6375C14.8827 77.5939 11.0067 76.5418 6.06238 77.5304C4.38881 55.0318 0.283093 34.965 0.52595 10.5507C4.74416 8.68216 8.75559 6.44752 13.0288 4.29931C15.1834 3.21573 16.7767 2.1768 19.9945 2.33466C20.596 2.22145 21.6534 2.56502 21.9595 2.15609C22.9117 2.15609 23.8645 2.15609 24.8174 2.15609C25.4188 2.04287 26.4763 2.38609 26.7817 1.97752C27.7345 1.97752 28.6867 1.97752 29.6395 1.97752C30.241 1.8643 31.2984 2.20752 31.6045 1.79895C34.5049 2.08073 36.0702 1.02645 38.0345 0.371094Z" fill="#C8C8C8"/>
</svg>
