<svg width="74" height="39" viewBox="0 0 74 39" fill="none" xmlns="http://www.w3.org/2000/svg">
<path fill-rule="evenodd" clip-rule="evenodd" d="M73.3001 14.1413C71.9265 16.8163 70.7497 19.6888 68.4772 21.4642C67.4497 22.3424 66.4976 23.2949 65.6194 24.3221C65.4751 24.3564 65.4415 24.5014 65.2622 24.5006C64.4411 25.2867 63.464 25.9181 62.9401 27.0013C61.4954 31.0931 59.4976 34.6331 57.7608 38.4328C54.9329 37.3306 53.0936 35.2406 50.0801 34.3246C49.7158 33.9149 48.5972 34.2599 47.9365 34.1456C46.8651 34.1456 45.7936 34.1456 44.7215 34.1456C44.3572 33.7363 43.2386 34.0813 42.5786 33.9671C36.2093 34.9185 35.4608 30.2492 32.0401 28.2517C31.2036 27.8378 29.6008 28.1899 28.4679 28.0728C27.6308 28.1885 26.3293 27.8396 25.7886 28.2517C24.5979 28.2517 23.4072 28.2517 22.2165 28.2517C21.2608 28.3678 19.8383 28.0171 19.1801 28.4303C14.349 28.8388 9.42791 29.1567 4.71219 29.6806C3.63362 24.9249 2.109 20.6146 0.425781 16.4631C3.70578 13.8492 7.39005 11.6392 9.35612 7.71135C13.9425 6.53885 18.1558 5.45635 22.0379 3.42456C24.4054 2.18528 25.2954 0.477765 29.0036 0.924193C30.4175 2.48705 31.9061 3.97562 33.4693 5.38955C42.1065 6.52062 48.5761 3.94848 56.1529 3.42491C56.8129 3.31098 57.9322 3.65634 58.2965 3.24634C59.3679 3.24634 60.4393 3.24634 61.5115 3.24634C62.2301 3.1317 63.4108 3.47848 63.8329 3.06777C64.9051 3.06777 65.9765 3.06777 67.0486 3.06777C67.7672 2.95348 68.9472 3.29991 69.37 2.8892C70.4422 2.8892 71.5136 2.8892 72.5851 2.8892C72.8829 2.8892 73.1808 2.8892 73.4786 2.8892C73.4786 3.90134 73.4786 4.91349 73.4786 5.92563C73.4786 6.99742 73.4786 8.06921 73.4786 9.14064C73.0686 9.50492 73.4136 10.6242 73.3001 11.2842C73.3001 12.236 73.3001 13.1885 73.3001 14.1413Z" fill="#C8C8C8"/>
</svg>
