<svg width="123" height="98" viewBox="0 0 123 98" fill="none" xmlns="http://www.w3.org/2000/svg">
<path fill-rule="evenodd" clip-rule="evenodd" d="M31.9076 0.486328C34.2748 2.64383 34.2562 7.18777 39.0519 6.91634C41.1833 11.7042 45.3351 13.7867 49.4115 16.9188C52.039 18.9378 54.9001 20.7649 57.2705 22.8131C61.7962 26.7242 65.2183 32.067 69.2376 35.6731C71.234 37.4649 73.7119 38.8688 75.6676 40.8528C76.4862 41.8203 77.379 42.7135 78.3469 43.5317C78.5258 43.5313 78.5594 43.6763 78.704 43.7106C79.5819 44.7374 80.5348 45.6903 81.5619 46.5681C82.3805 47.536 83.2733 48.4288 84.2408 49.2474C84.4198 49.247 84.4533 49.392 84.598 49.426C85.4165 50.3938 86.3094 51.2867 87.2769 52.1053C88.0633 52.9267 88.694 53.9031 89.7773 54.427C94.474 55.0267 101.616 55.6524 106.924 56.2135C108.95 56.4278 111.192 57.0645 112.639 56.7492C114.939 56.2485 115.964 53.3095 118.355 52.9985C118.919 55.1142 120.138 57.0742 120.855 59.2499C121.433 60.9996 122.679 64.7592 122.642 66.3942C122.604 68.0395 120.862 73.2728 120.319 74.6106C118.522 79.0442 115.555 82.3595 112.818 85.6845C109.134 90.1588 104.671 94.4085 100.672 97.8299C99.633 96.9517 98.8744 95.821 97.8144 94.9724C96.7408 94.1135 95.6715 93.3092 94.5994 92.4717C92.5133 90.8424 90.4372 88.9827 88.1694 87.6492C81.0483 83.461 73.3769 80.6888 65.6644 77.8256C62.0533 76.4849 58.3269 74.4935 54.5905 72.6456C50.9715 70.856 46.8655 69.3517 43.6951 67.2874C41.3008 65.7281 38.9419 63.1081 36.5508 61.0356C30.4669 55.7642 24.5576 50.826 18.6898 45.4963C17.5155 44.4303 15.8573 43.2713 15.1176 42.2817C13.7251 40.4195 13.3619 37.8003 12.2598 35.8517C11.2565 34.0785 9.4594 32.2274 7.97333 30.4935C5.53011 27.6438 3.59047 24.712 0.292969 23.1703C0.292969 23.1106 0.292969 23.0513 0.292969 22.9917C3.25118 22.0156 6.18011 17.577 9.22333 16.9188C12.488 16.2128 15.8883 17.207 19.7615 16.5617C21.0023 15.3924 22.4322 14.0238 23.8694 12.4535C24.9633 11.2585 27.2205 9.3074 27.6201 7.98812C27.873 7.15312 27.5637 6.2317 27.7987 5.48777C28.5012 3.26527 30.7008 2.41954 31.9076 0.486328Z" fill="#C8C8C8"/>
</svg>
