<svg width="78" height="133" viewBox="0 0 78 133" fill="none" xmlns="http://www.w3.org/2000/svg">
<path fill-rule="evenodd" clip-rule="evenodd" d="M54.9983 63.1778C54.8162 64.7982 53.6905 65.1825 53.3905 66.75C53.1137 68.1964 53.484 73.3603 53.9262 74.966C54.2423 76.1117 56.3523 80.1957 57.1412 80.6817C59.2723 81.9932 62.8744 81.1828 65.5362 81.7532C68.4323 82.3739 70.8683 83.7414 73.3955 84.4321C74.374 88.4417 73.4798 91.8485 74.4669 95.3275C75.2308 98.0221 77.9651 99.8214 76.9676 103.901C75.8319 105.505 75.073 107.484 73.7526 108.902C72.1112 109.496 70.6283 109.085 69.2869 109.795C68.1737 110.385 66.4369 113.154 66.2505 114.796C65.9833 117.162 67.063 119.294 68.394 120.691C68.1394 121.15 67.8173 121.543 67.8583 122.298C65.7573 122.817 64.218 123.897 61.2497 123.549C60.6483 123.661 59.5905 123.318 59.2848 123.727C58.3319 123.727 57.3798 123.727 56.4269 123.727C55.8255 123.84 54.768 123.497 54.4619 123.906C53.5098 123.906 52.5569 123.906 51.6041 123.906C51.0026 124.019 49.9451 123.675 49.6398 124.084C45.2787 124.155 41.8494 126.72 38.5655 128.371C35.5215 129.901 32.658 131.057 29.9919 132.658C25.859 131.611 21.5265 130.764 17.489 129.621C11.3744 121.566 5.03871 112.78 0.164062 104.08C2.53728 103.893 5.19762 103.994 7.30834 103.544C8.43548 100.176 7.88655 96.2675 8.55834 93.0057C9.06262 90.5578 10.6816 88.0264 11.2376 85.3253C12.0376 81.4432 11.8933 76.5692 12.3098 72.1078C12.5001 70.0603 12.8244 67.8539 13.0241 65.6778C13.2158 63.5792 13.6426 61.1267 13.3812 59.4264C13.0087 57.0075 11.4944 54.421 10.5233 51.9246C9.59906 49.5492 7.94048 46.7303 7.66548 44.4228C7.50798 43.0971 8.01548 41.4146 8.20119 39.7789C8.37334 38.261 8.26619 36.5546 8.55834 35.135C9.32298 31.4235 11.7748 27.5107 12.6669 23.3464C13.4419 19.7303 12.8133 15.5925 13.7383 12.451C15.7948 9.1771 19.3605 9.39603 23.2048 7.27138C24.4694 6.57245 26.4115 5.0771 27.4919 4.05638C28.6065 3.00245 29.508 1.05495 30.5283 0.662812C31.6826 0.218526 34.2066 0.0453116 35.529 0.305669C36.6269 0.52174 37.8587 2.03031 39.1012 2.98495C41.9283 5.15674 43.7823 6.47531 46.4248 8.52174C47.6462 9.46817 48.8808 10.901 49.9969 11.3796C53.0083 12.671 55.5626 11.9803 59.1062 13.3442C60.643 18.8571 58.3891 20.3282 56.2483 23.525C55.0966 25.2453 53.2426 27.3328 53.2119 29.0617C53.184 30.6364 55.1512 33.8814 55.8912 34.956C57.0862 36.691 60.3044 38.9928 60.8926 41.0289C61.7058 43.8482 60.7265 46.416 61.4283 50.3167C60.2522 52.0117 55.8326 52.7471 54.9983 54.6035C54.3523 56.04 55.1008 57.965 54.8198 60.3189C54.9355 61.2164 54.5855 62.5785 54.9983 63.1778Z" fill="#C8C8C8"/>
</svg>
