<svg width="143" height="149" viewBox="0 0 143 149" fill="none" xmlns="http://www.w3.org/2000/svg">
<path fill-rule="evenodd" clip-rule="evenodd" d="M44.0463 0.261719C45.7734 4.671 49.5256 8.70816 51.0127 13.6578C51.6502 15.7807 51.8645 18.4621 52.2627 20.8024C52.677 23.2399 52.4823 26.1321 53.3341 28.1253C54.3852 30.5846 58.1248 32.0857 58.8713 34.3767C59.622 36.6821 59.188 40.0771 59.407 42.9503C59.8623 48.921 60.1338 54.5939 63.337 57.5967C64.0959 58.5049 64.9288 59.3385 65.837 60.0971C66.6559 61.0649 67.5488 61.9578 68.5163 62.7764C70.3563 64.3303 73.2141 64.866 75.3034 66.1699C77.0152 68.0307 78.8016 69.8167 80.662 71.5282C82.8759 80.4485 83.7284 90.7296 88.6998 96.8917C93.192 95.546 98.5513 93.5274 104.596 93.1406C105.488 91.9838 106.328 90.8607 107.276 89.3896C108.034 88.2114 108.516 86.3438 109.776 85.4603C112.603 83.4785 120.657 81.7574 124.958 83.4953C126.295 84.0356 126.986 85.5306 128.173 85.996C128.592 86.2913 128.56 87.0382 128.531 87.7824C128.642 88.3253 128.302 89.3207 128.709 89.5682C128.709 90.3424 128.709 91.1164 128.709 91.8903C128.825 92.7867 128.475 94.1485 128.888 94.7482C128.888 94.986 128.888 95.2246 128.888 95.4625C130.162 97.4035 131.775 99.0053 132.996 101C136.893 102.937 139.998 105.666 142.283 109.216C140.327 110.42 135.971 110.22 134.782 112.074C133.877 113.485 134.871 115.202 134.603 117.075C134.322 119.048 132.547 120.844 132.638 122.612C130.394 123.225 126.98 122.668 125.673 124.219C124.641 127.155 124.541 129.988 121.922 131.364C120.282 132.225 116.839 132.634 114.598 133.15C112.479 133.638 108.481 133.946 107.454 135.115C106.23 136.508 106.406 139.88 106.026 141.902C105.548 144.426 105.015 146.485 104.418 148.511C102.036 148.511 99.6548 148.511 97.2734 148.511C94.3248 148.303 91.977 147.496 89.057 147.26C85.4877 145.006 81.3184 142.066 77.447 139.58C76.0548 138.686 73.0191 137.848 73.5177 135.829C73.8148 135.169 73.8148 133.274 73.5177 132.614C72.597 126.687 70.8002 121.638 69.4098 116.182C69.4098 115.527 69.4098 114.872 69.4098 114.217C69.4098 113.622 69.4098 113.026 69.4098 112.431C69.4098 110.347 69.4098 108.263 69.4098 106.18C69.8227 105.521 69.472 104.098 69.5884 103.143C69.4705 101.832 69.8241 100.049 69.4098 99.0346C69.6573 95.8453 66.4781 96.3067 64.0513 95.8196C61.8945 95.3871 60.3416 94.485 58.5141 94.7482C56.8505 94.9878 54.4273 97.1903 52.6198 98.3203C50.6841 99.5306 48.1952 100.601 46.7255 101.892C44.1802 104.131 42.6534 107.646 40.6527 109.216C38.9673 109.511 36.0866 109.511 34.4013 109.216C32.3834 107.39 33.9923 104.02 33.5084 101.357C33.2463 99.9121 30.9309 97.4399 29.9363 97.0703C29.148 96.7771 26.8056 96.4714 25.292 97.0703C23.7991 97.6603 23.8152 99.4492 22.4341 100.464C18.048 94.9663 15.5027 87.6289 12.0748 81.1735C11.9563 78.7917 12.312 75.9349 11.8963 73.8503C10.2173 68.4157 10.432 63.3389 11.3606 56.8821C11.8559 53.4339 12.2645 49.9217 12.9677 47.2371C13.3491 45.7817 14.4548 44.3428 14.397 42.9503C14.3245 41.2203 12.8909 39.5314 12.2534 38.1278C11.4609 36.3842 10.9288 34.8999 10.1098 33.3053C7.58127 32.9167 4.77876 32.8017 1.89376 32.7696C1.33591 30.8264 0.849487 28.8124 0.464844 26.6967C7.56842 26.5153 13.2998 27.1496 18.3263 25.0889C20.6688 24.1289 23.0959 21.2253 25.1134 19.3732C31.8734 13.1682 38.4041 6.70708 44.0463 0.261719Z" fill="#C8C8C8"/>
</svg>
