<svg width="70" height="74" viewBox="0 0 70 74" fill="none" xmlns="http://www.w3.org/2000/svg">
<path fill-rule="evenodd" clip-rule="evenodd" d="M62.8543 55.6378C64.78 57.7607 67.2629 59.3264 69.1057 61.5318C65.8786 67.295 59.085 69.4914 54.2811 73.6775C49.4336 73.1435 43.5075 72.4643 38.0272 71.8914C34.824 71.5564 32.0229 71.835 30.7043 69.7478C29.8265 68.7211 28.874 67.7682 27.8465 66.8903C27.0279 65.9225 26.135 65.0296 25.1675 64.2111C25.0229 64.1771 24.9893 64.0321 24.8104 64.0325C23.9322 63.0053 22.9797 62.0525 21.9525 61.1746C21.134 60.2071 20.2411 59.3139 19.2732 58.4954C14.5661 55.38 10.1715 50.6732 6.23467 46.3496C4.78146 44.7539 1.05002 42.1207 0.697882 40.2771C0.51931 39.3425 1.30217 34.3218 1.76931 33.1328C2.09681 32.2989 2.82253 31.8232 3.37681 31.3468C4.04681 30.826 4.64217 30.2307 5.16289 29.5607C5.16289 29.5011 5.16289 29.4418 5.16289 29.3821C5.89253 28.8021 6.54717 28.1471 7.12753 27.4175C7.58396 26.8618 7.88111 26.1468 9.09218 26.3457C11.0572 26.3457 13.0218 26.3457 14.9865 26.3457C16.1197 26.2285 17.7225 26.5814 18.5586 26.1671C20.8754 26.2214 23.0554 26.1389 25.1672 25.9885C27.4265 23.7828 28.8772 20.7678 29.9897 17.4153C33.8786 16.4814 37.0365 14.8175 40.5279 13.4861C41.4218 9.67642 42.8357 6.38713 44.6357 3.48356C47.5915 2.11927 49.4522 -0.77002 54.2807 0.268552C54.2807 0.447123 54.2807 0.625695 54.2807 0.804266C53.8661 1.75891 54.2197 3.48177 54.1022 4.73356C54.1022 6.10284 54.1022 7.47248 54.1022 8.84177C55.6686 10.4307 58.2811 10.9736 60.3536 12.0568C61.4054 16.0657 62.4186 20.1128 63.2114 24.3811C61.6747 29.1018 60.1629 34.7353 58.5675 40.0989C58.0218 41.9328 56.9872 43.7764 56.96 45.2789C56.919 47.5482 58.5114 49.4621 58.9247 51.7089C59.505 52.4386 60.1597 53.0932 60.8893 53.6736C61.4697 54.4025 62.1247 55.0575 62.8543 55.6378Z" fill="#C8C8C8"/>
</svg>
