<svg width="71" height="65" viewBox="0 0 71 65" fill="none" xmlns="http://www.w3.org/2000/svg">
<path fill-rule="evenodd" clip-rule="evenodd" d="M23.3387 4.46034C24.113 4.46034 24.8866 4.46034 25.6608 4.46034C27.5601 3.3232 27.1691 -0.104639 30.8409 0.531075C31.0884 0.938575 32.0837 0.597861 32.6266 0.709646C35.993 0.677503 39.0712 0.933575 42.2716 1.06679C43.1841 3.66715 43.9651 6.39893 44.7723 9.10464C53.548 12.1771 62.6984 14.8739 70.8501 18.5711C69.2219 28.3243 67.8458 36.2586 63.5266 43.0411C62.0598 45.345 59.2912 47.1161 58.5259 49.4711C57.9219 51.3293 58.2734 53.41 57.9901 55.1868C57.4712 58.4336 56.3001 61.2289 55.668 64.4746C48.1198 60.6346 40.5544 54.9154 30.8409 52.6861C28.8369 52.2264 26.0062 52.2964 23.5173 52.1504C16.2355 51.7229 11.0466 52.4818 4.763 53.9364C3.36085 48.3725 1.95871 42.8089 0.476562 37.3254C2.74371 33.6389 4.24122 29.1829 6.37086 25.3582C7.33836 24.54 8.2312 23.6468 9.05013 22.6789C10.0769 21.8011 11.0298 20.8486 11.9073 19.8211C14.0451 17.9696 15.0112 14.9471 16.5516 12.4982C16.9644 11.8986 16.6144 10.5364 16.7301 9.64035C16.7301 8.62821 16.7301 7.61606 16.7301 6.60392C17.1409 6.18106 16.7944 5.00071 16.9087 4.28214C16.9087 3.38929 16.9087 2.49606 16.9087 1.6032C18.6316 2.32106 19.0537 4.34036 21.553 4.28214C21.8005 4.68893 22.7959 4.3482 23.3387 4.46034Z" fill="#C8C8C8"/>
</svg>
