<svg width="112" height="96" viewBox="0 0 112 96" fill="none" xmlns="http://www.w3.org/2000/svg">
<path fill-rule="evenodd" clip-rule="evenodd" d="M10.5379 0.078125C12.2432 1.30241 12.89 4.19526 14.6464 5.43634C16.9443 7.06026 20.2882 6.9042 22.8621 8.2942C24.4371 9.14456 25.9653 10.6828 27.5064 11.8663C32.1946 15.4685 36.905 19.2242 41.2593 22.7617C42.5882 28.4588 44.0514 34.0206 45.3678 39.7299C47.5789 40.9117 49.0214 42.8631 52.8693 42.4088C54.12 42.4088 55.37 42.4088 56.62 42.4088C57.3393 42.2942 58.5193 42.641 58.9421 42.2303C60.0736 42.2303 61.205 42.2303 62.3357 42.2303C63.5864 42.2303 64.8364 42.2303 66.0864 42.2303C66.8057 42.1156 67.9857 42.4624 68.4086 42.0517C73.5621 42.7396 75.1482 39.8606 78.2321 38.4796C81.2129 32.5885 84.3628 26.8681 87.52 21.1542C89.37 23.4831 91.0704 26.1746 93.0571 29.0131C94.3607 30.8749 96.9921 35.6588 98.9514 36.6935C102.405 38.5174 107.32 37.9431 111.276 39.9085C111.276 40.7421 111.276 41.5753 111.276 42.4088C110.859 45.2074 111.216 48.7792 111.097 51.8753C102.502 54.7113 91.4793 55.1203 85.3771 60.4488C83.9925 61.6842 82.6825 62.9938 81.4471 64.3781C79.3993 67.4499 77.8554 71.0267 75.9107 74.2017C70.8068 75.9263 67.7654 78.0442 63.9436 80.9888C62.7229 81.9295 61.0125 82.6113 60.3714 83.6681C59.2743 85.4756 59.4421 88.6274 58.4064 90.8128C58.0032 91.6631 55.5743 94.7235 54.8343 94.9206C53.0228 95.4031 50.3904 94.5399 48.2257 94.3849C46.0089 94.2263 43.8157 94.0867 41.4379 94.0278C35.7529 87.746 33.2025 78.3292 28.7564 70.8081C26.2353 70.2849 24.1957 68.5017 21.255 67.7717C16.1086 66.4942 10.1982 67.0942 6.9657 64.3781C7.06749 62.1581 7.40499 60.1735 7.67999 58.1267C9.57856 57.5838 11.2543 56.8181 13.0386 56.1621C13.7375 53.4378 15.7807 51.5767 16.075 48.8388C16.6336 43.6467 14.2668 39.5449 12.86 35.8003C12.0207 33.5656 10.8943 31.2099 10.1807 28.8342C8.18714 22.1949 7.47499 15.2767 5.17999 9.72277C3.44999 8.47527 1.33 7.61849 0 5.9717C2.33964 5.32813 4.70499 6.31027 6.42999 5.61456C8.6307 4.72742 8.76464 1.34598 10.5379 0.078125Z" fill="#C8C8C8"/>
</svg>
