<svg width="471" height="422" viewBox="0 0 471 422" fill="none" xmlns="http://www.w3.org/2000/svg">
<path id="1" fill="#C8C8C8" fill-rule="evenodd" clip-rule="evenodd" d="M331.308 14.8099C330.791 18.0306 331.206 21.276 330.593 24.6335C329.854 28.6806 327.372 32.5267 326.485 36.6003C326.175 38.0213 326.136 39.8864 325.949 41.6014C325.768 43.2642 325.246 45.2189 325.413 46.6024C325.691 48.9081 327.469 51.6167 328.45 54.1042C329.266 56.1774 331.087 59.7999 331.308 61.7846C331.5 63.5189 330.967 65.9374 330.771 68.036C330.576 70.1356 330.241 72.2874 330.057 74.2874C329.651 78.6967 329.771 83.3474 328.985 87.1474C328.42 89.8764 326.996 92.291 326.485 94.8278C325.869 97.8842 326.031 101.413 325.413 104.651C322.98 104.659 320.632 104.752 318.447 105.008C313.164 98.1831 307.124 90.8981 301.122 84.2896C299.371 82.3617 297.116 78.5474 294.87 77.681C292.365 76.7142 288.576 77.696 287.011 75.1806C285.419 73.4392 283.751 71.7721 282.01 70.1796C281.958 69.8153 281.527 69.8296 281.474 69.4653C280.06 67.9024 278.571 66.4139 277.009 64.9999C276.122 61.5274 277.878 59.2192 278.259 56.4267C278.672 55.8274 278.322 54.4649 278.438 53.5692C278.438 52.0806 278.438 50.5924 278.438 49.1039C277.754 44.281 279.485 40.0385 279.331 35.8864C279.167 31.4635 277.461 27.3871 277.188 22.8478C281.386 22.3746 279.889 15.2828 280.403 10.1663C280.702 7.19028 282.349 5.19956 282.725 3.20063C286.295 1.59135 290.795 0.912066 296.299 1.23599C297.077 1.12064 298.318 1.46885 298.8 1.05742C300.032 1.27599 301.639 0.770638 302.55 1.05742C305.828 2.08849 303.819 8.50635 306.123 9.98778C307.695 10.9988 311.138 10.4224 313.446 10.5235C316.104 10.6406 318.553 10.7499 320.948 10.8806C324.154 12.4374 325.865 15.4889 331.308 14.8099Z" />
<path id="2" fill="#C8C8C8" fill-rule="evenodd" clip-rule="evenodd" d="M323.806 156.806C329.99 152.213 340.181 151.628 348.455 149.126C350.143 167.264 352.124 185.109 353.992 203.067C351.651 208.406 349.585 214.02 347.205 219.321C339.045 215.93 330.371 213.053 321.663 210.211C320.95 207.412 320.156 204.693 319.163 202.174C318.804 201.639 317.697 201.854 316.841 201.817C316.593 201.41 315.598 201.75 315.054 201.638C313.293 201.747 311.503 201.532 309.696 201.46C307.871 201.386 305.652 200.86 304.338 201.281C302.562 201.85 302.737 204.324 301.123 205.211C300.587 205.211 300.051 205.211 299.515 205.211C299.267 204.803 298.272 205.144 297.729 205.032C295.266 204.816 294.488 202.915 292.906 201.817C292.906 201.103 292.906 200.388 292.906 199.674C293.317 199.251 292.971 198.071 293.085 197.352C293.085 196.161 293.085 194.971 293.085 193.78C292.45 190.631 295.474 189.455 296.478 187.35C297.617 184.962 297.362 182.747 298.443 180.206C303.134 176.74 307.653 173.102 313.804 171.096C315.941 167.756 317.313 163.65 319.877 160.737C321.261 159.501 322.571 158.191 323.806 156.806Z" />
<path id="3" fill="#C8C8C8" fill-rule="evenodd" clip-rule="evenodd" d="M183.239 282.549C187.839 283.197 192.548 283.389 197.707 283.085C199.732 282.966 202.231 283.322 203.958 282.906C204.624 282.917 205.088 282.726 205.566 282.549C207.889 285.012 210.199 287.646 212.532 290.408C214.708 292.985 217.136 296.187 220.212 297.731C222.958 299.11 226.464 298.81 230.214 299.696C230.788 302.04 231.157 304.588 232 306.662C234.405 307.234 237.691 306.925 240.216 307.376C241.711 310.168 242.972 313.194 244.324 316.128C242.818 320.167 241.576 325.191 240.931 330.775C240.207 337.041 240.239 342.155 241.645 346.85C238.888 348.141 236.702 350.004 232 349.35C230.929 349.35 229.857 349.35 228.785 349.35C227.257 348.269 225.885 347.062 224.32 345.778C223.023 344.715 220.836 343.522 220.033 342.027C218.772 339.676 218.597 336.259 217.89 333.454C217.169 330.589 216.324 327.867 215.568 325.059C211.102 323.452 207.155 321.326 202.351 320.057C199.553 320.057 196.754 320.057 193.956 320.057C192.229 320.176 190.028 319.821 188.598 320.236C186.217 320.236 183.835 320.236 181.454 320.236C179.488 320.355 177.049 319.999 175.381 320.415C173.694 321.883 173.574 324.919 172.344 326.845C169.404 329.041 165.366 327.866 161.806 328.988C158.441 330.049 155.854 333.914 152.34 333.811C152.774 331.149 153.09 328.369 153.59 325.773C155.304 324.647 156.311 322.606 158.412 321.665C161.563 320.255 165.624 320.297 169.308 319.165C170.206 315.964 172.205 313.309 172.88 310.055C173.512 307.006 172.799 303.965 173.416 300.589C173.643 299.346 174.604 298.005 175.202 296.66C177.557 291.354 180.394 286.431 183.239 282.549Z" />
<path id="4" fill="#C8C8C8" fill-rule="evenodd" clip-rule="evenodd" d="M192.527 74.1084C195.236 74.4484 195.845 73.2138 197.171 71.7867C199.751 69.0099 201.999 65.6549 203.601 62.6777C208.848 67.0106 214.594 72.0624 220.033 76.7881C221.424 77.9963 224.944 80.1363 225.391 81.6106C225.699 82.6263 225.151 84.0363 225.391 84.8256C225.391 86.552 225.391 88.2788 225.391 90.0052C225.507 90.842 225.158 92.1442 225.57 92.6842C226.267 97.847 223.388 99.4327 222.176 102.687C222.4 102.76 222.541 102.917 222.533 103.222C220.696 106.65 218.911 109.462 216.46 112.153C215.376 113.344 213.75 114.436 213.245 115.725C212.249 118.27 212.575 121.121 211.638 124.299C211.226 124.78 211.574 126.021 211.459 126.799C211.459 128.109 211.459 129.419 211.459 130.728C211.459 131.919 211.459 133.11 211.459 134.301C211.048 134.782 211.396 136.023 211.281 136.801C211.281 138.111 211.281 139.421 211.281 140.73C211.281 142.218 211.281 143.707 211.281 145.196C207.742 144.258 206.125 145.321 203.958 146.625C202.898 147.262 201.587 147.913 200.921 148.589C198.489 151.06 197.583 155.363 196.634 158.591C193.215 159.995 189.844 161.446 186.096 162.521C185.031 165.504 183.794 168.316 181.989 170.558C181.605 170.89 180.68 170.679 180.024 170.737C178.891 170.854 177.288 170.502 176.452 170.916C174.785 170.916 173.118 170.916 171.451 170.916C169.545 171.034 167.165 170.678 165.556 171.094C164.419 170.968 164.023 171.585 163.592 172.166C162.862 172.746 162.207 173.401 161.627 174.13C160.957 174.651 160.362 175.246 159.841 175.916C159.841 175.976 159.841 176.035 159.841 176.095C159.111 176.675 158.457 177.33 157.876 178.06C157.207 180.308 157.038 183.056 156.626 185.561C154.007 183.941 151.723 181.812 149.124 179.846C146.608 177.941 143.453 176.378 141.444 174.13C140.313 172.865 139.95 171.113 138.586 170.022C135.061 170.035 134.396 167.187 132.871 165.2C136.71 167.017 141.966 167.417 147.696 167.343C149.744 164.935 152.83 162.221 154.84 159.306C156.806 156.454 158.206 153.305 157.698 148.232C157.698 147.101 157.698 145.97 157.698 144.838C157.698 142.278 157.698 139.718 157.698 137.158C157.58 135.311 157.935 132.991 157.52 131.442C157.52 127.751 157.52 124.06 157.52 120.368C158.349 119.071 160.419 118.432 160.913 116.975C161.318 115.782 161.136 113.761 161.27 112.152C162.191 101.092 163.062 88.7602 164.128 78.3949C168.241 78.5492 172.791 78.5909 176.453 78.752C177.772 78.8102 179.31 79.2467 180.561 78.752C183.149 77.7284 182.835 72.4713 187.348 73.9295C187.595 74.337 188.591 73.9963 189.134 74.1081C190.264 74.1085 191.395 74.1084 192.527 74.1084Z"/>
<path id="5" fill="#C8C8C8" fill-rule="evenodd" clip-rule="evenodd" d="M275.939 23.2051C276.265 27.6508 278.219 31.8572 278.26 36.2436C278.29 39.3872 276.832 42.4026 277.189 45.8886C276.776 46.4879 277.126 47.8501 277.01 48.7461C277.01 50.2344 277.01 51.7229 277.01 53.2115C277.656 58.3472 274.759 60.4015 275.76 65.3572C276.227 65.9619 276.771 66.4897 277.189 67.1433C278.662 68.7658 280.211 70.3137 281.832 71.7872C283.426 73.5287 285.092 75.1958 286.834 76.7883C288.325 78.5722 292.127 78.044 294.693 78.7529C305.271 90.3229 315.701 102.04 323.807 116.083C320.519 121.786 317.428 127.684 314.34 133.587C312.587 134.512 311.127 135.731 309.339 136.623C308.265 136.74 306.722 136.388 305.945 136.802C304.874 136.802 303.802 136.802 302.73 136.802C301.48 136.802 300.23 136.802 298.98 136.802C298.202 136.917 296.961 136.569 296.479 136.98C295.407 136.98 294.336 136.98 293.264 136.98C292.014 136.98 290.763 136.98 289.513 136.98C288.62 136.98 287.727 136.98 286.834 136.98C285.698 136.271 284.311 135.812 283.44 134.837C281.914 129.278 280.738 123.37 279.154 117.869C274.6 114.058 269.678 110.603 265.043 106.974C263.5 105.766 262.05 104.114 260.399 103.223C257.952 101.902 255.014 101.742 252.362 100.365C250.934 98.6372 249.681 96.7347 248.254 95.0069C248.705 93.9701 249.573 93.349 249.861 92.149C250.275 91.4312 249.923 89.9486 250.04 88.934C249.924 88.0379 250.274 86.6754 249.861 86.0762C249.861 84.2304 249.861 82.3847 249.861 80.539C249.861 78.7529 249.861 76.9669 249.861 75.1808C249.745 74.3436 250.095 73.0419 249.682 72.5015C249.682 70.6558 249.682 68.8101 249.682 66.9647C249.682 65.1787 249.682 63.3926 249.682 61.6065C249.682 60.7729 249.682 59.9394 249.682 59.1058C251.945 55.0229 254.772 50.8122 257.184 46.7815C258.01 45.4004 259.232 43.7894 259.685 42.4951C261.284 37.919 261.042 33.0665 262.721 28.0276C267.094 26.3869 271.494 24.7729 275.939 23.2051Z" />
<path id="6" fill="#C8C8C8" fill-rule="evenodd" clip-rule="evenodd" d="M404.54 220.749C406.587 218.337 409.318 217.138 412.399 215.212C415.59 213.217 417.461 210.602 421.865 210.568C425.676 210.449 429.962 210.807 433.475 210.39C440.091 208.835 443.977 204.527 449.193 201.459C452.323 199.618 456.334 198.281 459.374 196.458C459.374 197.053 459.374 197.649 459.374 198.244C459.49 199.14 459.14 200.502 459.553 201.102C459.461 205.063 463.49 204.904 465.626 206.639C466.166 207.051 467.468 206.702 468.304 206.818C468.692 209.347 468.834 212.122 469.912 213.962C469.222 217.684 466.008 221.014 466.519 225.393C466.675 226.741 468.325 228.341 468.662 230.216C469.072 232.505 468.409 235.153 468.841 237.182C469.113 238.461 470.419 239.479 470.627 240.576C469.665 242.293 468.834 244.141 467.769 245.755C462.746 247.117 458.089 248.817 452.229 250.757C449.828 251.552 447.256 252.406 444.549 253.257C442.324 253.957 437.869 254.721 436.869 255.936C436.081 256.893 436.258 259.527 436.154 261.652C436.058 263.623 436.113 265.846 435.976 267.367C435.799 269.324 434.455 270.939 433.475 272.547C430.888 276.793 428.765 280.067 426.152 284.336C424.263 283.71 422.903 284.14 421.329 283.443C419.67 282.707 418.951 280.747 417.4 280.227C415.258 279.51 412.765 280.094 409.898 279.513C408.246 276.614 407.92 273.146 406.147 270.582C404.696 268.484 401.922 267.75 400.61 265.581C402.453 260.378 406.499 253 403.111 247.363C401.747 247.12 400.294 246.965 398.646 247.005C397.468 245.98 396.687 244.559 395.609 243.433C397.052 235.886 397.258 227.101 402.218 223.072C403.066 222.372 403.84 221.598 404.54 220.749Z" />
<path id="7" fill="#C8C8C8" fill-rule="evenodd" clip-rule="evenodd" d="M35.1695 145.554C40.236 148.376 45.4838 151.794 49.9942 155.199C51.5124 156.345 53.3724 157.368 54.6381 158.592C56.1495 160.054 57.3842 162.228 58.746 163.951C60.1453 165.721 61.3963 167.738 62.8542 169.309C65.197 171.834 68.2499 173.657 70.5345 176.097C73.4095 179.166 75.1424 183.347 78.2149 186.456C80.4913 188.76 84.3935 190.073 87.5027 191.814C88.7285 192.5 89.9778 193.426 91.2535 194.136C92.6356 194.906 94.2999 195.419 95.3613 196.279C96.6102 197.291 97.642 199.219 98.9335 200.744C100.233 202.279 101.862 203.623 102.684 205.031C103.934 207.172 104.459 209.68 105.721 211.639C107.719 214.743 111.234 217.093 113.937 219.498C116.821 222.066 119.901 224.358 122.689 227C123.495 228.814 123.596 231.332 123.761 233.787C123.761 233.907 123.761 234.026 123.761 234.144C121.617 234.144 119.474 234.144 117.331 234.144C115.216 233.521 113.42 232.578 110.722 232.537C109.35 234.201 108.411 236.299 107.15 238.074C107.088 241.823 106.615 245.161 106.614 248.969C104.645 251.882 102.925 255.044 101.256 258.257C98.1613 258.868 95.4138 261.484 92.3252 261.651C91.1285 261.716 88.8745 261.032 87.5027 260.758C83.6817 259.997 80.2781 258.984 78.572 256.471C77.8652 255.43 77.4027 253.622 76.786 252.184C75.4528 249.075 74.246 246.315 73.0352 243.432C72.3731 241.856 72.0017 240.033 71.2492 238.967C70.5378 237.959 68.4381 236.272 67.4985 236.109C65.3335 235.736 62.372 237.136 60.3538 236.824C59.1745 238.681 58.1881 240.73 57.1388 242.718C54.0781 242.506 51.2363 242.399 48.2085 242.182C45.7999 242.01 41.3831 241.152 39.0992 241.647C37.3045 242.035 35.3406 245.29 34.0981 246.648C32.397 248.506 30.8506 250.115 29.097 251.649C28.1413 249.775 27.2256 248.047 26.4177 245.933C25.7556 244.199 25.1563 241.228 23.9174 240.039C23.0152 239.173 20.606 238.657 19.0949 238.074C13.9063 236.072 8.82739 234.102 4.09167 232.18C3.91346 227.297 2.07775 224.073 0.519531 220.57C1.96846 218.677 4.75346 218.993 6.05667 216.998C6.65167 216.087 6.64025 214.189 6.94953 212.711C7.84882 208.417 9.1031 203.711 10.1645 200.029C12.1277 199.117 14.1045 198.32 16.416 197.35C18.1049 196.642 21.3427 195.899 22.3099 194.314C23.421 192.494 23.226 189.42 23.5599 186.813C23.8967 184.185 24.2192 181.567 24.4531 178.954C25.8242 177.679 27.2374 176.276 29.097 174.667C31.4113 172.664 34.7131 171.298 33.741 166.451C34.1535 165.852 33.8035 164.489 33.9195 163.593C34.5895 158.859 30.732 154.642 31.7763 150.198C32.2163 148.321 34.4245 147.524 35.1695 145.554Z" />
<path id="8" fill="#C8C8C8" fill-rule="evenodd" clip-rule="evenodd" d="M133.228 335.598C136.819 335.259 138.267 332.778 141.087 331.668C144.197 333.082 147.439 338.343 151.447 335.776C152.138 337.466 153.201 338.785 153.947 340.42C155.508 341.122 157.132 341.76 158.591 342.564C158.551 343.893 158.303 345.015 158.412 346.493C158.117 346.743 158.117 348.208 158.412 348.458C158.864 355.545 159.917 363.577 160.734 370.427C161.035 372.948 160.979 375.846 161.627 377.75C162.327 379.806 164.79 381.471 165.378 383.466C167.083 383.904 168.532 384.599 170.201 385.073C170.631 387.322 171.396 389.237 171.987 391.325C171.77 392.239 170.859 392.459 170.379 393.111C164.531 394.348 163.048 399.949 161.448 405.435C158.559 405.672 156.191 408.561 153.232 409.008C149.662 409.546 146.181 408.094 141.98 408.472C139.497 398.875 136.219 387.354 133.406 377.036C132.691 374.412 132.04 368.176 130.191 366.855C129.105 366.079 126.827 366.208 125.369 366.14C124.335 353.957 119.267 345.807 115.902 335.955C116.795 335.955 117.688 335.955 118.581 335.955C119.656 336.252 121.972 336.252 123.047 335.955C124.059 335.955 125.071 335.955 126.083 335.955C126.743 335.841 127.862 336.186 128.227 335.776C129.179 335.776 130.132 335.776 131.084 335.776C131.744 335.662 132.864 336.008 133.228 335.598Z" />
<path id="9" fill="#C8C8C8" fill-rule="evenodd" clip-rule="evenodd" d="M140.192 327.559C140.305 328.161 139.962 329.218 140.371 329.524C140.371 329.881 140.371 330.239 140.371 330.596C137.866 331.781 136.398 334.005 133.048 334.346C132.388 334.46 131.269 334.115 130.905 334.525C129.952 334.525 129 334.525 128.047 334.525C127.387 334.639 126.268 334.294 125.904 334.704C124.892 334.704 123.879 334.704 122.867 334.704C121.498 334.704 120.129 334.704 118.759 334.704C117.663 334.609 116.174 334.908 115.366 334.525C114.643 331.531 115.902 328.151 114.652 325.773C114.158 324.834 111.911 323.782 111.079 323.273C109.772 322.472 108.136 321.168 106.972 321.129C105.965 321.096 104.283 322.104 103.399 322.558C102.387 323.079 100.845 323.71 100.006 324.344C99.1426 324.996 97.1598 327.564 96.7908 328.631C95.9841 330.962 96.9573 334.57 95.0048 335.418C94.0373 336.237 93.1441 337.13 92.3255 338.097C91.0605 339.214 89.8694 340.404 88.7533 341.67C88.3641 342.292 87.9505 342.891 87.3244 343.277C86.3569 344.095 85.4637 344.989 84.6451 345.956C83.3801 347.073 82.1891 348.263 81.073 349.529C80.1433 350.518 79.6359 351.867 78.3937 352.208C76.2184 352.804 72.6116 352.521 70.5348 352.208C68.4658 351.896 66.8362 350.482 64.9976 350.421C61.2941 350.3 57.9512 352.368 54.6384 352.565C52.7944 352.675 51.1716 352.176 49.1016 352.029C51.2183 347.7 53.3512 342.72 55.5316 338.097C56.288 336.494 57.6719 334.744 57.6748 333.275C57.6791 331.323 55.7691 328.653 54.6384 326.13C53.9023 324.488 51.5719 320.418 51.6019 318.986C51.6176 318.239 52.6162 316.639 53.2094 315.414C56.3623 308.901 59.8505 302.69 60.8898 295.051C60.7866 293.904 59.6744 293.766 59.2823 292.908C61.9851 293.182 64.4701 293.674 66.9626 294.159C67.7741 296.085 68.1833 298.415 69.463 299.874C69.6558 300.17 71.0566 300.17 71.2491 299.874C72.4991 299.874 73.7494 299.874 74.9998 299.874C76.4298 299.756 78.3319 300.111 79.4651 299.696C81.4762 298.914 83.2909 296.682 85.3594 294.873C86.1587 294.174 87.2151 293.479 88.2169 292.551C89.7734 291.109 90.463 289.55 93.0394 290.05C93.3448 290.459 94.4026 290.116 95.0041 290.229C96.4923 290.229 97.9809 290.229 99.4694 290.229C100.235 292.916 101.278 295.326 101.97 298.088C103.747 298.552 105.324 300.178 107.507 300.41C110.268 300.704 113.31 299.696 116.616 300.053C117.159 299.941 118.154 300.282 118.402 299.874C119.756 299.083 120.742 296.559 121.617 294.694C122.5 292.814 122.98 290.82 124.118 289.515C125.795 290.258 127.2 291.371 128.94 292.372C130.28 293.144 132.908 293.898 133.763 295.23C134.263 296.01 134.502 297.733 134.834 298.981C135.893 302.957 136.678 307.152 137.156 311.663C138.394 313.343 140.417 314.236 139.835 317.735C139.948 318.337 139.605 319.395 140.014 319.7C140.014 320.712 140.014 321.724 140.014 322.736C140.127 323.338 139.784 324.396 140.192 324.701C140.192 325.654 140.192 326.606 140.192 327.559Z" />
<path id="10" fill="#C8C8C8" fill-rule="evenodd" clip-rule="evenodd" d="M234.858 388.466C233.264 390.066 231.469 391.799 229.5 393.646C227.748 395.289 226.006 397.442 223.963 398.826C221.971 400.175 219.43 401.257 216.819 402.755C214.465 404.106 211.936 406.423 209.675 406.863C208.03 407.183 206.06 406.981 204.316 407.042C202.545 407.103 200.665 407.145 198.779 407.221C195.793 407.34 190.456 408.045 187.705 407.578C185.545 407.211 183.987 404.989 181.811 404.184C180.308 401.926 180.551 396.966 178.775 395.253C177.151 393.687 174.255 394.518 171.809 393.467C174.746 391.471 171.487 387.321 171.095 384.358C169.69 383.559 168.029 383.018 166.272 382.572C165.62 380.728 163.284 379.038 162.7 377.035C162.138 375.109 162.117 372.262 161.807 369.712C161.516 367.316 161.208 364.81 160.914 362.388C160 354.857 159.521 348.143 159.485 341.67C158.034 340.858 156.418 340.212 154.841 339.526C154.098 338.066 153.126 336.835 152.52 335.239C156.491 334.748 159.272 330.947 162.343 330.06C166.309 328.913 170.432 330.127 173.417 327.559C174.217 325.621 174.889 323.553 175.739 321.665C177.882 321.665 180.026 321.665 182.169 321.665C183.837 321.547 185.978 321.902 187.349 321.486C189.73 321.486 192.112 321.486 194.493 321.486C197.411 321.486 200.328 321.486 203.246 321.486C207.124 322.966 211.053 324.396 214.677 326.13C216.134 331.698 217.603 337.254 218.963 342.92C222.132 345.467 225.182 348.133 228.43 350.6C229.385 351.015 231.107 350.661 232.36 350.779C233.02 350.665 234.138 351.01 234.503 350.6C238.037 351.098 239.536 348.609 241.647 348.278C241.08 353.146 242.292 355.658 243.791 358.638C246.477 363.981 249.287 370.178 252.364 374.177C251.029 374.509 249.444 374.591 248.256 375.07C243.715 379.461 239.25 383.926 234.858 388.466Z" />
<path id="11" fill="#C8C8C8" fill-rule="evenodd" clip-rule="evenodd" d="M332.914 267.189C333.741 262.003 335.484 257.733 335.593 251.828C338.744 247.592 342.113 244.039 344.167 238.611C346.249 233.104 346.398 226.598 348.096 220.392C348.876 217.544 350.529 214.792 351.668 211.997C352.876 209.039 353.724 206.014 355.24 203.603C359.904 202.754 364.703 203.86 368.815 202.709C372.519 201.673 375.699 197.856 381.14 198.959C382.442 198.668 381.629 200.493 381.854 201.281C381.196 204.353 377.476 206.715 377.21 209.854C377.05 211.746 378.691 214.082 379.175 216.106C379.906 219.158 379.086 222.727 381.14 224.679C381.913 224.679 382.688 224.679 383.462 224.679C384.061 225.092 385.423 224.742 386.32 224.857C387.332 224.857 388.344 224.857 389.356 224.857C388.405 227.193 387.814 229.36 387.391 232.002C386.994 234.481 386.924 237.505 386.141 240.039C385.407 242.414 383.46 245.479 382.033 248.256C380.619 251.004 378.498 253.306 376.853 255.4C375.162 257.554 373.237 259.734 371.316 262.188C369.667 264.293 367.618 268.06 365.779 268.975C363.308 270.204 360.031 270.248 356.848 270.404C356.015 270.404 355.181 270.404 354.348 270.404C353.157 270.404 351.966 270.404 350.775 270.404C350.233 270.516 349.237 270.175 348.989 270.582C342.389 270.694 337.092 269.501 332.914 267.189Z" />
<path id="12" fill="#C8C8C8" fill-rule="evenodd" clip-rule="evenodd" d="M276.117 272.19C277.311 270.936 278.676 269.987 280.046 268.796C281.325 267.685 282.491 265.963 283.976 265.402C285.099 264.978 287.001 264.937 288.441 264.688C292.056 264.061 294.733 263.913 298.801 264.152C304.512 264.487 308.109 265.285 312.018 267.01C321.463 271.177 329.022 278.715 340.06 279.87C340.449 280.791 340.141 282.409 340.239 283.621C340.239 284.812 340.239 286.002 340.239 287.193C340.354 287.912 340.007 289.092 340.418 289.515C340.418 290.527 340.418 291.539 340.418 292.552C340.418 293.742 340.418 294.933 340.418 296.124C340.531 296.784 340.186 297.903 340.596 298.267C340.195 301.736 341.494 302.932 342.561 305.055C343.272 306.47 343.713 308.118 344.347 308.984C345.103 310.017 346.95 311.141 348.276 312.199C349.674 313.314 350.928 314.578 352.385 315.414C353.819 316.237 355.671 316.874 357.386 317.736C359.041 318.568 360.677 319.791 362.209 320.237C366.568 321.507 372.117 321.468 376.319 322.737C377.234 323.906 378.437 324.786 379.355 325.952C379.852 327.479 380.157 329.199 380.784 330.596C384.211 333.123 388.172 335.116 391.501 337.741C391.813 340.005 392.235 342.114 392.573 344.171C392.924 346.314 392.945 348.71 393.644 350.601C394.034 351.654 395.209 353.042 395.966 354.173C399.361 359.242 402.781 364.101 404.897 370.07C402.918 370.771 399.807 369.848 397.752 370.784C395.985 371.589 395.606 374.692 394.18 376.5C393.446 377.43 391.51 378.973 390.251 379.358C388.2 379.984 385.768 379.439 383.821 379.893C382.297 380.249 381.289 381.586 379.891 381.858C378.337 382.161 376.66 381.515 374.533 381.679C372.763 380.143 372.026 377.993 370.067 376.321C368.53 375.009 366.328 374.412 364.888 373.106C363.957 372.262 361.625 368.987 361.136 367.569C361.136 366.616 361.136 365.664 361.136 364.711C361.025 364.168 361.365 363.173 360.958 362.925C361.097 361.357 360.696 360.329 360.779 358.817C359.21 357.798 358.068 356.138 356.136 355.423C350.798 353.449 344.091 355.609 339.703 357.567C338.083 360.173 336.658 362.976 334.702 365.247C328.871 365.37 324.602 367.055 320.234 368.641C315.678 362.361 314.828 352.375 312.733 343.635C310.961 341.715 309.115 339.869 307.196 338.098C304.776 336.945 301.845 336.304 300.051 334.526C299.233 333.558 298.34 332.665 297.372 331.846C297.309 331.612 297.058 331.566 297.014 331.311C296.255 330.402 295.423 329.569 294.514 328.81C291.932 326.102 292.083 320.521 291.656 315.057C291.439 312.276 291.672 309.038 290.941 306.841C290.156 304.475 286.326 302.905 285.405 300.411C284.686 298.465 284.709 295.731 284.333 293.445C283.931 290.997 283.711 288.11 283.083 286.121C282.316 283.697 280.599 281.499 279.511 279.334C278.277 276.881 277.229 274.532 276.117 272.19Z" />
<path id="13" fill="#C8C8C8" fill-rule="evenodd" clip-rule="evenodd" d="M244.144 199.673C239.272 202.778 233.606 205.09 227.176 206.639C224.884 204.584 222.442 202.68 220.389 200.387C219.809 199.658 219.154 199.003 218.424 198.423C216.819 196.756 215.17 193.855 215.209 191.279C215.23 189.905 216.099 187.902 216.638 186.099C217.712 182.51 218.833 179.349 219.853 175.918C220.385 174.132 221.214 172.138 221.282 170.56C221.384 168.213 220.552 165.711 220.032 163.594C219.516 161.495 218.867 159.486 218.246 157.164C216.305 156.187 214.015 155.56 212.352 154.306C212.352 154.068 212.352 153.83 212.352 153.592C212.763 153.11 212.415 151.869 212.53 151.091C212.53 149.782 212.53 148.472 212.53 147.162C212.53 145.971 212.53 144.781 212.53 143.59C212.942 143.109 212.593 141.867 212.709 141.09C212.709 139.78 212.709 138.47 212.709 137.16C212.709 135.969 212.709 134.779 212.709 133.588C213.12 133.106 212.772 131.865 212.887 131.087C212.887 129.777 212.887 128.467 212.887 127.158C213.212 122.637 213.144 119.061 214.495 116.084C215.644 113.553 218.725 111.892 220.389 109.475C221.584 107.74 221.996 106.031 223.247 104.296C227.595 103.881 231.217 102.74 235.571 102.331C237.09 104.027 239.137 105.195 241.108 106.439C243.587 112.425 244.149 118.697 245.931 125.015C247.733 131.41 251.908 136.994 252.004 144.84C250.98 146.912 250.116 149.145 249.146 151.27C247.264 151.95 245.389 152.634 243.609 153.414C243.324 155.817 242.589 158.693 242.894 161.094C246.411 164.254 252.698 163.539 258.077 165.023C260.817 165.78 262.856 167.3 265.221 167.881C269.207 175.802 272.152 184.765 277.724 191.101C282.429 191.456 287.268 191.678 291.834 192.172C291.834 192.589 291.834 193.006 291.834 193.422C291.42 194.259 291.773 195.861 291.656 196.995C291.656 198.542 291.656 200.09 291.656 201.639C290.108 201.639 288.559 201.639 287.012 201.639C286.352 201.752 285.232 201.407 284.868 201.817C283.737 201.817 282.606 201.817 281.474 201.817C280.814 201.931 279.696 201.586 279.332 201.996C278.259 201.996 277.188 201.996 276.117 201.996C275.397 202.11 274.217 201.764 273.794 202.174C269.248 202.51 265.531 203.675 261.113 204.139C258.136 204.139 255.159 204.139 252.182 204.139C250.411 202.755 249.222 200.788 247.181 199.674C246.579 199.376 244.745 199.376 244.144 199.673Z" />
<path id="14" fill="#C8C8C8" fill-rule="evenodd" clip-rule="evenodd" d="M291.3 214.141C289.926 216.816 288.75 219.689 286.477 221.464C285.45 222.342 284.498 223.295 283.619 224.322C283.475 224.356 283.441 224.501 283.262 224.501C282.441 225.287 281.464 225.918 280.94 227.001C279.495 231.093 277.498 234.633 275.761 238.433C272.933 237.331 271.094 235.241 268.08 234.325C267.716 233.915 266.597 234.26 265.936 234.146C264.865 234.146 263.794 234.146 262.721 234.146C262.357 233.736 261.239 234.081 260.579 233.967C254.209 234.918 253.461 230.249 250.04 228.252C249.204 227.838 247.601 228.19 246.468 228.073C245.631 228.188 244.329 227.84 243.789 228.252C242.598 228.252 241.407 228.252 240.216 228.252C239.261 228.368 237.838 228.017 237.18 228.43C232.349 228.839 227.428 229.157 222.712 229.681C221.634 224.925 220.109 220.615 218.426 216.463C221.706 213.849 225.39 211.639 227.356 207.711C231.943 206.539 236.156 205.456 240.038 203.425C242.405 202.185 243.295 200.478 247.004 200.924C248.418 202.487 249.906 203.976 251.469 205.39C260.106 206.521 266.576 203.948 274.153 203.425C274.813 203.311 275.932 203.656 276.296 203.246C277.368 203.246 278.439 203.246 279.511 203.246C280.23 203.132 281.411 203.478 281.833 203.068C282.905 203.068 283.976 203.068 285.049 203.068C285.767 202.953 286.947 203.3 287.37 202.889C288.442 202.889 289.514 202.889 290.585 202.889C290.883 202.889 291.181 202.889 291.479 202.889C291.479 203.901 291.479 204.913 291.479 205.926C291.479 206.997 291.479 208.069 291.479 209.141C291.069 209.505 291.414 210.624 291.3 211.284C291.3 212.236 291.3 213.188 291.3 214.141Z" />
<path id="15" fill="#C8C8C8" fill-rule="evenodd" clip-rule="evenodd" d="M387.035 125.371C388.7 128.171 393.579 127.757 396.68 129.122C395.863 133.431 400.717 134.776 401.324 137.874C401.957 141.109 399.659 143.199 399.359 146.447C397.815 147.94 395.955 149.116 394.715 150.912C394.715 151.031 394.715 151.15 394.715 151.269C394.417 152.641 394.417 155.256 394.715 156.628C394.973 158.036 395.942 158.735 396.322 160.021C396.322 161.212 396.322 162.403 396.322 163.593C392.535 166.247 395.21 170.81 394 175.203C393.382 177.447 388.377 180.457 387.213 182.526C386.656 183.516 386.726 184.801 386.32 185.563C385.086 187.875 380.773 189.293 380.426 191.814C380.247 193.114 381.377 194.02 381.855 195.029C381.855 195.863 381.855 196.696 381.855 197.53C381.595 197.627 380.932 197.321 380.962 197.708C375.108 196.672 372.423 200.658 368.102 201.638C363.883 202.594 360.007 201.542 355.062 202.53C353.389 180.032 349.283 159.965 349.526 135.551C353.744 133.682 357.756 131.448 362.029 129.299C364.183 128.216 365.777 127.177 368.995 127.335C369.596 127.221 370.653 127.565 370.96 127.156C371.912 127.156 372.865 127.156 373.817 127.156C374.419 127.043 375.476 127.386 375.782 126.978C376.735 126.978 377.687 126.978 378.64 126.978C379.241 126.864 380.298 127.208 380.605 126.799C383.505 127.081 385.07 126.026 387.035 125.371Z" />
<path id="16" fill="#C8C8C8" fill-rule="evenodd" clip-rule="evenodd" d="M130.908 164.486C133.275 166.644 133.256 171.188 138.052 170.916C140.183 175.704 144.335 177.787 148.412 180.919C151.039 182.938 153.9 184.765 156.27 186.813C160.796 190.724 164.218 196.067 168.238 199.673C170.234 201.465 172.712 202.869 174.668 204.853C175.486 205.82 176.379 206.713 177.347 207.532C177.526 207.531 177.559 207.676 177.704 207.711C178.582 208.737 179.535 209.69 180.562 210.568C181.38 211.536 182.273 212.429 183.241 213.247C183.42 213.247 183.453 213.392 183.598 213.426C184.417 214.394 185.309 215.287 186.277 216.105C187.063 216.927 187.694 217.903 188.777 218.427C193.474 219.027 200.616 219.652 205.924 220.213C207.95 220.428 210.192 221.065 211.639 220.749C213.939 220.248 214.964 217.31 217.355 216.998C217.919 219.114 219.138 221.074 219.855 223.25C220.433 225 221.679 228.759 221.642 230.394C221.604 232.04 219.862 237.273 219.319 238.611C217.522 243.044 214.555 246.36 211.818 249.685C208.134 254.159 203.671 258.408 199.672 261.83C198.633 260.952 197.874 259.821 196.814 258.972C195.741 258.113 194.672 257.309 193.599 256.472C191.513 254.842 189.437 252.983 187.169 251.649C180.048 247.461 172.377 244.689 164.664 241.826C161.053 240.485 157.327 238.493 153.59 236.646C149.972 234.856 145.865 233.352 142.695 231.287C140.301 229.728 137.942 227.108 135.551 225.036C129.467 219.764 123.558 214.826 117.69 209.496C116.515 208.43 114.857 207.271 114.118 206.282C112.725 204.42 112.362 201.8 111.26 199.852C110.257 198.078 108.459 196.227 106.973 194.493C104.53 191.644 102.59 188.712 99.293 187.17C99.293 187.111 99.293 187.051 99.293 186.992C102.251 186.016 105.18 181.577 108.223 180.919C111.488 180.213 114.888 181.207 118.762 180.562C120.002 179.392 121.432 178.024 122.869 176.453C123.963 175.258 126.22 173.307 126.62 171.988C126.873 171.153 126.564 170.232 126.799 169.488C127.501 167.265 129.701 166.42 130.908 164.486Z" />
<path id="17" fill="#C8C8C8" fill-rule="evenodd" clip-rule="evenodd" d="M373.998 65.1778C373.816 66.7982 372.69 67.1825 372.39 68.75C372.114 70.1964 372.484 75.3603 372.926 76.966C373.242 78.1117 375.352 82.1957 376.141 82.6817C378.272 83.9932 381.874 83.1828 384.536 83.7532C387.432 84.3739 389.868 85.7414 392.395 86.4321C393.374 90.4417 392.48 93.8485 393.467 97.3275C394.231 100.022 396.965 101.821 395.968 105.901C394.832 107.505 394.073 109.484 392.753 110.902C391.111 111.496 389.628 111.085 388.287 111.795C387.174 112.385 385.437 115.154 385.25 116.796C384.983 119.162 386.063 121.294 387.394 122.691C387.139 123.15 386.817 123.543 386.858 124.298C384.757 124.817 383.218 125.897 380.25 125.549C379.648 125.661 378.59 125.318 378.285 125.727C377.332 125.727 376.38 125.727 375.427 125.727C374.825 125.84 373.768 125.497 373.462 125.906C372.51 125.906 371.557 125.906 370.604 125.906C370.003 126.019 368.945 125.675 368.64 126.084C364.279 126.155 360.849 128.72 357.565 130.371C354.522 131.901 351.658 133.057 348.992 134.658C344.859 133.611 340.527 132.764 336.489 131.621C330.374 123.566 324.039 114.78 319.164 106.08C321.537 105.893 324.198 105.994 326.308 105.544C327.435 102.176 326.887 98.2675 327.558 95.0057C328.063 92.5578 329.682 90.0264 330.238 87.3253C331.038 83.4432 330.893 78.5692 331.31 74.1078C331.5 72.0603 331.824 69.8539 332.024 67.6778C332.216 65.5792 332.643 63.1267 332.381 61.4264C332.009 59.0075 330.494 56.421 329.523 53.9246C328.599 51.5492 326.94 48.7303 326.665 46.4228C326.508 45.0971 327.015 43.4146 327.201 41.7789C327.373 40.261 327.266 38.5546 327.558 37.135C328.323 33.4235 330.775 29.5107 331.667 25.3464C332.442 21.7303 331.813 17.5925 332.738 14.451C334.795 11.1771 338.36 11.396 342.205 9.27138C343.469 8.57245 345.412 7.0771 346.492 6.05638C347.607 5.00245 348.508 3.05495 349.528 2.66281C350.683 2.21853 353.207 2.04531 354.529 2.30567C355.627 2.52174 356.859 4.03031 358.101 4.98495C360.928 7.15674 362.782 8.47531 365.425 10.5217C366.646 11.4682 367.881 12.901 368.997 13.3796C372.008 14.671 374.563 13.9803 378.106 15.3442C379.643 20.8571 377.389 22.3282 375.248 25.525C374.097 27.2453 372.243 29.3328 372.212 31.0617C372.184 32.6364 374.151 35.8814 374.891 36.956C376.086 38.691 379.304 40.9928 379.893 43.0289C380.706 45.8482 379.727 48.416 380.428 52.3167C379.252 54.0117 374.833 54.7471 373.998 56.6035C373.352 58.04 374.101 59.965 373.82 62.3189C373.935 63.2164 373.585 64.5785 373.998 65.1778Z" />
<path id="18" fill="#C8C8C8" fill-rule="evenodd" clip-rule="evenodd" d="M275.046 273.262C276.773 277.671 280.526 281.708 282.013 286.658C282.65 288.781 282.864 291.462 283.263 293.802C283.677 296.24 283.482 299.132 284.334 301.125C285.385 303.585 289.125 305.086 289.871 307.377C290.622 309.682 290.188 313.077 290.407 315.95C290.862 321.921 291.134 327.594 294.337 330.597C295.096 331.505 295.929 332.339 296.837 333.097C297.656 334.065 298.549 334.958 299.516 335.776C301.356 337.33 304.214 337.866 306.303 339.17C308.015 341.031 309.802 342.817 311.662 344.528C313.876 353.449 314.728 363.73 319.7 369.892C324.192 368.546 329.551 366.527 335.596 366.141C336.488 364.984 337.328 363.861 338.276 362.39C339.034 361.211 339.516 359.344 340.776 358.46C343.603 356.478 351.657 354.757 355.958 356.495C357.295 357.036 357.986 358.531 359.173 358.996C359.592 359.291 359.56 360.038 359.531 360.782C359.642 361.325 359.302 362.321 359.709 362.568C359.709 363.342 359.709 364.116 359.709 364.89C359.825 365.787 359.475 367.149 359.888 367.748C359.888 367.986 359.888 368.225 359.888 368.462C361.162 370.404 362.775 372.005 363.996 374C367.893 375.937 370.998 378.666 373.283 382.216C371.327 383.42 366.971 383.22 365.782 385.074C364.877 386.485 365.871 388.202 365.603 390.075C365.322 392.048 363.547 393.844 363.638 395.612C361.394 396.225 357.98 395.668 356.673 397.219C355.641 400.155 355.541 402.988 352.922 404.364C351.282 405.225 347.839 405.634 345.598 406.15C343.479 406.638 339.481 406.946 338.454 408.115C337.23 409.508 337.406 412.88 337.026 414.902C336.548 417.426 336.015 419.485 335.418 421.511C333.036 421.511 330.655 421.511 328.273 421.511C325.325 421.303 322.977 420.496 320.057 420.26C316.488 418.006 312.318 415.066 308.447 412.58C307.055 411.686 304.019 410.848 304.518 408.829C304.815 408.169 304.815 406.274 304.518 405.614C303.597 399.687 301.8 394.638 300.41 389.182C300.41 388.527 300.41 387.872 300.41 387.217C300.41 386.622 300.41 386.026 300.41 385.431C300.41 383.347 300.41 381.263 300.41 379.18C300.823 378.521 300.472 377.098 300.588 376.143C300.471 374.832 300.824 373.049 300.41 372.035C300.657 368.845 297.478 369.307 295.051 368.82C292.894 368.387 291.342 367.485 289.514 367.748C287.851 367.988 285.427 370.19 283.62 371.32C281.684 372.531 279.195 373.601 277.726 374.892C275.18 377.131 273.653 380.646 271.653 382.216C269.967 382.511 267.087 382.511 265.401 382.216C263.383 380.39 264.992 377.02 264.508 374.357C264.246 372.912 261.931 370.44 260.936 370.07C260.148 369.777 257.806 369.471 256.292 370.07C254.799 370.66 254.815 372.449 253.434 373.464C249.048 367.966 246.503 360.629 243.075 354.174C242.956 351.792 243.312 348.935 242.896 346.85C241.217 341.416 241.432 336.339 242.361 329.882C242.856 326.434 243.264 322.922 243.968 320.237C244.349 318.782 245.455 317.343 245.397 315.95C245.324 314.22 243.891 312.531 243.253 311.128C242.461 309.384 241.929 307.9 241.11 306.305C238.581 305.917 235.779 305.802 232.894 305.77C232.336 303.826 231.849 301.812 231.465 299.697C238.568 299.515 244.3 300.15 249.326 298.089C251.669 297.129 254.096 294.225 256.113 292.373C262.873 286.168 269.404 279.707 275.046 273.262Z" />
<path id="19" fill="#C8C8C8" fill-rule="evenodd" clip-rule="evenodd" d="M219.854 201.638C221.78 203.761 224.263 205.326 226.106 207.532C222.879 213.295 216.085 215.491 211.281 219.677C206.434 219.144 200.508 218.464 195.027 217.891C191.824 217.556 189.023 217.835 187.704 215.748C186.826 214.721 185.874 213.768 184.846 212.89C184.028 211.922 183.135 211.03 182.168 210.211C182.023 210.177 181.989 210.032 181.81 210.032C180.932 209.005 179.98 208.052 178.953 207.175C178.134 206.207 177.241 205.314 176.273 204.495C171.566 201.38 167.171 196.673 163.235 192.35C161.781 190.754 158.05 188.121 157.698 186.277C157.519 185.342 158.302 180.322 158.769 179.133C159.097 178.299 159.823 177.823 160.377 177.347C161.047 176.826 161.642 176.231 162.163 175.561C162.163 175.501 162.163 175.442 162.163 175.382C162.893 174.802 163.547 174.147 164.128 173.417C164.584 172.862 164.881 172.147 166.092 172.346C168.057 172.346 170.022 172.346 171.986 172.346C173.12 172.229 174.723 172.581 175.559 172.167C177.875 172.221 180.055 172.139 182.167 171.989C184.426 169.783 185.877 166.768 186.99 163.415C190.879 162.481 194.036 160.817 197.528 159.486C198.422 155.676 199.836 152.387 201.636 149.484C204.591 148.119 206.452 145.23 211.281 146.269C211.281 146.447 211.281 146.626 211.281 146.804C210.866 147.759 211.22 149.482 211.102 150.734C211.102 152.103 211.102 153.472 211.102 154.842C212.669 156.431 215.281 156.974 217.354 158.057C218.405 162.066 219.419 166.113 220.211 170.381C218.675 175.102 217.163 180.735 215.568 186.099C215.022 187.933 213.987 189.776 213.96 191.279C213.919 193.548 215.511 195.462 215.925 197.709C216.505 198.439 217.16 199.093 217.889 199.674C218.47 200.402 219.125 201.057 219.854 201.638Z" />
<path id="20" fill="#C8C8C8" fill-rule="evenodd" clip-rule="evenodd" d="M247.538 96.0781C249.243 97.3024 249.89 100.195 251.646 101.436C253.944 103.06 257.288 102.904 259.862 104.294C261.437 105.145 262.965 106.683 264.506 107.866C269.195 111.468 273.905 115.224 278.259 118.762C279.588 124.459 281.051 130.021 282.368 135.73C284.579 136.912 286.021 138.863 289.869 138.409C291.12 138.409 292.37 138.409 293.62 138.409C294.339 138.294 295.519 138.641 295.942 138.23C297.074 138.23 298.205 138.23 299.336 138.23C300.586 138.23 301.836 138.23 303.086 138.23C303.806 138.116 304.986 138.462 305.409 138.052C310.562 138.74 312.148 135.861 315.232 134.48C318.213 128.588 321.363 122.868 324.52 117.154C326.37 119.483 328.07 122.175 330.057 125.013C331.361 126.875 333.992 131.659 335.951 132.693C339.405 134.517 344.32 133.943 348.276 135.908C348.276 136.742 348.276 137.575 348.276 138.409C347.859 141.207 348.216 144.779 348.097 147.875C339.502 150.711 328.479 151.12 322.377 156.449C320.992 157.684 319.683 158.994 318.447 160.378C316.399 163.45 314.855 167.027 312.911 170.202C307.807 171.926 304.765 174.044 300.944 176.989C299.723 177.93 298.012 178.611 297.371 179.668C296.274 181.476 296.442 184.627 295.406 186.813C295.003 187.663 292.574 190.723 291.834 190.921C290.023 191.403 287.39 190.54 285.226 190.385C283.009 190.226 280.816 190.087 278.438 190.028C272.753 183.746 270.202 174.329 265.756 166.808C263.235 166.285 261.196 164.502 258.255 163.772C253.109 162.494 247.198 163.094 243.966 160.378C244.067 158.158 244.405 156.173 244.68 154.127C246.579 153.584 248.254 152.818 250.039 152.162C250.737 149.438 252.781 147.577 253.075 144.839C253.634 139.647 251.267 135.545 249.86 131.8C249.021 129.566 247.894 127.21 247.181 124.834C245.187 118.195 244.475 111.277 242.18 105.723C240.45 104.475 238.33 103.618 237 101.972C239.34 101.328 241.705 102.31 243.43 101.615C245.631 100.727 245.765 97.346 247.538 96.0781Z" />
<path id="21" fill="#C8C8C8" fill-rule="evenodd" clip-rule="evenodd" d="M299.339 206.46C300.113 206.46 300.887 206.46 301.661 206.46C303.56 205.323 303.169 201.895 306.841 202.531C307.088 202.939 308.084 202.598 308.627 202.71C311.993 202.678 315.071 202.934 318.272 203.067C319.184 205.667 319.965 208.399 320.772 211.105C329.548 214.177 338.698 216.874 346.85 220.571C345.222 230.324 343.846 238.259 339.527 245.041C338.06 247.345 335.291 249.116 334.526 251.471C333.922 253.329 334.273 255.41 333.99 257.187C333.471 260.434 332.3 263.229 331.668 266.475C324.12 262.635 316.554 256.915 306.841 254.686C304.837 254.226 302.006 254.296 299.517 254.15C292.236 253.723 287.047 254.482 280.763 255.936C279.361 250.372 277.959 244.809 276.477 239.325C278.744 235.639 280.241 231.183 282.371 227.358C283.338 226.54 284.231 225.647 285.05 224.679C286.077 223.801 287.03 222.849 287.907 221.821C290.045 219.97 291.011 216.947 292.552 214.498C292.964 213.899 292.614 212.536 292.73 211.64C292.73 210.628 292.73 209.616 292.73 208.604C293.141 208.181 292.794 207.001 292.909 206.282C292.909 205.389 292.909 204.496 292.909 203.603C294.632 204.321 295.054 206.34 297.553 206.282C297.801 206.689 298.796 206.348 299.339 206.46Z" />
<path id="22" fill="#C8C8C8" fill-rule="evenodd" clip-rule="evenodd" d="M394.893 244.684C396.069 245.593 396.84 246.905 397.751 248.077C399.149 248.228 400.615 248.31 402.217 248.256C404.5 251.979 402.474 257.693 400.966 261.651C400.428 263.067 399.211 264.935 399.359 265.939C399.663 268.001 404.242 269.49 405.075 271.297C406.628 274.209 407.533 277.769 409.361 280.406C411.502 281.123 414.476 281.007 417.042 281.299C419.111 283.397 421.483 285.193 425.436 285.407C424.434 287.659 423.1 289.344 421.685 291.659C420.868 292.996 418.041 296.623 418.292 298.446C418.501 299.968 420.866 300.248 421.328 302.018C421.858 304.043 420.953 304.973 421.328 307.555C424.921 312.774 433.434 313.073 439.725 315.593C440.503 316.006 442.045 315.655 443.119 315.771C443.534 317.023 443.18 319.045 443.298 320.594C439.051 321.863 436.945 323.685 435.796 327.917C434.971 330.954 435.407 334.848 434.367 337.741C433.555 340.001 431.737 341.173 430.795 342.921C428.718 343.883 426.312 343.416 424.9 344.707C424.153 345.391 422.949 349.081 422.4 350.958C422 352.327 422.826 354.111 422.578 355.245C422.288 356.58 420.772 357.297 420.078 358.103C419.182 358.219 417.82 357.869 417.22 358.281C414.573 358.567 412.398 357.784 410.79 358.639C409.478 359.335 408.823 362.091 408.111 363.64C407.169 365.686 406.441 367.444 405.61 368.819C403.495 363.624 400.753 358.76 397.751 354.352C396.726 352.846 395.228 351.399 394.715 349.886C393.358 345.88 393.921 341.289 392.393 336.848C389.014 334.274 385.05 332.283 381.676 329.703C381.152 328.143 380.771 326.44 380.248 324.881C379.25 323.735 378.179 322.663 377.033 321.666C372.359 320.228 366.533 320.441 362.208 318.986C360.743 318.494 359.134 317.275 357.563 316.486C353.981 314.685 351.779 313.523 348.99 311.306C347.77 310.336 346.127 309.215 345.418 308.27C343.941 306.3 343.426 303.719 342.024 301.304C341.909 300.526 342.257 299.285 341.845 298.803C341.845 297.791 341.845 296.779 341.845 295.767C341.845 294.576 341.845 293.385 341.845 292.194C341.732 291.534 342.077 290.415 341.667 290.051C341.667 288.979 341.667 287.908 341.667 286.836C341.667 285.645 341.667 284.455 341.667 283.264C341.553 282.604 341.898 281.485 341.488 281.121C341.488 280.823 341.488 280.525 341.488 280.227C342.85 280.473 344.082 280.849 345.775 280.763C346.608 280.763 347.442 280.763 348.275 280.763C349.466 280.763 350.657 280.763 351.848 280.763C352.391 280.651 353.386 280.992 353.634 280.585C355.241 280.585 356.849 280.585 358.457 280.585C359.058 280.471 360.116 280.815 360.421 280.406C363.491 279.647 366.99 279.479 370.066 278.263C372.796 277.183 374.077 275.106 375.782 272.904C378.762 269.058 381.648 265.358 384.534 261.651C386.499 259.129 388.844 256.746 390.25 254.15C391.998 250.92 393.298 247.475 394.893 244.684Z" />
<path id="23" fill="#C8C8C8" fill-rule="evenodd" clip-rule="evenodd" d="M58.2096 243.255C59.2114 241.458 59.95 239.398 61.246 237.896C63.6125 238.142 65.5043 236.958 67.3189 237.36C68.151 237.545 69.9014 239.167 70.3553 239.861C71.0646 240.946 71.4625 242.723 72.1414 244.327C73.89 248.456 76.3582 253.823 77.6785 257.544C80.0382 259.918 83.0432 260.947 87.3235 261.83C89.1943 262.217 91.1257 262.862 92.6818 262.724C96.2964 262.403 99.3721 259.774 102.327 258.973C103.104 255.6 106.857 252.371 107.685 249.327C108.642 245.812 107.486 241.568 108.4 238.432C108.978 236.445 110.41 235.42 111.436 233.788C113.718 233.947 115.303 234.803 117.151 235.396C119.123 235.925 122.322 235.226 124.296 235.753C126.649 240.086 127.879 245.052 130.19 249.327C130.803 250.462 132.118 251.405 132.512 252.721C133.127 254.779 132.461 256.848 133.047 258.973C129.906 261.964 126.293 264.483 123.224 267.546C123.224 269.332 123.224 271.118 123.224 272.905C122.808 274.394 123.163 276.655 123.045 278.442C123.045 281.418 123.045 284.395 123.045 287.372C122.24 291.807 119.881 294.687 118.401 298.446C118.131 298.89 116.862 298.336 116.615 298.803C111.525 298.995 105.937 299.827 103.04 297.196C102.095 294.629 101.307 291.904 100.361 289.337C98.8118 289.041 97.0757 288.931 95.1818 288.98C94.876 288.571 93.8186 288.914 93.2171 288.801C92.3239 288.801 91.431 288.801 90.5378 288.801C86.6371 291.926 83.4571 295.772 79.1068 298.446C77.6185 298.446 76.13 298.446 74.6418 298.446C73.8046 298.562 72.5028 298.213 71.9625 298.625C71.2482 298.625 70.5335 298.625 69.8193 298.625C69.1953 296.688 68.5243 294.8 67.676 293.088C64.2878 292.427 60.8089 291.858 57.3164 291.302C58.0168 288.604 61.3568 284.545 61.7818 281.657C62.4068 277.413 61.7818 271.716 61.7818 266.296C61.7818 260.863 62.5475 254.938 61.7818 250.757C61.216 247.665 58.6743 245.376 58.2096 243.255Z" />
<path id="24" fill="#C8C8C8" fill-rule="evenodd" clip-rule="evenodd" d="M124.656 267.724C126.054 266.583 127.605 265.159 129.479 263.617C130.746 262.573 133.71 260.891 134.123 259.33C134.675 257.241 133.423 255.155 133.765 252.364C131.22 249.212 130.019 245.623 128.229 241.469C126.446 237.332 124.314 234.206 124.478 228.608C128.973 231.726 132.295 236.379 136.98 239.504C139.235 241.008 142.097 241.966 144.661 243.254C152.181 247.036 159.903 251.287 168.417 253.793C169.899 260.943 170.164 268.259 172.882 273.797C174.814 277.736 178.638 279.424 181.991 281.835C181.991 281.894 181.991 281.954 181.991 282.014C178.444 287.576 175.019 293.26 172.346 299.697C172.382 307.234 170.874 313.228 168.417 318.272C165.099 319.184 160.36 319.186 157.522 320.594C156.467 321.117 152.74 324.456 152.342 325.417C151.252 328.044 152.144 331.57 150.913 334.704C150.015 334.759 149.502 335.199 148.77 335.419C146.292 333.908 143.95 332.261 141.625 330.597C141.625 330.179 141.625 329.763 141.625 329.346C141.512 328.744 141.855 327.687 141.447 327.382C141.447 326.429 141.447 325.476 141.447 324.524C141.334 323.922 141.677 322.864 141.268 322.559C141.268 321.547 141.268 320.534 141.268 319.522C141.155 318.921 141.499 317.863 141.09 317.558C141.999 313.647 139.025 313.113 138.232 310.77C137.387 308.276 137.511 305.21 136.803 302.376C136.105 299.582 135.449 296.908 134.838 294.338C131.463 292.236 127.879 290.342 124.479 288.265C124.479 285.229 124.479 282.192 124.479 279.156C124.479 276.536 124.479 273.917 124.479 271.297C124.892 270.461 124.539 268.858 124.656 267.724ZM200.388 277.548C192.939 269.101 185.27 260.873 173.953 256.293C174.692 261.807 175.576 267.173 177.347 271.654C179.381 273.48 181.989 276.903 184.848 277.727C188.48 278.773 192.437 277.982 196.994 278.084C197.614 277.478 200.63 278.434 200.388 277.548Z" />
<path id="25" fill="#C8C8C8" fill-rule="evenodd" clip-rule="evenodd" d="M250.22 230.038C253.313 232.112 254.409 236.163 260.4 235.218C260.765 235.627 261.884 235.282 262.544 235.396C263.616 235.396 264.687 235.396 265.759 235.396C266.123 235.806 267.242 235.461 267.902 235.575C270.809 236.717 273.159 238.416 275.582 240.04C276.642 245.651 278.677 251.233 279.512 256.472C273.218 260.347 267.649 266.533 262.187 272.548C258.048 277.105 253.889 280.711 249.505 284.872C246.855 287.388 245.626 289.131 241.646 289.516C237.044 289.961 228.639 290.112 225.214 288.801C223.143 288.009 221.351 285.38 219.856 283.622C218.146 281.612 216.491 279.83 215.033 277.906C214.31 276.665 213.19 275.819 212.176 274.87C211.395 274.639 211.053 273.969 210.568 273.441C209.869 272.592 209.095 271.818 208.246 271.119C207.606 270.33 206.892 269.615 206.103 268.976C204.144 267.065 202.401 264.938 200.566 262.903C209.802 253.98 219.708 245.726 222.893 230.752C227.828 230.508 232.357 229.857 237.36 229.681C238.372 229.681 239.385 229.681 240.397 229.681C241.234 229.565 242.535 229.915 243.076 229.502C244.267 229.502 245.457 229.502 246.648 229.502C247.928 229.591 249.702 229.186 250.22 230.038Z" />
</svg>
