<svg width="103" height="125" viewBox="0 0 103 125" fill="none" xmlns="http://www.w3.org/2000/svg">
<path fill-rule="evenodd" clip-rule="evenodd" d="M53.8933 0.683594C55.0686 1.59252 55.84 2.90465 56.7511 4.07715C58.149 4.22751 59.6147 4.31001 61.2168 4.25572C63.5001 7.97929 61.4736 13.6925 59.9661 17.6514C59.4276 19.0668 58.2111 20.9347 58.359 21.9386C58.6626 24.0011 63.2419 25.49 64.0747 27.2968C65.6283 30.2086 66.5329 33.7693 68.3611 36.4061C70.5019 37.1232 73.4761 37.0072 76.0418 37.2993C78.1115 39.3972 80.4833 41.1929 84.4361 41.4072C83.4336 43.6593 82.1 45.3439 80.6854 47.6586C79.8679 48.9957 77.0415 52.6229 77.2918 54.4457C77.5011 55.9679 79.8658 56.2479 80.3283 58.0182C80.8576 60.0425 79.9529 60.9729 80.3283 63.555C83.9215 68.7736 92.4336 69.0732 98.7254 71.5929C99.5026 72.0064 101.045 71.6547 102.119 71.7714C102.534 73.0232 102.18 75.045 102.298 76.5939C98.0508 77.8625 95.9451 79.685 94.7961 83.9172C93.9708 86.954 94.4069 90.8479 93.3669 93.7407C92.5551 96.0007 90.7365 97.1725 89.7947 98.9207C87.7176 99.8832 85.3122 99.4165 83.9004 100.707C83.1526 101.391 81.9486 105.081 81.3997 106.958C81 108.327 81.8258 110.111 81.5783 111.245C81.2875 112.58 79.7722 113.297 79.0783 114.103C78.1818 114.219 76.8197 113.869 76.2204 114.281C73.5733 114.567 71.3983 113.784 69.7904 114.639C68.4783 115.335 67.8233 118.091 67.1111 119.64C66.1686 121.686 65.4412 123.444 64.6104 124.819C62.4954 119.624 59.7526 114.76 56.7511 110.352C55.7265 108.846 54.2276 107.399 53.7147 105.886C52.3579 101.88 52.9208 97.2893 51.3933 92.8479C48.0136 90.2736 44.05 88.2829 40.6761 85.7032C40.1522 84.1432 39.7715 82.4404 39.2475 80.8807C38.25 79.7346 37.1786 78.6629 36.0326 77.6657C31.359 76.2282 25.5326 76.4407 21.2076 74.9864C19.7426 74.4939 18.1336 73.2754 16.5633 72.4857C12.9808 70.6847 10.7786 69.5225 7.9897 67.3061C6.7697 66.3361 5.12686 65.2154 4.41757 64.2696C2.94079 62.3 2.42614 59.7186 1.024 57.3036C0.908996 56.5257 1.25685 55.285 0.845424 54.8032C0.845424 53.7911 0.845424 52.7789 0.845424 51.7668C0.845424 50.5757 0.845424 49.385 0.845424 48.1943C0.731853 47.5343 1.07685 46.4154 0.666853 46.0511C0.666853 44.9793 0.666853 43.9079 0.666853 42.8361C0.666853 41.6454 0.666853 40.4547 0.666853 39.2636C0.553281 38.6036 0.898281 37.4847 0.488281 37.1207C0.488281 36.8229 0.488281 36.525 0.488281 36.2272C1.85042 36.4729 3.08186 36.8486 4.77471 36.7632C5.60829 36.7632 6.44184 36.7632 7.27541 36.7632C8.46613 36.7632 9.65685 36.7632 10.8476 36.7632C11.3908 36.6514 12.3865 36.9918 12.634 36.5846C14.2411 36.5846 15.849 36.5846 17.4569 36.5846C18.0583 36.4714 19.1158 36.815 19.4211 36.4061C22.4911 35.6468 25.9901 35.4793 29.0661 34.2629C31.7965 33.1832 33.0765 31.1061 34.7819 28.9043C37.7619 25.0575 40.6476 21.3575 43.534 17.6514C45.499 15.1289 47.844 12.7457 49.2497 10.15C50.9983 6.92037 52.2979 3.47502 53.8933 0.683594Z" fill="#C8C8C8"/>
</svg>
