<svg width="77" height="67" viewBox="0 0 77 67" fill="none" xmlns="http://www.w3.org/2000/svg">
<path fill-rule="evenodd" clip-rule="evenodd" d="M1.20962 10.2545C2.2114 8.45844 2.94997 6.39844 4.24605 4.8963C6.61247 5.14201 8.50426 3.95845 10.3189 4.36023C11.151 4.54523 12.9014 6.16736 13.3553 6.86093C14.0646 7.94593 14.4625 9.72273 15.1414 11.3267C16.89 15.4556 19.3582 20.8227 20.6785 24.5438C23.0382 26.9181 26.0432 27.9467 30.3235 28.8302C32.1943 29.2167 34.1257 29.8617 35.6818 29.7238C39.2964 29.4035 42.3721 26.7738 45.3268 25.9727C46.1043 22.6002 49.8571 19.3709 50.685 16.3274C51.6418 12.8117 50.4857 8.56843 51.3996 5.43236C51.9782 3.44522 53.4096 2.42023 54.4361 0.788086C56.7182 0.947015 58.3032 1.80309 60.1514 2.39595C62.1228 2.92452 65.3225 2.22559 67.2957 2.75309C69.6485 7.08631 70.8785 12.0524 73.19 16.3274C73.8032 17.462 75.1182 18.4052 75.5118 19.7213C76.1271 21.7788 75.4607 23.8484 76.0475 25.9727C72.9064 28.9641 69.2932 31.4834 66.2235 34.5459C66.2235 36.3324 66.2235 38.1184 66.2235 39.9045C65.8082 41.3942 66.1632 43.6545 66.045 45.4416C66.045 48.4184 66.045 51.3952 66.045 54.3724C65.24 58.8067 62.8814 61.6867 61.401 65.4459C61.1307 65.8902 59.8625 65.3363 59.615 65.8034C54.5253 65.9952 48.9375 66.8274 46.0403 64.1959C45.095 61.6288 44.3068 58.9042 43.3614 56.3367C41.8118 56.0409 40.0757 55.9313 38.1818 55.9795C37.876 55.5706 36.8186 55.9138 36.2171 55.8009C35.3239 55.8009 34.431 55.8009 33.5378 55.8009C29.6371 58.9256 26.4571 62.7717 22.1068 65.4459C20.6185 65.4459 19.13 65.4459 17.6418 65.4459C16.8046 65.5617 15.5028 65.2127 14.9625 65.6245C14.2482 65.6245 13.5335 65.6245 12.8193 65.6245C12.1953 63.6881 11.5243 61.7995 10.676 60.0877C7.28783 59.4274 3.80891 58.8581 0.316406 58.3016C1.01676 55.6041 4.35676 51.5452 4.78176 48.6567C5.40676 44.4127 4.78176 38.7163 4.78176 33.2959C4.78176 27.8627 5.54747 21.9377 4.78176 17.7566C4.21605 14.6649 1.67426 12.3763 1.20962 10.2545Z" fill="#C8C8C8"/>
</svg>
