<svg width="77" height="108" viewBox="0 0 77 108" fill="none" xmlns="http://www.w3.org/2000/svg">
<path fill-rule="evenodd" clip-rule="evenodd" d="M0.656187 39.7245C2.05404 38.583 3.60547 37.1588 5.47868 35.6166C6.74618 34.573 9.70975 32.8905 10.1226 31.3298C10.6751 29.2409 9.42332 27.1552 9.76547 24.3638C7.22011 21.2123 6.01904 17.6234 4.22868 13.4688C2.44583 9.33162 0.314044 6.2059 0.477616 0.608398C4.97262 3.72626 8.29511 8.37912 12.9805 11.5038C15.2351 13.0077 18.0973 13.9659 20.6608 15.2545C28.1812 19.0359 35.9033 23.287 44.4165 25.7931C45.899 32.9434 46.1637 40.2588 48.8819 45.7973C50.8144 49.7355 54.6383 51.4238 57.9912 53.8352C57.9912 53.8945 57.9912 53.9541 57.9912 54.0138C54.4437 59.5756 51.0194 65.2602 48.3462 71.6966C48.3819 79.2338 46.8737 85.2277 44.4169 90.2723C41.0987 91.1841 36.3601 91.1863 33.5215 92.5941C32.4673 93.117 28.7398 96.4563 28.3419 97.4166C27.2523 100.044 28.1437 103.57 26.913 106.704C26.0148 106.759 25.5019 107.199 24.7698 107.419C22.2919 105.908 19.9498 104.261 17.6255 102.597C17.6255 102.179 17.6255 101.763 17.6255 101.346C17.5123 100.744 17.8555 99.687 17.4469 99.3816C17.4469 98.4288 17.4469 97.4763 17.4469 96.5238C17.334 95.9223 17.6773 94.8645 17.2683 94.5588C17.2683 93.5466 17.2683 92.5345 17.2683 91.5223C17.1555 90.9209 17.4987 89.8634 17.0898 89.5577C17.9994 85.6473 15.0255 85.1127 14.2319 82.7702C13.3873 80.2759 13.5108 77.2102 12.803 74.3756C12.1051 71.5816 11.449 68.9084 10.8383 66.3381C7.46261 64.2363 3.8794 62.342 0.478684 60.2652C0.478684 57.2288 0.478684 54.1923 0.478684 51.1559C0.478684 48.5363 0.478684 45.9166 0.478684 43.297C0.891541 42.4609 0.539044 40.8581 0.656187 39.7245ZM76.3876 49.5484C68.939 41.1009 61.2705 32.8727 49.953 28.2934C50.6915 33.8066 51.5758 39.1734 53.3466 43.6541C55.3812 45.4798 57.9894 48.9034 60.848 49.727C64.4801 50.7731 68.4373 49.9823 72.9937 50.0845C73.614 49.4781 76.6301 50.4345 76.3876 49.5484Z" fill="#C8C8C8"/>
</svg>
