<svg width="80" height="61" viewBox="0 0 80 61" fill="none" xmlns="http://www.w3.org/2000/svg">
<path fill-rule="evenodd" clip-rule="evenodd" d="M50.2196 1.03784C53.3132 3.11212 54.4089 7.16285 60.4003 6.21785C60.7646 6.62713 61.8839 6.28213 62.5439 6.39642C63.6161 6.39642 64.6875 6.39642 65.7589 6.39642C66.1232 6.8057 67.2425 6.46106 67.9025 6.57499C70.8093 7.71677 73.1586 9.41604 75.5825 11.04C76.6421 16.651 78.6768 22.2332 79.5125 27.4725C73.2178 31.3471 67.6486 37.5332 62.1868 43.5478C58.0482 48.105 53.8889 51.7114 49.5054 55.8721C46.8546 58.3882 45.6264 60.1307 41.6461 60.516C37.0443 60.9614 28.6389 61.1121 25.2139 59.8014C23.1432 59.0093 21.3507 56.38 19.8557 54.6218C18.1464 52.6118 16.4911 50.8296 15.0332 48.906C14.3096 47.665 13.1904 46.8193 12.1757 45.8696C11.3946 45.6389 11.0528 44.9686 10.5682 44.4407C9.86891 43.5921 9.09499 42.8182 8.24642 42.1189C7.60642 41.3296 6.89214 40.6153 6.10321 39.9757C4.14357 38.065 2.40069 35.9382 0.566406 33.9028C9.80212 24.98 19.7078 16.7261 22.8928 1.75249C27.8282 1.50821 32.3568 0.857135 37.3603 0.681063C38.3725 0.681063 39.3846 0.681063 40.3968 0.681063C41.2339 0.565349 42.5354 0.914635 43.0761 0.502492C44.2668 0.502492 45.4575 0.502492 46.6482 0.502492C47.9282 0.590706 49.7021 0.185693 50.2196 1.03784Z" fill="#C8C8C8"/>
</svg>
