<svg width="335" height="224" viewBox="0 0 335 224" fill="none" xmlns="http://www.w3.org/2000/svg">
<rect width="335" height="224" fill="#F5F6F8"/>
<path d="M20.9824 27.0664C20.1738 27.0723 19.5234 26.4219 19.5293 25.6133C19.5234 24.8164 20.1738 24.166 20.9824 24.1719C21.7793 24.166 22.4297 24.8164 22.4238 25.6133C22.4297 26.4219 21.7793 27.0723 20.9824 27.0664ZM40.0312 27.7227V28.8125H30.3516V27.7227H34.5117V25.6367H31.1836V24.6055H32.6719V21.4414H31.1484V20.3867H39.1875V21.4414H37.6406V24.6055H39.1523V25.6367H35.8008V27.7227H40.0312ZM33.9727 24.6055H36.3516V21.4414H33.9727V24.6055ZM49.5469 19.4609V27.1133H48.2344V19.4609H49.5469ZM40.9102 22.8008C40.9102 21.2598 42.1582 20.1582 43.7695 20.1523C45.3809 20.1582 46.623 21.2598 46.6172 22.8008C46.623 24.3652 45.3809 25.4609 43.7695 25.4609C42.1582 25.4609 40.9102 24.3652 40.9102 22.8008ZM42.1875 22.8008C42.1816 23.7383 42.8613 24.3242 43.7695 24.3242C44.6543 24.3242 45.3398 23.7383 45.3398 22.8008C45.3398 21.8867 44.6543 21.2891 43.7695 21.2891C42.8613 21.2891 42.1816 21.8867 42.1875 22.8008ZM42.5391 29.832V26.3398H43.8516V28.7773H49.8398V29.832H42.5391ZM59.707 25.0039V26.0352H52.2773V20.2812H59.6133V21.3359H53.6016V22.6133H59.3672V23.6328H53.6016V25.0039H59.707ZM51.0938 28.7539V27.6875H60.7734V28.7539H51.0938ZM71.1328 24.2539V25.2383H61.4531V24.2539H71.1328ZM62.5781 26.7852V25.8711H69.9609V28.2852H63.8906V29.0234H70.2773V29.9258H62.5898V27.4414H68.6719V26.7852H62.5781ZM62.6484 20.5859V19.6836H69.9375V22.0742H63.9727V22.7656H70.125V23.6562H62.6836V21.2305H68.6367V20.5859H62.6484ZM83.3672 20.4219V21.5C83.3672 22.8184 83.3672 24.2363 82.9805 26.3164L81.7031 26.1875C82.0664 24.2246 82.0664 22.7832 82.0664 21.5V21.4648H75.6562V20.4219H83.3672ZM74.6836 28.6719V27.6055H76.8516V24.2305H78.1523V27.6055H79.5V24.2305H80.7773V27.6055H84.3398V28.6719H74.6836ZM93.4453 19.4492V23H94.875V24.0781H93.4453V27.7227H92.1445V19.4492H93.4453ZM84.9609 25.6016C85.752 25.6016 86.6719 25.5957 87.6328 25.5664V24.8926C86.4551 24.7461 85.7051 24.166 85.7109 23.3164C85.7051 22.2793 86.7305 21.6641 88.2656 21.6758C89.8066 21.6641 90.8203 22.2793 90.8203 23.3164C90.8203 24.1602 90.0938 24.7344 88.9336 24.8926V25.502C89.8359 25.4492 90.7441 25.3672 91.5938 25.2383L91.6992 26.1523C89.4551 26.5742 86.9297 26.6035 85.1016 26.6211L84.9609 25.6016ZM85.2305 21.3242V20.375H87.6328V19.4141H88.9336V20.375H91.3125V21.3242H85.2305ZM86.4844 29.832V27.1719H87.7852V28.7773H93.8203V29.832H86.4844ZM86.9648 23.3164C86.9531 23.7734 87.4453 24.043 88.2656 24.043C89.0859 24.043 89.5781 23.7734 89.5781 23.3164C89.5781 22.8184 89.0859 22.5488 88.2656 22.5547C87.4453 22.5488 86.9531 22.8184 86.9648 23.3164ZM107.098 19.4609V27.1953H105.785V19.4609H107.098ZM98.2852 24.6992C100.002 24.0957 100.881 22.6016 100.875 21.0781V20.0469H102.223V21.0781C102.217 22.5547 103.084 23.9492 104.766 24.5117L104.098 25.543C102.891 25.1211 102.029 24.2773 101.561 23.1934C101.092 24.3535 100.213 25.2793 98.9648 25.7305L98.2852 24.6992ZM100.09 29.832V26.457H101.402V28.7773H107.391V29.832H100.09ZM112.453 21.7109C112.447 22.8711 113.355 24.0137 115.02 24.4648L114.41 25.4727C113.191 25.1387 112.312 24.4297 111.826 23.5098C111.363 24.5469 110.484 25.3672 109.219 25.7422L108.609 24.7344C110.268 24.2305 111.152 22.9883 111.152 21.7109V21.6523H108.938V20.6211H111.152V19.4023H112.465V20.6211H114.668V21.6523H112.453V21.7109ZM110.332 28.0391C110.32 26.7793 111.703 26.0703 113.93 26.0703C116.168 26.0703 117.545 26.7793 117.551 28.0391C117.545 29.2988 116.168 30.0312 113.93 30.0312C111.703 30.0312 110.32 29.2988 110.332 28.0391ZM111.621 28.0391C111.615 28.666 112.459 29.0234 113.93 29.0234C115.43 29.0234 116.25 28.666 116.25 28.0391C116.25 27.4062 115.43 27.0723 113.93 27.0664C112.459 27.0723 111.615 27.4062 111.621 28.0391ZM114.352 23.4102V22.3555H116.215V19.4492H117.516V25.8594H116.215V23.4102H114.352ZM127.312 19.4492V23.668H128.941V24.7461H127.312V30.043H126.023V19.4492H127.312ZM118.957 22.1211V21.0781H121.465V19.6016H122.766V21.0781H125.203V22.1211H118.957ZM119.449 25.3086C119.438 23.8438 120.574 22.8066 122.121 22.8125C123.645 22.8066 124.775 23.8438 124.781 25.3086C124.775 26.7676 123.645 27.793 122.121 27.793C120.574 27.793 119.438 26.7676 119.449 25.3086ZM120.691 25.3086C120.686 26.1699 121.289 26.7207 122.121 26.7148C122.936 26.7207 123.527 26.1699 123.539 25.3086C123.527 24.4473 122.936 23.8789 122.121 23.8789C121.289 23.8789 120.686 24.4473 120.691 25.3086ZM133.395 21.9922C133.383 23.9375 134.408 25.8828 136.125 26.6211L135.352 27.6641C134.133 27.1016 133.242 25.9824 132.75 24.5996C132.264 26.0879 131.35 27.3066 130.066 27.9102L129.27 26.8203C131.033 26.0586 132.064 24.0371 132.07 21.9922V20.3047H133.395V21.9922ZM136.887 30.0547V19.4492H138.199V30.0547H136.887ZM145.195 20.3398V21.1836H147.328V19.4609H148.629V27.1719H147.328V24.5H145.195V25.4141H140.215V20.3398H145.195ZM141.516 24.3945H143.906V21.3711H141.516V24.3945ZM141.645 29.832V26.457H142.969V28.7773H148.863V29.832H141.645ZM145.195 23.457H147.328V22.25H145.195V23.457ZM161.66 20.4219V21.5C161.66 22.8184 161.66 24.2363 161.273 26.3164L159.996 26.1875C160.359 24.2246 160.359 22.7832 160.359 21.5V21.4648H153.949V20.4219H161.66ZM152.977 28.6719V27.6055H155.145V24.2305H156.445V27.6055H157.793V24.2305H159.07V27.6055H162.633V28.6719H152.977ZM171.738 19.4492V23H173.168V24.0781H171.738V27.7227H170.438V19.4492H171.738ZM163.254 25.6016C164.045 25.6016 164.965 25.5957 165.926 25.5664V24.8926C164.748 24.7461 163.998 24.166 164.004 23.3164C163.998 22.2793 165.023 21.6641 166.559 21.6758C168.1 21.6641 169.113 22.2793 169.113 23.3164C169.113 24.1602 168.387 24.7344 167.227 24.8926V25.502C168.129 25.4492 169.037 25.3672 169.887 25.2383L169.992 26.1523C167.748 26.5742 165.223 26.6035 163.395 26.6211L163.254 25.6016ZM163.523 21.3242V20.375H165.926V19.4141H167.227V20.375H169.605V21.3242H163.523ZM164.777 29.832V27.1719H166.078V28.7773H172.113V29.832H164.777ZM165.258 23.3164C165.246 23.7734 165.738 24.043 166.559 24.043C167.379 24.043 167.871 23.7734 167.871 23.3164C167.871 22.8184 167.379 22.5488 166.559 22.5547C165.738 22.5488 165.246 22.8184 165.258 23.3164ZM179.883 22.0391V23.0352H177.926V23.8496C178.834 23.8086 179.736 23.75 180.586 23.6562L180.656 24.5352C178.412 24.875 175.945 24.9336 173.93 24.9336L173.777 23.9258C174.656 23.9258 175.617 23.9199 176.602 23.8965V23.0352H174.727V19.8945H179.777V20.8789H176.062V22.0391H179.883ZM175.406 26.4922V25.4844H182.566V28.1562H176.707V28.918H182.871V29.9492H175.43V27.207H181.277V26.4922H175.406ZM181.277 25.0742V19.4609H182.566V25.0742H181.277ZM194.004 19.6484V23.6328H194.965V19.4492H196.195V30.043H194.965V24.6992H194.004V29.5391H192.809V19.6484H194.004ZM187.16 27.4062V20.7383H189.434V21.793H188.355V26.3047C188.684 26.2812 189.053 26.2285 189.457 26.1289L189.562 27.2188C188.748 27.3945 188.139 27.4062 187.617 27.4062H187.16ZM189.867 27.4062V20.7383H192.199V21.793H191.039V26.3164C191.438 26.293 191.865 26.2461 192.352 26.1172L192.445 27.207C191.619 27.4004 190.963 27.4062 190.324 27.4062H189.867ZM205.758 19.4492V23.6797H207.223V24.7578H205.758V30.043H204.445V19.4492H205.758ZM197.156 27.0078C198.645 25.4258 199.137 23.7441 199.242 21.6289H197.578V20.5625H200.484C200.479 23.3398 200.086 25.6777 198.176 27.7461L197.156 27.0078ZM200.156 27.7109C201.668 25.9062 202.096 23.9258 202.178 21.6289H200.836V20.5625H203.414C203.408 23.4102 203.109 26.1289 201.199 28.4258L200.156 27.7109ZM211.676 22.4609C211.676 24.1953 212.695 26.0234 214.406 26.7383L213.691 27.7695C212.438 27.2246 211.523 26.1172 211.037 24.7695C210.551 26.2227 209.619 27.4414 208.383 28.0273L207.633 27.0078C209.303 26.2344 210.346 24.2598 210.352 22.4609V21.5703H208.02V20.4922H213.996V21.5703H211.676V22.4609ZM215.18 30.043V19.4492H216.492V30.043H215.18ZM229.723 19.4609V27.1953H228.41V19.4609H229.723ZM220.91 24.6992C222.627 24.0957 223.506 22.6016 223.5 21.0781V20.0469H224.848V21.0781C224.842 22.5547 225.709 23.9492 227.391 24.5117L226.723 25.543C225.516 25.1211 224.654 24.2773 224.186 23.1934C223.717 24.3535 222.838 25.2793 221.59 25.7305L220.91 24.6992ZM222.715 29.832V26.457H224.027V28.7773H230.016V29.832H222.715ZM235.078 21.7109C235.072 22.8711 235.98 24.0137 237.645 24.4648L237.035 25.4727C235.816 25.1387 234.938 24.4297 234.451 23.5098C233.988 24.5469 233.109 25.3672 231.844 25.7422L231.234 24.7344C232.893 24.2305 233.777 22.9883 233.777 21.7109V21.6523H231.562V20.6211H233.777V19.4023H235.09V20.6211H237.293V21.6523H235.078V21.7109ZM232.957 28.0391C232.945 26.7793 234.328 26.0703 236.555 26.0703C238.793 26.0703 240.17 26.7793 240.176 28.0391C240.17 29.2988 238.793 30.0312 236.555 30.0312C234.328 30.0312 232.945 29.2988 232.957 28.0391ZM234.246 28.0391C234.24 28.666 235.084 29.0234 236.555 29.0234C238.055 29.0234 238.875 28.666 238.875 28.0391C238.875 27.4062 238.055 27.0723 236.555 27.0664C235.084 27.0723 234.24 27.4062 234.246 28.0391ZM236.977 23.4102V22.3555H238.84V19.4492H240.141V25.8594H238.84V23.4102H236.977ZM249.996 19.4609V22.7891H251.473V23.8672H249.996V27.3711H248.695V19.4609H249.996ZM241.652 21.6758V20.6328H244.148V19.4492H245.449V20.6328H247.934V21.6758H241.652ZM242.191 24.1367C242.191 22.918 243.252 22.1094 244.793 22.1094C246.322 22.1094 247.377 22.918 247.383 24.1367C247.377 25.3496 246.322 26.1406 244.793 26.1406C243.252 26.1406 242.191 25.3496 242.191 24.1367ZM243.211 29.832V26.75H244.512V28.7773H250.418V29.832H243.211ZM243.457 24.1367C243.451 24.7754 243.99 25.1387 244.793 25.1328C245.596 25.1387 246.141 24.7754 246.141 24.1367C246.141 23.4922 245.596 23.1172 244.793 23.1172C243.99 23.1172 243.451 23.4922 243.457 24.1367ZM260.238 20.3633V25.3672H255.223V20.3633H260.238ZM256.43 29.832V26.4336H257.73V28.7773H263.637V29.832H256.43ZM256.5 24.3359H258.961V21.4062H256.5V24.3359ZM261.914 27.1836V19.4492H263.215V22.5547H264.691V23.6445H263.215V27.1836H261.914ZM273.727 19.8594V20.7734C273.732 21.7109 273.732 22.7656 273.451 24.1953H274.887V25.2617H265.23V24.1953H272.133C272.232 23.709 272.297 23.2637 272.344 22.8594L266.309 23.1289L266.156 22.0508L272.408 21.8984C272.426 21.5469 272.426 21.2188 272.426 20.9023H266.426V19.8594H273.727ZM266.391 29.9141V26.2344H273.715V29.9141H266.391ZM267.668 28.8594H272.426V27.2773H267.668V28.8594ZM288.129 27.7227V28.8125H278.449V27.7227H282.609V25.6367H279.281V24.6055H280.77V21.4414H279.246V20.3867H287.285V21.4414H285.738V24.6055H287.25V25.6367H283.898V27.7227H288.129ZM282.07 24.6055H284.449V21.4414H282.07V24.6055ZM297.645 19.4609V27.1133H296.332V19.4609H297.645ZM289.008 22.8008C289.008 21.2598 290.256 20.1582 291.867 20.1523C293.479 20.1582 294.721 21.2598 294.715 22.8008C294.721 24.3652 293.479 25.4609 291.867 25.4609C290.256 25.4609 289.008 24.3652 289.008 22.8008ZM290.285 22.8008C290.279 23.7383 290.959 24.3242 291.867 24.3242C292.752 24.3242 293.438 23.7383 293.438 22.8008C293.438 21.8867 292.752 21.2891 291.867 21.2891C290.959 21.2891 290.279 21.8867 290.285 22.8008ZM290.637 29.832V26.3398H291.949V28.7773H297.938V29.832H290.637ZM307.805 25.0039V26.0352H300.375V20.2812H307.711V21.3359H301.699V22.6133H307.465V23.6328H301.699V25.0039H307.805ZM299.191 28.7539V27.6875H308.871V28.7539H299.191ZM317.859 19.4492V23.5859H319.43V24.6758H317.859V30.0195H316.559V19.4492H317.859ZM309.504 27.125C312.082 25.8359 313.477 24.043 313.734 21.6289H310.078V20.5508H315.059C315.053 23.6621 313.764 26.3984 310.242 28.1328L309.504 27.125ZM34.1484 39.125C34.1367 40.4492 34.998 41.7148 36.6445 42.2422L35.9883 43.2617C34.7988 42.8809 33.9609 42.084 33.498 41.082C33.0352 42.166 32.1738 43.0156 30.9375 43.4258L30.2695 42.3945C31.9805 41.8379 32.8359 40.4727 32.8359 39.0195V38H34.1484V39.125ZM31.6523 45.3711V44.3281H38.707V48.043H37.4062V45.3711H31.6523ZM37.4062 43.8594V37.4492H38.707V40.1094H40.1836V41.1992H38.707V43.8594H37.4062ZM49.0781 37.4492V39.8633H50.5547V40.9297H49.0781V43.4023H47.7773V37.4492H49.0781ZM40.6406 42.5586C43.0957 41.9316 44.4902 40.6777 44.7188 39.1484H41.1445V38.0938H46.1367C46.1309 40.8477 44.3262 42.752 41.1562 43.6016L40.6406 42.5586ZM42.2227 47.9023V43.8242H49.0781V47.9023H42.2227ZM43.5234 46.8711H47.7891V44.8906H43.5234V46.8711ZM59.9414 37.4609V43.5664H58.6289V37.4609H59.9414ZM51.1172 42.3711C51.9668 42.3711 52.9453 42.3652 53.9648 42.3359V41.3984H52.0312V37.9531H57.1289V38.9961H53.3438V40.3789H57.2109V41.3984H55.2656V42.2891C56.1562 42.2422 57.0527 42.1719 57.8906 42.0664L57.9609 42.9688C55.6934 43.3613 53.1797 43.3906 51.293 43.4141L51.1172 42.3711ZM52.8047 47.9141V44.0117H54.1055V44.9375H58.6523V44.0117H59.9414V47.9141H52.8047ZM54.1055 46.8594H58.6523V45.9102H54.1055V46.8594ZM70.3008 37.4492V48.043H69.0117V37.4492H70.3008ZM62.0742 45.3828V38.4805H63.3633V44.2695C64.8457 44.2461 66.4277 44.1172 68.0625 43.7891L68.2266 44.8789C66.3633 45.2656 64.6348 45.3887 62.9883 45.3828H62.0742ZM80.1328 37.4492V41.4688H81.7617V42.5352H80.1328V48.0547H78.832V37.4492H80.1328ZM72.2695 45.4648V38.457H77.2266V39.5117H73.5703V44.375C75.2168 44.3691 76.5234 44.2871 77.9766 44.0352L78.1289 45.1367C76.4824 45.418 75.0586 45.4648 73.1484 45.4648H72.2695ZM83.4961 47.0938C82.9922 47.0938 82.5762 46.6836 82.582 46.1797C82.5762 45.6875 82.9922 45.2832 83.4961 45.2773C83.9824 45.2832 84.3984 45.6875 84.3984 46.1797C84.3984 46.6836 83.9824 47.0938 83.4961 47.0938Z" fill="#A4A7AF"/>
<path d="M20.9824 75.0664C20.1738 75.0723 19.5234 74.4219 19.5293 73.6133C19.5234 72.8164 20.1738 72.166 20.9824 72.1719C21.7793 72.166 22.4297 72.8164 22.4238 73.6133C22.4297 74.4219 21.7793 75.0723 20.9824 75.0664ZM38.707 67.4609V70.5195H40.1836V71.5977H38.707V75.2539H37.4062V67.4609H38.707ZM30.7148 73.5312V68.2109H32.0039V69.8281H34.4766V68.2109H35.7656V73.5312H30.7148ZM31.9219 77.832V74.4688H33.2227V76.7773H39.1289V77.832H31.9219ZM32.0039 72.5H34.4766V70.8359H32.0039V72.5ZM49.3242 72.418V73.4609H41.8945V68.375H49.2422V69.4297H43.1836V72.418H49.3242ZM40.7227 76.6953V75.6172H50.4023V76.6953H40.7227ZM55.1016 69.9922C55.0898 71.9375 56.1152 73.8828 57.832 74.6211L57.0586 75.6641C55.8398 75.1016 54.9492 73.9824 54.457 72.5996C53.9707 74.0879 53.0566 75.3066 51.7734 75.9102L50.9766 74.8203C52.7402 74.0586 53.7715 72.0371 53.7773 69.9922V68.3047H55.1016V69.9922ZM58.5938 78.0547V67.4492H59.9062V78.0547H58.5938ZM66.8555 67.8477V68.9961H71.4258V67.8477H72.7148V72.1484H69.7852V73.1211H73.9688V74.1758H64.3125V73.1211H68.4727V72.1484H65.5664V67.8477H66.8555ZM65.5078 77.832V74.8555H66.8086V76.7773H72.8789V77.832H65.5078ZM66.8555 71.1055H71.4258V70.0039H66.8555V71.1055ZM83.5078 67.4609V75.1133H82.1953V67.4609H83.5078ZM74.8711 70.8008C74.8711 69.2598 76.1191 68.1582 77.7305 68.1523C79.3418 68.1582 80.584 69.2598 80.5781 70.8008C80.584 72.3652 79.3418 73.4609 77.7305 73.4609C76.1191 73.4609 74.8711 72.3652 74.8711 70.8008ZM76.1484 70.8008C76.1426 71.7383 76.8223 72.3242 77.7305 72.3242C78.6152 72.3242 79.3008 71.7383 79.3008 70.8008C79.3008 69.8867 78.6152 69.2891 77.7305 69.2891C76.8223 69.2891 76.1426 69.8867 76.1484 70.8008ZM76.5 77.832V74.3398H77.8125V76.7773H83.8008V77.832H76.5ZM96.7734 67.4492V73.6836H95.4727V72.2188H93.3398V73.0391H88.3594V68.2461H93.3398V69.0664H95.4727V67.4492H96.7734ZM89.5898 76.0039C89.5781 74.7148 90.9551 73.959 93.1875 73.9648C95.4316 73.959 96.8027 74.7148 96.8086 76.0039C96.8027 77.293 95.4316 78.0312 93.1875 78.0312C90.9551 78.0312 89.5781 77.293 89.5898 76.0039ZM89.6602 71.9961H92.0508V69.2773H89.6602V71.9961ZM90.8789 76.0039C90.873 76.6602 91.7168 77.0234 93.1875 77.0234C94.6699 77.0234 95.5078 76.6602 95.5078 76.0039C95.5078 75.3184 94.6699 74.9668 93.1875 74.9609C91.7168 74.9668 90.873 75.3184 90.8789 76.0039ZM93.3398 71.1641H95.4727V70.0977H93.3398V71.1641ZM101.707 68.1875C103.389 68.1816 104.613 69.2422 104.625 70.7422C104.613 72.248 103.389 73.3027 101.707 73.3086C100.043 73.3027 98.7949 72.248 98.8008 70.7422C98.7949 69.2422 100.043 68.1816 101.707 68.1875ZM98.3203 74.7734C100.23 74.7734 102.873 74.75 105.164 74.4219L105.27 75.3711C102.896 75.8223 100.354 75.8398 98.4844 75.8398L98.3203 74.7734ZM100.09 70.7422C100.084 71.627 100.781 72.1719 101.707 72.1719C102.645 72.1719 103.342 71.627 103.348 70.7422C103.342 69.8633 102.65 69.3125 101.707 69.3125C100.781 69.3125 100.084 69.8633 100.09 70.7422ZM105.797 78.0547V67.4492H107.098V78.0547H105.797ZM112.078 68.1875C113.76 68.1816 114.984 69.2422 114.996 70.7422C114.984 72.248 113.76 73.3027 112.078 73.3086C110.414 73.3027 109.166 72.248 109.172 70.7422C109.166 69.2422 110.414 68.1816 112.078 68.1875ZM108.691 74.7734C110.602 74.7734 113.244 74.75 115.535 74.4219L115.641 75.3711C113.268 75.8223 110.725 75.8398 108.855 75.8398L108.691 74.7734ZM110.461 70.7422C110.455 71.627 111.152 72.1719 112.078 72.1719C113.016 72.1719 113.713 71.627 113.719 70.7422C113.713 69.8633 113.021 69.3125 112.078 69.3125C111.152 69.3125 110.455 69.8633 110.461 70.7422ZM116.168 78.0547V67.4492H117.469V78.0547H116.168ZM131.004 67.4492V78.043H129.762V67.4492H131.004ZM121.758 74.8789C123.949 73.584 124.957 71.9258 125.156 69.793H122.32V68.7383H126.445C126.445 69.2715 126.41 69.793 126.334 70.2969H127.57V67.707H128.812V77.5391H127.57V74H125.918V72.9336H127.57V71.3633H126.111C125.607 73.1211 124.506 74.6328 122.52 75.8047L121.758 74.8789ZM138.328 68.3516V69.418H136.113C136.154 70.5898 137.016 71.7031 138.621 72.1719L138 73.1914C136.793 72.834 135.932 72.0957 135.463 71.1523C134.994 72.1895 134.109 72.9922 132.867 73.3789L132.199 72.3594C133.846 71.8672 134.736 70.6953 134.789 69.418H132.562V68.3516H138.328ZM132.105 74.8906C132.908 74.8906 133.834 74.8906 134.801 74.8672V72.9336H136.102V74.8203C136.969 74.7793 137.842 74.709 138.656 74.5977L138.75 75.5352C136.506 75.957 134.086 75.9512 132.281 75.957L132.105 74.8906ZM139.266 78.043V67.4492H140.566V71.7031H142.102V72.793H140.566V78.043H139.266ZM152.285 75.7344V76.8125H142.605V75.7344H146.777V74.0117H143.754V70.543H149.848V69.2305H143.73V68.1758H151.137V71.5742H145.055V72.9453H151.383V74.0117H148.066V75.7344H152.285ZM158.355 68.3633V73.3672H153.34V68.3633H158.355ZM154.547 77.832V74.4336H155.848V76.7773H161.754V77.832H154.547ZM154.617 72.3359H157.078V69.4062H154.617V72.3359ZM160.031 75.1836V67.4492H161.332V70.5547H162.809V71.6445H161.332V75.1836H160.031ZM174.879 68.4219V69.5C174.879 70.8184 174.879 72.2363 174.492 74.3164L173.215 74.1875C173.578 72.2246 173.578 70.7832 173.578 69.5V69.4648H167.168V68.4219H174.879ZM166.195 76.6719V75.6055H168.363V72.2305H169.664V75.6055H171.012V72.2305H172.289V75.6055H175.852V76.6719H166.195ZM184.957 67.4492V71H186.387V72.0781H184.957V75.7227H183.656V67.4492H184.957ZM176.473 73.6016C177.264 73.6016 178.184 73.5957 179.145 73.5664V72.8926C177.967 72.7461 177.217 72.166 177.223 71.3164C177.217 70.2793 178.242 69.6641 179.777 69.6758C181.318 69.6641 182.332 70.2793 182.332 71.3164C182.332 72.1602 181.605 72.7344 180.445 72.8926V73.502C181.348 73.4492 182.256 73.3672 183.105 73.2383L183.211 74.1523C180.967 74.5742 178.441 74.6035 176.613 74.6211L176.473 73.6016ZM176.742 69.3242V68.375H179.145V67.4141H180.445V68.375H182.824V69.3242H176.742ZM177.996 77.832V75.1719H179.297V76.7773H185.332V77.832H177.996ZM178.477 71.3164C178.465 71.7734 178.957 72.043 179.777 72.043C180.598 72.043 181.09 71.7734 181.09 71.3164C181.09 70.8184 180.598 70.5488 179.777 70.5547C178.957 70.5488 178.465 70.8184 178.477 71.3164ZM195.75 67.4492V78.0547H194.438V67.4492H195.75ZM187.277 71.9609C187.271 69.6758 188.438 68.2227 190.043 68.2227C191.631 68.2227 192.803 69.6758 192.809 71.9609C192.803 74.2637 191.631 75.7109 190.043 75.7109C188.438 75.7109 187.271 74.2637 187.277 71.9609ZM188.531 71.9609C188.531 73.5898 189.146 74.5332 190.043 74.5391C190.934 74.5332 191.543 73.5898 191.543 71.9609C191.543 70.3438 190.934 69.3945 190.043 69.3945C189.146 69.3945 188.531 70.3438 188.531 71.9609ZM208.453 67.4492V71.5859H210.023V72.6758H208.453V78.0195H207.152V67.4492H208.453ZM200.098 75.125C202.676 73.8359 204.07 72.043 204.328 69.6289H200.672V68.5508H205.652C205.646 71.6621 204.357 74.3984 200.836 76.1328L200.098 75.125ZM219.094 70.2031V71.2578H211.781V67.6367H213.082V70.2031H219.094ZM210.527 73.332V72.2773H220.195V73.332H210.527ZM211.652 76.0508C211.652 74.8027 213.041 74.0996 215.344 74.0938C217.629 74.0996 219.006 74.8027 219.012 76.0508C219.006 77.293 217.629 77.9961 215.344 77.9961C213.041 77.9961 211.652 77.293 211.652 76.0508ZM212.977 76.0508C212.971 76.6602 213.803 76.9941 215.344 77C216.861 76.9941 217.699 76.6602 217.711 76.0508C217.699 75.4238 216.861 75.1191 215.344 75.1133C213.803 75.1191 212.971 75.4238 212.977 76.0508ZM229.254 67.4492V70.0625H230.73V71.1406H229.254V73.6367H227.953V67.4492H229.254ZM220.91 69.4766V68.4336H223.406V67.3672H224.707V68.4336H227.191V69.4766H220.91ZM221.449 71.7031C221.449 70.5781 222.504 69.8398 224.051 69.8398C225.58 69.8398 226.635 70.5781 226.641 71.7031C226.635 72.8281 225.58 73.5723 224.051 73.5664C222.504 73.5723 221.449 72.8281 221.449 71.7031ZM222.41 77.9141V74.0586H223.699V74.9727H227.953V74.0586H229.254V77.9141H222.41ZM222.715 71.7031C222.709 72.2773 223.248 72.6055 224.051 72.6055C224.854 72.6055 225.398 72.2773 225.398 71.7031C225.398 71.1465 224.854 70.8008 224.051 70.8008C223.248 70.8008 222.709 71.1465 222.715 71.7031ZM223.699 76.8828H227.953V75.9805H223.699V76.8828ZM240.105 67.4492V78.043H238.816V67.4492H240.105ZM231.879 75.3828V68.4805H233.168V74.2695C234.65 74.2461 236.232 74.1172 237.867 73.7891L238.031 74.8789C236.168 75.2656 234.439 75.3887 232.793 75.3828H231.879ZM249.938 67.4492V71.4688H251.566V72.5352H249.938V78.0547H248.637V67.4492H249.938ZM242.074 75.4648V68.457H247.031V69.5117H243.375V74.375C245.021 74.3691 246.328 74.2871 247.781 74.0352L247.934 75.1367C246.287 75.418 244.863 75.4648 242.953 75.4648H242.074ZM253.301 77.0938C252.797 77.0938 252.381 76.6836 252.387 76.1797C252.381 75.6875 252.797 75.2832 253.301 75.2773C253.787 75.2832 254.203 75.6875 254.203 76.1797C254.203 76.6836 253.787 77.0938 253.301 77.0938Z" fill="#A4A7AF"/>
<path d="M20.9824 105.066C20.1738 105.072 19.5234 104.422 19.5293 103.613C19.5234 102.816 20.1738 102.166 20.9824 102.172C21.7793 102.166 22.4297 102.816 22.4238 103.613C22.4297 104.422 21.7793 105.072 20.9824 105.066ZM39.4922 97.4492V108.043H38.25V97.4492H39.4922ZM30.2461 104.879C32.4375 103.584 33.4453 101.926 33.6445 99.793H30.8086V98.7383H34.9336C34.9336 99.2715 34.8984 99.793 34.8223 100.297H36.0586V97.707H37.3008V107.539H36.0586V104H34.4062V102.934H36.0586V101.363H34.5996C34.0957 103.121 32.9941 104.633 31.0078 105.805L30.2461 104.879ZM46.8164 98.3516V99.418H44.6016C44.6426 100.59 45.5039 101.703 47.1094 102.172L46.4883 103.191C45.2812 102.834 44.4199 102.096 43.9512 101.152C43.4824 102.189 42.5977 102.992 41.3555 103.379L40.6875 102.359C42.334 101.867 43.2246 100.695 43.2773 99.418H41.0508V98.3516H46.8164ZM40.5938 104.891C41.3965 104.891 42.3223 104.891 43.2891 104.867V102.934H44.5898V104.82C45.457 104.779 46.3301 104.709 47.1445 104.598L47.2383 105.535C44.9941 105.957 42.5742 105.951 40.7695 105.957L40.5938 104.891ZM47.7539 108.043V97.4492H49.0547V101.703H50.5898V102.793H49.0547V108.043H47.7539ZM59.9648 97.4609V105.277H58.6641V101.375H56.5312V103.555H51.5742V98.1523H52.875V99.8633H55.2422V98.1523H56.5312V100.32H58.6641V97.4609H59.9648ZM52.875 102.523H55.2422V100.871H52.875V102.523ZM52.9805 107.832V104.504H54.3047V106.777H60.1992V107.832H52.9805ZM70.6523 98.8672V99.9219H61.8984V98.8672H65.6367V97.5898H66.9258V98.8672H70.6523ZM61.4648 106.906V105.852H65.6367V104.551C63.8086 104.41 62.7012 103.672 62.707 102.5C62.7012 101.223 64.0723 100.461 66.2812 100.461C68.4609 100.461 69.8496 101.223 69.8438 102.5C69.8496 103.666 68.7305 104.404 66.9258 104.551V105.852H71.1445V106.906H61.4648ZM64.043 102.5C64.0371 103.18 64.8398 103.525 66.2812 103.531C67.6934 103.525 68.5078 103.18 68.5078 102.5C68.5078 101.832 67.6934 101.486 66.2812 101.48C64.8398 101.486 64.0371 101.832 64.043 102.5ZM80.332 98.1055V102.512H75.2227V98.1055H80.332ZM75.8555 107.012C77.8887 106.836 79.1895 105.934 79.3066 105.09H76.2891V104.105H79.3359V103.18H80.6484V104.105H83.707V105.09H80.6836C80.8008 105.91 82.0781 106.807 84.1055 107.012L83.6602 108.008C81.9434 107.826 80.6426 107.152 79.998 106.273C79.3477 107.164 78.0293 107.82 76.3008 108.008L75.8555 107.012ZM76.5117 101.492H79.043V99.1367H76.5117V101.492ZM82.1953 103.484V97.4492H83.4844V103.484H82.1953ZM97.5586 102.922V103.965H87.9023V102.922H97.5586ZM88.8984 99.9336C88.8984 98.5918 90.4043 97.7832 92.7188 97.7891C95.0273 97.7832 96.5332 98.5918 96.5391 99.9336C96.5332 101.281 95.0273 102.102 92.7188 102.102C90.4043 102.102 88.8984 101.281 88.8984 99.9336ZM89.0977 107.832V104.75H90.3984V106.777H96.4688V107.832H89.0977ZM90.2578 99.9336C90.2461 100.654 91.1777 101.041 92.7188 101.035C94.2656 101.041 95.1914 100.654 95.1914 99.9336C95.1914 99.2363 94.2656 98.832 92.7188 98.832C91.1777 98.832 90.2461 99.2363 90.2578 99.9336ZM107.332 97.4492V104.105H106.09V101.223H105.059V103.754H103.84V97.6602H105.059V100.168H106.09V97.4492H107.332ZM98.2148 99.6172V98.5977H100.219V97.543H101.508V98.5977H103.488V99.6172H98.2148ZM98.5898 101.879C98.5781 100.777 99.5391 100.045 100.863 100.051C102.211 100.045 103.16 100.777 103.172 101.879C103.16 102.98 102.211 103.707 100.863 103.707C99.5391 103.707 98.5781 102.98 98.5898 101.879ZM99.75 101.879C99.75 102.424 100.201 102.77 100.863 102.77C101.531 102.77 101.988 102.424 101.988 101.879C101.988 101.334 101.531 100.988 100.863 100.988C100.201 100.988 99.75 101.334 99.75 101.879ZM100.125 106.145C100.119 104.926 101.49 104.24 103.758 104.234C106.02 104.24 107.385 104.926 107.391 106.145C107.385 107.34 106.02 108.031 103.758 108.031C101.49 108.031 100.119 107.34 100.125 106.145ZM101.426 106.145C101.42 106.725 102.246 107.041 103.758 107.035C105.264 107.041 106.072 106.725 106.078 106.145C106.072 105.529 105.264 105.219 103.758 105.23C102.246 105.219 101.42 105.529 101.426 106.145ZM120.363 97.4492V103.742H119.062V101.152H117.258V100.086H119.062V97.4492H120.363ZM111.457 102.688C113.162 102.102 114.059 100.678 114.059 99.2773V99.1953H111.855V98.1406H117.574V99.1953H115.383V99.2656C115.383 100.555 116.238 101.855 117.879 102.406L117.223 103.438C116.045 103.039 115.213 102.23 114.744 101.234C114.281 102.359 113.396 103.273 112.137 103.719L111.457 102.688ZM113.18 106.027C113.168 104.756 114.545 104.012 116.777 104.012C119.021 104.012 120.393 104.756 120.398 106.027C120.393 107.299 119.021 108.037 116.777 108.043C114.545 108.037 113.168 107.299 113.18 106.027ZM114.469 106.027C114.463 106.684 115.307 107.041 116.777 107.035C118.26 107.041 119.098 106.684 119.098 106.027C119.098 105.365 118.26 105.008 116.777 105.008C115.307 105.008 114.463 105.365 114.469 106.027ZM131.543 105.699V106.766H121.863V105.699H126.035V103.637H122.93V98.1523H124.23V99.8867H129.141V98.1523H130.441V103.637H127.324V105.699H131.543ZM124.23 102.582H129.141V100.93H124.23V102.582ZM141.902 102.254V103.238H132.223V102.254H141.902ZM133.348 104.785V103.871H140.73V106.285H134.66V107.023H141.047V107.926H133.359V105.441H139.441V104.785H133.348ZM133.418 98.5859V97.6836H140.707V100.074H134.742V100.766H140.895V101.656H133.453V99.2305H139.406V98.5859H133.418ZM151.43 97.9883V99.0195H149.238C149.256 100.168 150.129 101.287 151.781 101.762L151.16 102.758C149.953 102.424 149.08 101.697 148.6 100.777C148.131 101.826 147.229 102.641 145.934 103.016L145.301 101.996C146.994 101.498 147.896 100.279 147.926 99.0195H145.676V97.9883H151.43ZM146.883 104.328V103.332H153.809V106.039H148.184V106.93H154.137V107.938H146.895V105.113H152.508V104.328H146.883ZM152.508 102.887V97.4492H153.809V99.6172H155.285V100.672H153.809V102.887H152.508ZM164.25 97.8828V101.504H161.297V102.547H165.48V103.602H155.824V102.547H160.008V101.504H157.043V97.8828H164.25ZM156.504 106.965C158.684 106.684 159.979 105.629 159.984 104.41V104.141H161.297V104.41C161.297 105.629 162.592 106.684 164.789 106.965L164.309 107.973C162.604 107.727 161.297 107.029 160.641 106.01C159.984 107.029 158.678 107.727 156.973 107.973L156.504 106.965ZM158.309 100.473H162.961V98.9023H158.309V100.473ZM177.867 97.4492V103.133H176.555V97.4492H177.867ZM169.23 100.402C169.23 98.9316 170.449 97.9121 172.09 97.918C173.725 97.9121 174.943 98.9316 174.938 100.402C174.943 101.85 173.725 102.869 172.09 102.863C170.449 102.869 169.23 101.85 169.23 100.402ZM170.508 100.402C170.502 101.252 171.164 101.791 172.09 101.797C172.998 101.791 173.66 101.252 173.66 100.402C173.66 99.5527 172.998 99.002 172.09 99.0078C171.164 99.002 170.502 99.5527 170.508 100.402ZM170.859 107.914V103.625H172.148V104.715H176.566V103.625H177.867V107.914H170.859ZM172.148 106.859H176.566V105.734H172.148V106.859ZM184.477 98.082V101.27H181.137V102.57C182.842 102.57 183.809 102.523 184.934 102.312L185.062 103.367C183.797 103.584 182.701 103.613 180.621 103.613H179.848V100.297H183.176V99.1133H179.824V98.082H184.477ZM181.043 105.523V104.48H188.285V108.043H186.984V105.523H181.043ZM185.109 102.23V101.188H186.984V100.004H185.109V98.9609H186.984V97.4609H188.285V103.977H186.984V102.23H185.109ZM198.844 97.4609V103.988H197.602V101.305H196.594V103.859H195.375V97.6133H196.594V100.238H197.602V97.4609H198.844ZM189.727 99.5703V98.5391H191.73V97.5078H193.02V98.5391H195V99.5703H189.727ZM190.102 101.809C190.09 100.701 191.051 99.9746 192.375 99.9688C193.723 99.9746 194.672 100.701 194.684 101.809C194.672 102.898 193.723 103.643 192.375 103.648C191.051 103.643 190.09 102.898 190.102 101.809ZM190.406 106.93C191.76 106.52 192.451 105.523 192.445 104.574V104.316H193.734V104.574C193.729 105.4 194.121 106.244 195.012 106.771C195.914 106.209 196.33 105.312 196.336 104.574V104.316H197.625V104.574C197.625 105.582 198.287 106.555 199.676 106.93L199.066 107.914C198.029 107.586 197.332 106.93 196.969 106.121C196.629 106.924 196.008 107.645 195.035 108.008C194.039 107.656 193.412 106.977 193.078 106.174C192.691 106.947 192 107.58 191.016 107.914L190.406 106.93ZM191.262 101.809C191.262 102.365 191.713 102.699 192.375 102.699C193.043 102.699 193.5 102.365 193.5 101.809C193.5 101.24 193.043 100.918 192.375 100.918C191.713 100.918 191.262 101.24 191.262 101.809ZM204.973 97.6133C207.387 97.6191 208.787 98.2578 208.793 99.4297C208.787 100.613 207.387 101.252 204.973 101.258C202.564 101.252 201.152 100.613 201.152 99.4297C201.152 98.2578 202.564 97.6191 204.973 97.6133ZM200.156 102.863V101.82H209.812V102.863H200.156ZM201.293 104.539V103.578H208.605V106.168H202.582V106.953H208.898V107.949H201.305V105.242H207.328V104.539H201.293ZM202.523 99.4297C202.518 100.016 203.361 100.285 204.973 100.285C206.607 100.285 207.445 100.016 207.445 99.4297C207.445 98.8848 206.607 98.5742 204.973 98.5742C203.361 98.5742 202.518 98.8848 202.523 99.4297ZM222.246 97.4609V103.648H220.945V102.477H218.426V101.422H220.945V100.285H218.525C217.857 101.967 216.311 103.145 214.008 103.789L213.48 102.758C215.959 102.09 217.283 100.83 217.482 99.2539H214.043V98.1992H218.906C218.906 98.5684 218.877 98.9199 218.818 99.2539H220.945V97.4609H222.246ZM215.145 105.875C215.145 104.574 216.568 103.771 218.742 103.766C220.887 103.771 222.316 104.574 222.316 105.875C222.316 107.176 220.887 107.99 218.742 107.984C216.568 107.99 215.145 107.176 215.145 105.875ZM216.445 105.875C216.445 106.572 217.318 106.953 218.742 106.953C220.143 106.953 221.01 106.572 221.016 105.875C221.01 105.166 220.143 104.785 218.742 104.785C217.318 104.785 216.445 105.166 216.445 105.875ZM233.414 103.414V104.492H229.195V108.043H227.906V104.492H223.734V103.414H233.414ZM224.754 100.203C224.748 98.75 226.295 97.8301 228.551 97.8242C230.807 97.8301 232.365 98.75 232.371 100.203C232.365 101.639 230.807 102.553 228.551 102.547C226.295 102.553 224.748 101.639 224.754 100.203ZM226.09 100.203C226.084 101.029 227.057 101.516 228.551 101.516C230.051 101.516 231.023 101.029 231.023 100.203C231.023 99.3711 230.051 98.8789 228.551 98.8789C227.057 98.8789 226.084 99.3711 226.09 100.203ZM245.648 98.4219V99.5C245.648 100.818 245.648 102.236 245.262 104.316L243.984 104.188C244.348 102.225 244.348 100.783 244.348 99.5V99.4648H237.938V98.4219H245.648ZM236.965 106.672V105.605H239.133V102.23H240.434V105.605H241.781V102.23H243.059V105.605H246.621V106.672H236.965ZM255.727 97.4492V101H257.156V102.078H255.727V105.723H254.426V97.4492H255.727ZM247.242 103.602C248.033 103.602 248.953 103.596 249.914 103.566V102.893C248.736 102.746 247.986 102.166 247.992 101.316C247.986 100.279 249.012 99.6641 250.547 99.6758C252.088 99.6641 253.102 100.279 253.102 101.316C253.102 102.16 252.375 102.734 251.215 102.893V103.502C252.117 103.449 253.025 103.367 253.875 103.238L253.98 104.152C251.736 104.574 249.211 104.604 247.383 104.621L247.242 103.602ZM247.512 99.3242V98.375H249.914V97.4141H251.215V98.375H253.594V99.3242H247.512ZM248.766 107.832V105.172H250.066V106.777H256.102V107.832H248.766ZM249.246 101.316C249.234 101.773 249.727 102.043 250.547 102.043C251.367 102.043 251.859 101.773 251.859 101.316C251.859 100.818 251.367 100.549 250.547 100.555C249.727 100.549 249.234 100.818 249.246 101.316ZM266.848 97.4492V108.043H265.594V97.4492H266.848ZM257.812 102.031C257.812 99.6992 258.715 98.252 260.098 98.2578C261.381 98.252 262.254 99.4531 262.406 101.434H263.426V97.6367H264.668V107.527H263.426V102.488H262.418C262.295 104.557 261.41 105.822 260.098 105.816C258.715 105.822 257.812 104.369 257.812 102.031ZM259.02 102.031C259.014 103.689 259.424 104.58 260.098 104.574C260.801 104.58 261.217 103.689 261.223 102.031C261.217 100.379 260.801 99.4824 260.098 99.4883C259.424 99.4824 259.014 100.379 259.02 102.031ZM279.727 97.4492V102.852H278.438V97.4492H279.727ZM270.914 101.82C272.631 101.275 273.533 99.916 273.527 98.5273V97.707H274.875V98.5273C274.869 99.875 275.766 101.135 277.441 101.645L276.809 102.652C275.578 102.271 274.699 101.486 274.219 100.479C273.738 101.574 272.836 102.436 271.57 102.84L270.914 101.82ZM272.719 104.352V103.344H279.75V106.098H274.02V106.918H280.066V107.949H272.742V105.125H278.449V104.352H272.719ZM290.438 97.4492V108.043H289.184V102.664H288.129V107.504H286.898V97.6484H288.129V101.598H289.184V97.4492H290.438ZM281.18 104.469H282.164V99.7578H281.391V98.7031H286.289V99.7578H285.527V104.322C285.844 104.299 286.143 104.264 286.43 104.223L286.5 105.172C284.848 105.512 282.662 105.553 281.332 105.547L281.18 104.469ZM283.336 104.445C283.67 104.434 284.004 104.422 284.344 104.404V99.7578H283.336V104.445ZM300.023 97.4609V100.789H301.5V101.867H300.023V105.371H298.723V97.4609H300.023ZM291.68 99.6758V98.6328H294.176V97.4492H295.477V98.6328H297.961V99.6758H291.68ZM292.219 102.137C292.219 100.918 293.279 100.109 294.82 100.109C296.35 100.109 297.404 100.918 297.41 102.137C297.404 103.35 296.35 104.141 294.82 104.141C293.279 104.141 292.219 103.35 292.219 102.137ZM293.238 107.832V104.75H294.539V106.777H300.445V107.832H293.238ZM293.484 102.137C293.479 102.775 294.018 103.139 294.82 103.133C295.623 103.139 296.168 102.775 296.168 102.137C296.168 101.492 295.623 101.117 294.82 101.117C294.018 101.117 293.479 101.492 293.484 102.137ZM314.566 105.723V106.812H304.887V105.723H309.047V103.637H305.719V102.605H307.207V99.4414H305.684V98.3867H313.723V99.4414H312.176V102.605H313.688V103.637H310.336V105.723H314.566ZM308.508 102.605H310.887V99.4414H308.508V102.605ZM39.1758 115.461V123.113H37.8633V115.461H39.1758ZM30.5391 118.801C30.5391 117.26 31.7871 116.158 33.3984 116.152C35.0098 116.158 36.252 117.26 36.2461 118.801C36.252 120.365 35.0098 121.461 33.3984 121.461C31.7871 121.461 30.5391 120.365 30.5391 118.801ZM31.8164 118.801C31.8105 119.738 32.4902 120.324 33.3984 120.324C34.2832 120.324 34.9688 119.738 34.9688 118.801C34.9688 117.887 34.2832 117.289 33.3984 117.289C32.4902 117.289 31.8105 117.887 31.8164 118.801ZM32.168 125.832V122.34H33.4805V124.777H39.4688V125.832H32.168ZM49.3359 121.004V122.035H41.9062V116.281H49.2422V117.336H43.2305V118.613H48.9961V119.633H43.2305V121.004H49.3359ZM40.7227 124.754V123.688H50.4023V124.754H40.7227ZM59.6719 118.449V119.48H52.3359V115.836H53.625V118.449H59.6719ZM51.082 121.742V120.711H60.7617V121.742H51.082ZM52.2422 125.797V122.68H53.543V124.742H59.7422V125.797H52.2422ZM72.668 115.461V118.52H74.1445V119.598H72.668V123.254H71.3672V115.461H72.668ZM64.6758 121.531V116.211H65.9648V117.828H68.4375V116.211H69.7266V121.531H64.6758ZM65.8828 125.832V122.469H67.1836V124.777H73.0898V125.832H65.8828ZM65.9648 120.5H68.4375V118.836H65.9648V120.5ZM83.0742 115.449V119H84.5039V120.078H83.0742V123.723H81.7734V115.449H83.0742ZM74.5898 121.602C75.3809 121.602 76.3008 121.596 77.2617 121.566V120.893C76.084 120.746 75.334 120.166 75.3398 119.316C75.334 118.279 76.3594 117.664 77.8945 117.676C79.4355 117.664 80.4492 118.279 80.4492 119.316C80.4492 120.16 79.7227 120.734 78.5625 120.893V121.502C79.4648 121.449 80.373 121.367 81.2227 121.238L81.3281 122.152C79.084 122.574 76.5586 122.604 74.7305 122.621L74.5898 121.602ZM74.8594 117.324V116.375H77.2617V115.414H78.5625V116.375H80.9414V117.324H74.8594ZM76.1133 125.832V123.172H77.4141V124.777H83.4492V125.832H76.1133ZM76.5938 119.316C76.582 119.773 77.0742 120.043 77.8945 120.043C78.7148 120.043 79.207 119.773 79.207 119.316C79.207 118.818 78.7148 118.549 77.8945 118.555C77.0742 118.549 76.582 118.818 76.5938 119.316ZM91.3594 119.844V120.898H89.2148V122.744C90.1406 122.709 91.0664 122.645 91.9453 122.551L92.0508 123.512C89.7188 123.857 87.2637 123.881 85.2656 123.887L85.1016 122.809C85.9746 122.814 86.9297 122.809 87.9141 122.791V120.898H85.8398V116.422H91.3125V117.453H87.1289V119.844H91.3594ZM92.5781 126.055V115.449H93.8789V126.055H92.5781ZM99.4219 118.461C99.4219 120.195 100.441 122.023 102.152 122.738L101.438 123.77C100.184 123.225 99.2695 122.117 98.7832 120.77C98.2969 122.223 97.3652 123.441 96.1289 124.027L95.3789 123.008C97.0488 122.234 98.0918 120.26 98.0977 118.461V117.57H95.7656V116.492H101.742V117.57H99.4219V118.461ZM102.926 126.043V115.449H104.238V126.043H102.926ZM111.574 116C113.191 115.994 114.381 117.02 114.387 118.449C114.381 119.902 113.191 120.916 111.574 120.922C109.969 120.916 108.756 119.902 108.762 118.449C108.756 117.02 109.969 115.994 111.574 116ZM109.652 125.75V121.766H110.93V124.689C111.533 124.654 112.16 124.566 112.77 124.367L112.957 125.387C112.02 125.715 111.117 125.756 110.215 125.75H109.652ZM110.039 118.449C110.027 119.293 110.695 119.855 111.574 119.855C112.453 119.855 113.115 119.293 113.121 118.449C113.115 117.623 112.453 117.072 111.574 117.066C110.695 117.072 110.027 117.623 110.039 118.449ZM112.594 122.762V121.789H114.633V120.98H115.91V121.789H117.926V122.762H112.594ZM113.238 124.543C113.227 123.623 114.053 123.043 115.254 123.043C116.443 123.043 117.275 123.623 117.281 124.543C117.275 125.457 116.443 126.031 115.254 126.031C114.047 126.031 113.227 125.457 113.238 124.543ZM114.398 124.543C114.393 124.918 114.756 125.129 115.254 125.129C115.752 125.129 116.109 124.918 116.109 124.543C116.109 124.174 115.752 123.957 115.254 123.945C114.756 123.957 114.393 124.174 114.398 124.543ZM115.699 120.699V115.449H117V117.711H118.477V118.789H117V120.699H115.699ZM123.832 116.047C126.064 116.047 127.787 117.236 127.781 119.035C127.787 120.857 126.064 122.047 123.832 122.047C121.611 122.047 119.9 120.857 119.906 119.035C119.9 117.236 121.611 116.047 123.832 116.047ZM119.016 124.707V123.641H128.695V124.707H119.016ZM121.16 119.035C121.154 120.236 122.291 120.975 123.832 120.98C125.379 120.975 126.504 120.236 126.504 119.035C126.504 117.863 125.379 117.09 123.832 117.102C122.291 117.09 121.154 117.863 121.16 119.035ZM138.223 115.449V126.043H136.934V115.449H138.223ZM129.996 123.383V116.48H131.285V122.27C132.768 122.246 134.35 122.117 135.984 121.789L136.148 122.879C134.285 123.266 132.557 123.389 130.91 123.383H129.996ZM151.477 115.449V121.742H150.176V119.152H148.371V118.086H150.176V115.449H151.477ZM142.57 120.688C144.275 120.102 145.172 118.678 145.172 117.277V117.195H142.969V116.141H148.688V117.195H146.496V117.266C146.496 118.555 147.352 119.855 148.992 120.406L148.336 121.438C147.158 121.039 146.326 120.23 145.857 119.234C145.395 120.359 144.51 121.273 143.25 121.719L142.57 120.688ZM144.293 124.027C144.281 122.756 145.658 122.012 147.891 122.012C150.135 122.012 151.506 122.756 151.512 124.027C151.506 125.299 150.135 126.037 147.891 126.043C145.658 126.037 144.281 125.299 144.293 124.027ZM145.582 124.027C145.576 124.684 146.42 125.041 147.891 125.035C149.373 125.041 150.211 124.684 150.211 124.027C150.211 123.365 149.373 123.008 147.891 123.008C146.42 123.008 145.576 123.365 145.582 124.027ZM161.367 115.461V118.543H162.797V119.621H161.367V122.621H160.066V115.461H161.367ZM152.883 121.355C153.68 121.355 154.6 121.35 155.555 121.326V120.676C154.377 120.529 153.627 119.961 153.633 119.129C153.627 118.15 154.652 117.553 156.188 117.559C157.729 117.553 158.742 118.15 158.742 119.129C158.742 119.955 158.016 120.518 156.855 120.67V121.279C157.758 121.232 158.666 121.162 159.516 121.051L159.621 121.953C157.365 122.352 154.887 122.375 153.023 122.375L152.883 121.355ZM153.152 117.254V116.293H155.555V115.367H156.855V116.293H159.234V117.254H153.152ZM154.219 124.098V123.078H161.367V126.043H160.066V124.098H154.219ZM154.887 119.129C154.875 119.568 155.367 119.844 156.188 119.832C157.008 119.844 157.5 119.568 157.5 119.129C157.5 118.666 157.008 118.432 156.188 118.438C155.367 118.432 154.875 118.666 154.887 119.129ZM171.703 115.461V118.789H173.18V119.867H171.703V123.371H170.402V115.461H171.703ZM163.359 117.676V116.633H165.855V115.449H167.156V116.633H169.641V117.676H163.359ZM163.898 120.137C163.898 118.918 164.959 118.109 166.5 118.109C168.029 118.109 169.084 118.918 169.09 120.137C169.084 121.35 168.029 122.141 166.5 122.141C164.959 122.141 163.898 121.35 163.898 120.137ZM164.918 125.832V122.75H166.219V124.777H172.125V125.832H164.918ZM165.164 120.137C165.158 120.775 165.697 121.139 166.5 121.133C167.303 121.139 167.848 120.775 167.848 120.137C167.848 119.492 167.303 119.117 166.5 119.117C165.697 119.117 165.158 119.492 165.164 120.137ZM185.438 115.449V121.742H184.137V119.152H182.332V118.086H184.137V115.449H185.438ZM176.531 120.688C178.236 120.102 179.133 118.678 179.133 117.277V117.195H176.93V116.141H182.648V117.195H180.457V117.266C180.457 118.555 181.312 119.855 182.953 120.406L182.297 121.438C181.119 121.039 180.287 120.23 179.818 119.234C179.355 120.359 178.471 121.273 177.211 121.719L176.531 120.688ZM178.254 124.027C178.242 122.756 179.619 122.012 181.852 122.012C184.096 122.012 185.467 122.756 185.473 124.027C185.467 125.299 184.096 126.037 181.852 126.043C179.619 126.037 178.242 125.299 178.254 124.027ZM179.543 124.027C179.537 124.684 180.381 125.041 181.852 125.035C183.334 125.041 184.172 124.684 184.172 124.027C184.172 123.365 183.334 123.008 181.852 123.008C180.381 123.008 179.537 123.365 179.543 124.027ZM196.617 123.699V124.766H186.938V123.699H191.109V121.637H188.004V116.152H189.305V117.887H194.215V116.152H195.516V121.637H192.398V123.699H196.617ZM189.305 120.582H194.215V118.93H189.305V120.582ZM206.977 120.254V121.238H197.297V120.254H206.977ZM198.422 122.785V121.871H205.805V124.285H199.734V125.023H206.121V125.926H198.434V123.441H204.516V122.785H198.422ZM198.492 116.586V115.684H205.781V118.074H199.816V118.766H205.969V119.656H198.527V117.23H204.48V116.586H198.492ZM219.352 115.449V121.133H218.039V115.449H219.352ZM210.715 118.402C210.715 116.932 211.934 115.912 213.574 115.918C215.209 115.912 216.428 116.932 216.422 118.402C216.428 119.85 215.209 120.869 213.574 120.863C211.934 120.869 210.715 119.85 210.715 118.402ZM211.992 118.402C211.986 119.252 212.648 119.791 213.574 119.797C214.482 119.791 215.145 119.252 215.145 118.402C215.145 117.553 214.482 117.002 213.574 117.008C212.648 117.002 211.986 117.553 211.992 118.402ZM212.344 125.914V121.625H213.633V122.715H218.051V121.625H219.352V125.914H212.344ZM213.633 124.859H218.051V123.734H213.633V124.859ZM225.961 116.082V119.27H222.621V120.57C224.326 120.57 225.293 120.523 226.418 120.312L226.547 121.367C225.281 121.584 224.186 121.613 222.105 121.613H221.332V118.297H224.66V117.113H221.309V116.082H225.961ZM222.527 123.523V122.48H229.77V126.043H228.469V123.523H222.527ZM226.594 120.23V119.188H228.469V118.004H226.594V116.961H228.469V115.461H229.77V121.977H228.469V120.23H226.594ZM236.438 117.137V118.18H231.246V117.137H233.215V115.754H234.504V117.137H236.438ZM231.551 121.203C231.539 119.762 232.518 118.736 233.859 118.742C235.207 118.736 236.168 119.762 236.168 121.203C236.168 122.674 235.207 123.699 233.859 123.699C232.518 123.699 231.539 122.674 231.551 121.203ZM232.699 121.203C232.693 122.059 233.174 122.592 233.859 122.586C234.539 122.592 235.02 122.059 235.02 121.203C235.02 120.371 234.539 119.82 233.859 119.82C233.174 119.82 232.693 120.371 232.699 121.203ZM236.883 125.562V115.672H238.102V119.809H239.133V115.449H240.375V126.043H239.133V120.863H238.102V125.562H236.883ZM254.145 121.355V122.41H249.938V126.031H248.648V122.41H244.488V121.355H254.145ZM244.992 119.621C247.072 119.357 248.467 118.238 248.561 117.078H245.379V116.047H253.254V117.078H250.072C250.16 118.238 251.543 119.357 253.641 119.621L253.172 120.641C251.367 120.383 249.961 119.557 249.316 118.414C248.666 119.557 247.271 120.383 245.484 120.641L244.992 119.621ZM258.867 117.992C258.855 119.938 259.881 121.883 261.598 122.621L260.824 123.664C259.605 123.102 258.715 121.982 258.223 120.6C257.736 122.088 256.822 123.307 255.539 123.91L254.742 122.82C256.506 122.059 257.537 120.037 257.543 117.992V116.305H258.867V117.992ZM262.359 126.055V115.449H263.672V126.055H262.359ZM274.078 115.449V126.043H272.766V115.449H274.078ZM265.301 123.125C268.078 121.807 269.355 120.014 269.59 117.605H265.84V116.574H270.914C270.914 119.727 269.689 122.404 265.98 124.168L265.301 123.125ZM286.746 115.449V119.48H288.375V120.582H286.746V126.043H285.445V115.449H286.746ZM278.824 123.559V116.316H280.113V118.965H282.609V116.316H283.91V123.559H278.824ZM280.113 122.492H282.609V119.984H280.113V122.492ZM297.176 115.461V117.852H298.664V118.941H297.176V121.309H295.875V115.461H297.176ZM289.219 116.996V115.953H294.059V118.977H290.531V120.055C292.324 120.049 293.566 119.99 295.008 119.715L295.148 120.781C293.572 121.057 292.189 121.127 290.098 121.133H289.23V117.98H292.781V116.996H289.219ZM290.332 125.914V121.742H291.621V122.82H295.875V121.742H297.176V125.914H290.332ZM291.621 124.859H295.875V123.84H291.621V124.859ZM308.027 115.449V126.043H306.738V115.449H308.027ZM299.801 123.383V116.48H301.09V122.27C302.572 122.246 304.154 122.117 305.789 121.789L305.953 122.879C304.09 123.266 302.361 123.389 300.715 123.383H299.801ZM317.859 115.449V119.469H319.488V120.535H317.859V126.055H316.559V115.449H317.859ZM309.996 123.465V116.457H314.953V117.512H311.297V122.375C312.943 122.369 314.25 122.287 315.703 122.035L315.855 123.137C314.209 123.418 312.785 123.465 310.875 123.465H309.996ZM321.223 125.094C320.719 125.094 320.303 124.684 320.309 124.18C320.303 123.688 320.719 123.283 321.223 123.277C321.709 123.283 322.125 123.688 322.125 124.18C322.125 124.684 321.709 125.094 321.223 125.094Z" fill="#A4A7AF"/>
<path d="M20.9824 153.066C20.1738 153.072 19.5234 152.422 19.5293 151.613C19.5234 150.816 20.1738 150.166 20.9824 150.172C21.7793 150.166 22.4297 150.816 22.4238 151.613C22.4297 152.422 21.7793 153.072 20.9824 153.066ZM39.0352 146.422V147.5C39.0352 148.818 39.0352 150.236 38.6484 152.316L37.3711 152.188C37.7344 150.225 37.7344 148.783 37.7344 147.5V147.465H31.3242V146.422H39.0352ZM30.3516 154.672V153.605H32.5195V150.23H33.8203V153.605H35.168V150.23H36.4453V153.605H40.0078V154.672H30.3516ZM49.1133 145.449V149H50.543V150.078H49.1133V153.723H47.8125V145.449H49.1133ZM40.6289 151.602C41.4199 151.602 42.3398 151.596 43.3008 151.566V150.893C42.123 150.746 41.373 150.166 41.3789 149.316C41.373 148.279 42.3984 147.664 43.9336 147.676C45.4746 147.664 46.4883 148.279 46.4883 149.316C46.4883 150.16 45.7617 150.734 44.6016 150.893V151.502C45.5039 151.449 46.4121 151.367 47.2617 151.238L47.3672 152.152C45.123 152.574 42.5977 152.604 40.7695 152.621L40.6289 151.602ZM40.8984 147.324V146.375H43.3008V145.414H44.6016V146.375H46.9805V147.324H40.8984ZM42.1523 155.832V153.172H43.4531V154.777H49.4883V155.832H42.1523ZM42.6328 149.316C42.6211 149.773 43.1133 150.043 43.9336 150.043C44.7539 150.043 45.2461 149.773 45.2461 149.316C45.2461 148.818 44.7539 148.549 43.9336 148.555C43.1133 148.549 42.6211 148.818 42.6328 149.316ZM62.7656 145.461V153.195H61.4531V145.461H62.7656ZM53.9531 150.699C55.6699 150.096 56.5488 148.602 56.543 147.078V146.047H57.8906V147.078C57.8848 148.555 58.752 149.949 60.4336 150.512L59.7656 151.543C58.5586 151.121 57.6973 150.277 57.2285 149.193C56.7598 150.354 55.8809 151.279 54.6328 151.73L53.9531 150.699ZM55.7578 155.832V152.457H57.0703V154.777H63.0586V155.832H55.7578ZM68.1211 147.711C68.1152 148.871 69.0234 150.014 70.6875 150.465L70.0781 151.473C68.8594 151.139 67.9805 150.43 67.4941 149.51C67.0312 150.547 66.1523 151.367 64.8867 151.742L64.2773 150.734C65.9355 150.23 66.8203 148.988 66.8203 147.711V147.652H64.6055V146.621H66.8203V145.402H68.1328V146.621H70.3359V147.652H68.1211V147.711ZM66 154.039C65.9883 152.779 67.3711 152.07 69.5977 152.07C71.8359 152.07 73.2129 152.779 73.2188 154.039C73.2129 155.299 71.8359 156.031 69.5977 156.031C67.3711 156.031 65.9883 155.299 66 154.039ZM67.2891 154.039C67.2832 154.666 68.127 155.023 69.5977 155.023C71.0977 155.023 71.918 154.666 71.918 154.039C71.918 153.406 71.0977 153.072 69.5977 153.066C68.127 153.072 67.2832 153.406 67.2891 154.039ZM70.0195 149.41V148.355H71.8828V145.449H73.1836V151.859H71.8828V149.41H70.0195ZM86.6602 146.586V147.641H78.0117V146.586H81.7031V145.426H82.9922V146.586H86.6602ZM77.5312 153.359V152.293H87.2109V153.359H82.9922V156.055H81.7031V153.359H77.5312ZM78.7617 149.914C78.7617 148.754 80.1094 148.121 82.3477 148.121C84.5859 148.121 85.9336 148.754 85.9336 149.914C85.9336 151.068 84.5859 151.707 82.3477 151.707C80.1094 151.707 78.7617 151.068 78.7617 149.914ZM80.1211 149.914C80.1152 150.459 80.8828 150.74 82.3477 150.734C83.8066 150.74 84.5801 150.459 84.5859 149.914C84.5801 149.375 83.8066 149.094 82.3477 149.094C80.8828 149.094 80.1152 149.375 80.1211 149.914ZM89.9648 154.168L88.9805 157.449H87.8672L88.4766 154.168H89.9648ZM102.492 146.422V147.5C102.492 148.818 102.492 150.236 102.105 152.316L100.828 152.188C101.191 150.225 101.191 148.783 101.191 147.5V147.465H94.7812V146.422H102.492ZM93.8086 154.672V153.605H95.9766V150.23H97.2773V153.605H98.625V150.23H99.9023V153.605H103.465V154.672H93.8086ZM112.57 145.449V149H114V150.078H112.57V153.723H111.27V145.449H112.57ZM104.086 151.602C104.877 151.602 105.797 151.596 106.758 151.566V150.893C105.58 150.746 104.83 150.166 104.836 149.316C104.83 148.279 105.855 147.664 107.391 147.676C108.932 147.664 109.945 148.279 109.945 149.316C109.945 150.16 109.219 150.734 108.059 150.893V151.502C108.961 151.449 109.869 151.367 110.719 151.238L110.824 152.152C108.58 152.574 106.055 152.604 104.227 152.621L104.086 151.602ZM104.355 147.324V146.375H106.758V145.414H108.059V146.375H110.438V147.324H104.355ZM105.609 155.832V153.172H106.91V154.777H112.945V155.832H105.609ZM106.09 149.316C106.078 149.773 106.57 150.043 107.391 150.043C108.211 150.043 108.703 149.773 108.703 149.316C108.703 148.818 108.211 148.549 107.391 148.555C106.57 148.549 106.078 148.818 106.09 149.316ZM120.598 145.906C122.145 145.906 123.246 146.768 123.258 148.039C123.246 149.094 122.455 149.885 121.277 150.102V150.957C122.162 150.904 123.047 150.828 123.867 150.711L123.973 151.66C121.77 152.053 119.309 152.1 117.516 152.094L117.375 151.051C118.137 151.051 119.027 151.045 119.965 151.016V150.107C118.752 149.902 117.943 149.111 117.949 148.039C117.943 146.768 119.045 145.906 120.598 145.906ZM118.828 155.82V152.832H120.129V154.766H126.164V155.82H118.828ZM119.168 148.039C119.156 148.736 119.754 149.17 120.598 149.176C121.447 149.17 122.021 148.736 122.027 148.039C122.021 147.324 121.447 146.902 120.598 146.902C119.754 146.902 119.156 147.324 119.168 148.039ZM124.488 153.547V145.461H125.789V148.883H127.219V149.961H125.789V153.547H124.488ZM137.449 153.734V154.812H127.77V153.734H130.336V151.988H128.918V148.531H135.012V147.23H128.895V146.176H136.301V149.574H130.219V150.934H136.547V151.988H135V153.734H137.449ZM131.602 153.734H133.723V151.988H131.602V153.734ZM144.445 149.844V150.898H142.301V152.744C143.227 152.709 144.152 152.645 145.031 152.551L145.137 153.512C142.805 153.857 140.35 153.881 138.352 153.887L138.188 152.809C139.061 152.814 140.016 152.809 141 152.791V150.898H138.926V146.422H144.398V147.453H140.215V149.844H144.445ZM145.664 156.055V145.449H146.965V156.055H145.664ZM157.359 145.449V156.043H156.047V145.449H157.359ZM148.582 153.125C151.359 151.807 152.637 150.014 152.871 147.605H149.121V146.574H154.195C154.195 149.727 152.971 152.404 149.262 154.168L148.582 153.125ZM170.602 145.461V153.195H169.301V149.316H167.426V148.262H169.301V145.461H170.602ZM161.707 150.91C163.395 150.354 164.297 148.971 164.297 147.559V147.277H162.094V146.223H167.812V147.277H165.621V147.57C165.621 148.842 166.477 150.16 168.117 150.699L167.461 151.742C166.277 151.338 165.439 150.529 164.977 149.527C164.514 150.641 163.629 151.531 162.375 151.965L161.707 150.91ZM163.652 155.832V152.516H164.953V154.777H170.871V155.832H163.652ZM181.242 145.449V156.043H179.988V145.449H181.242ZM172.207 150.031C172.207 147.699 173.109 146.252 174.492 146.258C175.775 146.252 176.648 147.453 176.801 149.434H177.82V145.637H179.062V155.527H177.82V150.488H176.812C176.689 152.557 175.805 153.822 174.492 153.816C173.109 153.822 172.207 152.369 172.207 150.031ZM173.414 150.031C173.408 151.689 173.818 152.58 174.492 152.574C175.195 152.58 175.611 151.689 175.617 150.031C175.611 148.379 175.195 147.482 174.492 147.488C173.818 147.482 173.408 148.379 173.414 150.031ZM190.711 145.906V146.949H187.055V147.77H190.5V148.754H187.055V149.645C188.936 149.645 190.049 149.604 191.379 149.41L191.496 150.418C190.043 150.652 188.801 150.688 186.598 150.688H185.754V145.906H190.711ZM186.75 152.398V151.379H193.676V154.098H188.051V154.941H194.004V155.949H186.762V153.148H192.375V152.398H186.75ZM192.375 150.922V145.449H193.676V147.617H195.152V148.672H193.676V150.922H192.375ZM202.055 150.395V151.426H199.863V152.891C200.783 152.838 201.709 152.756 202.582 152.633L202.688 153.57C200.314 154.033 197.771 154.033 195.902 154.051L195.738 152.984C196.564 152.984 197.537 152.979 198.562 152.943V151.426H196.512V146.352H202.02V147.395H197.824V148.379H201.809V149.387H197.824V150.395H202.055ZM203.215 156.055V145.449H204.516V156.055H203.215ZM214.359 145.449V149.668H215.988V150.746H214.359V156.043H213.07V145.449H214.359ZM206.004 148.121V147.078H208.512V145.602H209.812V147.078H212.25V148.121H206.004ZM206.496 151.309C206.484 149.844 207.621 148.807 209.168 148.812C210.691 148.807 211.822 149.844 211.828 151.309C211.822 152.768 210.691 153.793 209.168 153.793C207.621 153.793 206.484 152.768 206.496 151.309ZM207.738 151.309C207.732 152.17 208.336 152.721 209.168 152.715C209.982 152.721 210.574 152.17 210.586 151.309C210.574 150.447 209.982 149.879 209.168 149.879C208.336 149.879 207.732 150.447 207.738 151.309ZM225.305 145.449V156.043H224.004V150.652H221.766V149.586H224.004V145.449H225.305ZM216.363 153.113C219.105 151.766 220.283 149.979 220.5 147.605H216.855V146.574H221.812C221.801 149.703 220.693 152.334 217.043 154.133L216.363 153.113ZM236.672 149.539V150.605H235.102V156.02H233.801V145.449H235.102V149.539H236.672ZM227.18 153.406V146.48H228.469V152.328C229.881 152.305 231.381 152.182 232.98 151.848L233.121 152.949C231.334 153.307 229.641 153.4 228.07 153.406H227.18ZM245.414 145.906V146.949H241.758V147.77H245.203V148.754H241.758V149.645C243.639 149.645 244.752 149.604 246.082 149.41L246.199 150.418C244.746 150.652 243.504 150.688 241.301 150.688H240.457V145.906H245.414ZM241.453 152.398V151.379H248.379V154.098H242.754V154.941H248.707V155.949H241.465V153.148H247.078V152.398H241.453ZM247.078 150.922V145.449H248.379V147.617H249.855V148.672H248.379V150.922H247.078ZM256.758 150.395V151.426H254.566V152.891C255.486 152.838 256.412 152.756 257.285 152.633L257.391 153.57C255.018 154.033 252.475 154.033 250.605 154.051L250.441 152.984C251.268 152.984 252.24 152.979 253.266 152.943V151.426H251.215V146.352H256.723V147.395H252.527V148.379H256.512V149.387H252.527V150.395H256.758ZM257.918 156.055V145.449H259.219V156.055H257.918ZM266.93 148.777V149.82H264.961V151.021C265.846 150.986 266.725 150.928 267.551 150.84L267.645 151.777C265.395 152.088 262.963 152.146 260.988 152.152L260.812 151.109C261.686 151.104 262.652 151.098 263.648 151.068V149.82H261.727V146.105H266.848V147.16H263.039V148.777H266.93ZM262.5 155.832V152.82H263.812V154.777H269.906V155.832H262.5ZM268.289 153.406V145.449H269.602V153.406H268.289ZM282.855 145.461V151.648H281.555V150.477H279.035V149.422H281.555V148.285H279.135C278.467 149.967 276.92 151.145 274.617 151.789L274.09 150.758C276.568 150.09 277.893 148.83 278.092 147.254H274.652V146.199H279.516C279.516 146.568 279.486 146.92 279.428 147.254H281.555V145.461H282.855ZM275.754 153.875C275.754 152.574 277.178 151.771 279.352 151.766C281.496 151.771 282.926 152.574 282.926 153.875C282.926 155.176 281.496 155.99 279.352 155.984C277.178 155.99 275.754 155.176 275.754 153.875ZM277.055 153.875C277.055 154.572 277.928 154.953 279.352 154.953C280.752 154.953 281.619 154.572 281.625 153.875C281.619 153.166 280.752 152.785 279.352 152.785C277.928 152.785 277.055 153.166 277.055 153.875ZM294.023 151.414V152.492H289.805V156.043H288.516V152.492H284.344V151.414H294.023ZM285.363 148.203C285.357 146.75 286.904 145.83 289.16 145.824C291.416 145.83 292.975 146.75 292.98 148.203C292.975 149.639 291.416 150.553 289.16 150.547C286.904 150.553 285.357 149.639 285.363 148.203ZM286.699 148.203C286.693 149.029 287.666 149.516 289.16 149.516C290.66 149.516 291.633 149.029 291.633 148.203C291.633 147.371 290.66 146.879 289.16 146.879C287.666 146.879 286.693 147.371 286.699 148.203ZM296.789 154.168L295.805 157.449H294.691L295.301 154.168H296.789ZM310.312 153.723V154.812H300.633V153.723H304.793V151.637H301.465V150.605H302.953V147.441H301.43V146.387H309.469V147.441H307.922V150.605H309.434V151.637H306.082V153.723H310.312ZM304.254 150.605H306.633V147.441H304.254V150.605ZM319.828 145.461V153.113H318.516V145.461H319.828ZM311.191 148.801C311.191 147.26 312.439 146.158 314.051 146.152C315.662 146.158 316.904 147.26 316.898 148.801C316.904 150.365 315.662 151.461 314.051 151.461C312.439 151.461 311.191 150.365 311.191 148.801ZM312.469 148.801C312.463 149.738 313.143 150.324 314.051 150.324C314.936 150.324 315.621 149.738 315.621 148.801C315.621 147.887 314.936 147.289 314.051 147.289C313.143 147.289 312.463 147.887 312.469 148.801ZM312.82 155.832V152.34H314.133V154.777H320.121V155.832H312.82ZM38.9648 169.004V170.035H31.5352V164.281H38.8711V165.336H32.8594V166.613H38.625V167.633H32.8594V169.004H38.9648ZM30.3516 172.754V171.688H40.0312V172.754H30.3516ZM49.3008 166.449V167.48H41.9648V163.836H43.2539V166.449H49.3008ZM40.7109 169.742V168.711H50.3906V169.742H40.7109ZM41.8711 173.797V170.68H43.1719V172.742H49.3711V173.797H41.8711ZM62.625 164.422V165.5C62.625 166.818 62.625 168.236 62.2383 170.316L60.9609 170.188C61.3242 168.225 61.3242 166.783 61.3242 165.5V165.465H54.9141V164.422H62.625ZM53.9414 172.672V171.605H56.1094V168.23H57.4102V171.605H58.7578V168.23H60.0352V171.605H63.5977V172.672H53.9414ZM72.7031 163.449V167H74.1328V168.078H72.7031V171.723H71.4023V163.449H72.7031ZM64.2188 169.602C65.0098 169.602 65.9297 169.596 66.8906 169.566V168.893C65.7129 168.746 64.9629 168.166 64.9688 167.316C64.9629 166.279 65.9883 165.664 67.5234 165.676C69.0645 165.664 70.0781 166.279 70.0781 167.316C70.0781 168.16 69.3516 168.734 68.1914 168.893V169.502C69.0938 169.449 70.002 169.367 70.8516 169.238L70.957 170.152C68.7129 170.574 66.1875 170.604 64.3594 170.621L64.2188 169.602ZM64.4883 165.324V164.375H66.8906V163.414H68.1914V164.375H70.5703V165.324H64.4883ZM65.7422 173.832V171.172H67.043V172.777H73.0781V173.832H65.7422ZM66.2227 167.316C66.2109 167.773 66.7031 168.043 67.5234 168.043C68.3438 168.043 68.8359 167.773 68.8359 167.316C68.8359 166.818 68.3438 166.549 67.5234 166.555C66.7031 166.549 66.2109 166.818 66.2227 167.316ZM80.9883 167.844V168.898H78.8438V170.744C79.7695 170.709 80.6953 170.645 81.5742 170.551L81.6797 171.512C79.3477 171.857 76.8926 171.881 74.8945 171.887L74.7305 170.809C75.6035 170.814 76.5586 170.809 77.543 170.791V168.898H75.4688V164.422H80.9414V165.453H76.7578V167.844H80.9883ZM82.207 174.055V163.449H83.5078V174.055H82.207ZM89.0508 166.461C89.0508 168.195 90.0703 170.023 91.7812 170.738L91.0664 171.77C89.8125 171.225 88.8984 170.117 88.4121 168.77C87.9258 170.223 86.9941 171.441 85.7578 172.027L85.0078 171.008C86.6777 170.234 87.7207 168.26 87.7266 166.461V165.57H85.3945V164.492H91.3711V165.57H89.0508V166.461ZM92.5547 174.043V163.449H93.8672V174.043H92.5547ZM106.699 163.883V167.504H103.746V168.547H107.93V169.602H98.2734V168.547H102.457V167.504H99.4922V163.883H106.699ZM98.9531 172.965C101.133 172.684 102.428 171.629 102.434 170.41V170.141H103.746V170.41C103.746 171.629 105.041 172.684 107.238 172.965L106.758 173.973C105.053 173.727 103.746 173.029 103.09 172.01C102.434 173.029 101.127 173.727 99.4219 173.973L98.9531 172.965ZM100.758 166.473H105.41V164.902H100.758V166.473ZM116.941 163.449V167.668H118.57V168.746H116.941V174.043H115.652V163.449H116.941ZM108.586 166.121V165.078H111.094V163.602H112.395V165.078H114.832V166.121H108.586ZM109.078 169.309C109.066 167.844 110.203 166.807 111.75 166.812C113.273 166.807 114.404 167.844 114.41 169.309C114.404 170.768 113.273 171.793 111.75 171.793C110.203 171.793 109.066 170.768 109.078 169.309ZM110.32 169.309C110.314 170.17 110.918 170.721 111.75 170.715C112.564 170.721 113.156 170.17 113.168 169.309C113.156 168.447 112.564 167.879 111.75 167.879C110.918 167.879 110.314 168.447 110.32 169.309ZM127.664 164.422V165.441C127.652 166.76 127.652 168.23 127.242 170.445L125.93 170.305C126.346 168.242 126.346 166.736 126.352 165.465H120.023V164.422H127.664ZM119.016 172.672V171.605H122.578V167.926H123.867V171.605H128.672V172.672H119.016ZM141.914 171.676V172.73H132.234V171.676H136.383V169.227H137.672V171.676H141.914ZM132.516 168.406C134.73 168.049 136.318 166.461 136.324 164.867V164.094H137.707V164.867C137.707 166.467 139.307 168.049 141.539 168.406L140.977 169.484C139.189 169.145 137.719 168.119 137.016 166.73C136.318 168.113 134.865 169.15 133.078 169.484L132.516 168.406ZM148.078 163.965V164.738H150.176V163.449H151.477V168.805H150.176V167.656H148.078V168.395H143.062V163.965H148.078ZM144.352 167.363H146.789V164.996H144.352V167.363ZM144.492 170.293V169.285H151.477V172.027H145.805V172.883H151.816V173.914H144.504V171.066H150.176V170.293H144.492ZM148.078 166.648H150.176V165.723H148.078V166.648ZM161.824 163.461V169.566H160.512V163.461H161.824ZM153 168.371C153.85 168.371 154.828 168.365 155.848 168.336V167.398H153.914V163.953H159.012V164.996H155.227V166.379H159.094V167.398H157.148V168.289C158.039 168.242 158.936 168.172 159.773 168.066L159.844 168.969C157.576 169.361 155.062 169.391 153.176 169.414L153 168.371ZM154.688 173.914V170.012H155.988V170.938H160.535V170.012H161.824V173.914H154.688ZM155.988 172.859H160.535V171.91H155.988V172.859ZM172.184 163.449V174.043H170.895V163.449H172.184ZM163.957 171.383V164.48H165.246V170.27C166.729 170.246 168.311 170.117 169.945 169.789L170.109 170.879C168.246 171.266 166.518 171.389 164.871 171.383H163.957ZM182.016 163.449V167.469H183.645V168.535H182.016V174.055H180.715V163.449H182.016ZM174.152 171.465V164.457H179.109V165.512H175.453V170.375C177.1 170.369 178.406 170.287 179.859 170.035L180.012 171.137C178.365 171.418 176.941 171.465 175.031 171.465H174.152ZM185.379 173.094C184.875 173.094 184.459 172.684 184.465 172.18C184.459 171.688 184.875 171.283 185.379 171.277C185.865 171.283 186.281 171.688 186.281 172.18C186.281 172.684 185.865 173.094 185.379 173.094Z" fill="#A4A7AF"/>
<path d="M20.9824 201.066C20.1738 201.072 19.5234 200.422 19.5293 199.613C19.5234 198.816 20.1738 198.166 20.9824 198.172C21.7793 198.166 22.4297 198.816 22.4238 199.613C22.4297 200.422 21.7793 201.072 20.9824 201.066ZM40.0312 201.723V202.812H30.3516V201.723H34.5117V199.637H31.1836V198.605H32.6719V195.441H31.1484V194.387H39.1875V195.441H37.6406V198.605H39.1523V199.637H35.8008V201.723H40.0312ZM33.9727 198.605H36.3516V195.441H33.9727V198.605ZM49.5469 193.461V201.113H48.2344V193.461H49.5469ZM40.9102 196.801C40.9102 195.26 42.1582 194.158 43.7695 194.152C45.3809 194.158 46.623 195.26 46.6172 196.801C46.623 198.365 45.3809 199.461 43.7695 199.461C42.1582 199.461 40.9102 198.365 40.9102 196.801ZM42.1875 196.801C42.1816 197.738 42.8613 198.324 43.7695 198.324C44.6543 198.324 45.3398 197.738 45.3398 196.801C45.3398 195.887 44.6543 195.289 43.7695 195.289C42.8613 195.289 42.1816 195.887 42.1875 196.801ZM42.5391 203.832V200.34H43.8516V202.777H49.8398V203.832H42.5391ZM59.707 199.004V200.035H52.2773V194.281H59.6133V195.336H53.6016V196.613H59.3672V197.633H53.6016V199.004H59.707ZM51.0938 202.754V201.688H60.7734V202.754H51.0938ZM72.9961 194.422V195.5C72.9961 196.818 72.9961 198.236 72.6094 200.316L71.332 200.188C71.6953 198.225 71.6953 196.783 71.6953 195.5V195.465H65.2852V194.422H72.9961ZM64.3125 202.672V201.605H66.4805V198.23H67.7812V201.605H69.1289V198.23H70.4062V201.605H73.9688V202.672H64.3125ZM83.0742 193.449V197H84.5039V198.078H83.0742V201.723H81.7734V193.449H83.0742ZM74.5898 199.602C75.3809 199.602 76.3008 199.596 77.2617 199.566V198.893C76.084 198.746 75.334 198.166 75.3398 197.316C75.334 196.279 76.3594 195.664 77.8945 195.676C79.4355 195.664 80.4492 196.279 80.4492 197.316C80.4492 198.16 79.7227 198.734 78.5625 198.893V199.502C79.4648 199.449 80.373 199.367 81.2227 199.238L81.3281 200.152C79.084 200.574 76.5586 200.604 74.7305 200.621L74.5898 199.602ZM74.8594 195.324V194.375H77.2617V193.414H78.5625V194.375H80.9414V195.324H74.8594ZM76.1133 203.832V201.172H77.4141V202.777H83.4492V203.832H76.1133ZM76.5938 197.316C76.582 197.773 77.0742 198.043 77.8945 198.043C78.7148 198.043 79.207 197.773 79.207 197.316C79.207 196.818 78.7148 196.549 77.8945 196.555C77.0742 196.549 76.582 196.818 76.5938 197.316ZM96.7266 193.461V201.195H95.4141V193.461H96.7266ZM87.9141 198.699C89.6309 198.096 90.5098 196.602 90.5039 195.078V194.047H91.8516V195.078C91.8457 196.555 92.7129 197.949 94.3945 198.512L93.7266 199.543C92.5195 199.121 91.6582 198.277 91.1895 197.193C90.7207 198.354 89.8418 199.279 88.5938 199.73L87.9141 198.699ZM89.7188 203.832V200.457H91.0312V202.777H97.0195V203.832H89.7188ZM102.082 195.711C102.076 196.871 102.984 198.014 104.648 198.465L104.039 199.473C102.82 199.139 101.941 198.43 101.455 197.51C100.992 198.547 100.113 199.367 98.8477 199.742L98.2383 198.734C99.8965 198.23 100.781 196.988 100.781 195.711V195.652H98.5664V194.621H100.781V193.402H102.094V194.621H104.297V195.652H102.082V195.711ZM99.9609 202.039C99.9492 200.779 101.332 200.07 103.559 200.07C105.797 200.07 107.174 200.779 107.18 202.039C107.174 203.299 105.797 204.031 103.559 204.031C101.332 204.031 99.9492 203.299 99.9609 202.039ZM101.25 202.039C101.244 202.666 102.088 203.023 103.559 203.023C105.059 203.023 105.879 202.666 105.879 202.039C105.879 201.406 105.059 201.072 103.559 201.066C102.088 201.072 101.244 201.406 101.25 202.039ZM103.98 197.41V196.355H105.844V193.449H107.145V199.859H105.844V197.41H103.98ZM120.621 194.586V195.641H111.973V194.586H115.664V193.426H116.953V194.586H120.621ZM111.492 201.359V200.293H121.172V201.359H116.953V204.055H115.664V201.359H111.492ZM112.723 197.914C112.723 196.754 114.07 196.121 116.309 196.121C118.547 196.121 119.895 196.754 119.895 197.914C119.895 199.068 118.547 199.707 116.309 199.707C114.07 199.707 112.723 199.068 112.723 197.914ZM114.082 197.914C114.076 198.459 114.844 198.74 116.309 198.734C117.768 198.74 118.541 198.459 118.547 197.914C118.541 197.375 117.768 197.094 116.309 197.094C114.844 197.094 114.076 197.375 114.082 197.914ZM133.582 193.461V201.277H132.281V198.617H130.148V199.555H125.191V194.152H126.492V195.863H128.859V194.152H130.148V195.289H132.281V193.461H133.582ZM126.492 198.523H128.859V196.871H126.492V198.523ZM126.598 203.832V200.504H127.922V202.777H133.816V203.832H126.598ZM130.148 197.562H132.281V196.344H130.148V197.562ZM143.953 193.461V199.648H142.652V198.477H140.133V197.422H142.652V196.285H140.232C139.564 197.967 138.018 199.145 135.715 199.789L135.188 198.758C137.666 198.09 138.99 196.83 139.189 195.254H135.75V194.199H140.613C140.613 194.568 140.584 194.92 140.525 195.254H142.652V193.461H143.953ZM136.852 201.875C136.852 200.574 138.275 199.771 140.449 199.766C142.594 199.771 144.023 200.574 144.023 201.875C144.023 203.176 142.594 203.99 140.449 203.984C138.275 203.99 136.852 203.176 136.852 201.875ZM138.152 201.875C138.152 202.572 139.025 202.953 140.449 202.953C141.85 202.953 142.717 202.572 142.723 201.875C142.717 201.166 141.85 200.785 140.449 200.785C139.025 200.785 138.152 201.166 138.152 201.875ZM157.266 198.125V199.168H153.434V194.375H157.172V195.418H154.746V198.125H157.266ZM148.301 202.754V201.699H152.461V199.648H153.75V201.699H157.98V202.754H148.301ZM149.074 199.168V194.375H152.777V195.43H150.375V198.096C151.236 198.078 152.004 198.014 152.859 197.832L152.953 198.91C151.857 199.145 150.92 199.168 149.73 199.168H149.074ZM167.25 196.449V197.48H159.914V193.836H161.203V196.449H167.25ZM158.66 199.742V198.711H168.34V199.742H158.66ZM159.82 203.797V200.68H161.121V202.742H167.32V203.797H159.82ZM178.254 194.562V195.582H176.062C176.086 196.502 176.924 197.316 178.488 197.621L177.973 198.629C176.76 198.377 175.904 197.809 175.436 197.047C174.973 197.879 174.094 198.506 172.852 198.77L172.301 197.762C173.889 197.445 174.732 196.555 174.75 195.582H172.57V194.562H174.762V193.473H176.062V194.562H178.254ZM171.902 199.32C173.877 199.326 176.508 199.309 178.77 199.027L178.863 199.965C177.949 200.123 177 200.223 176.074 200.287V203.715H174.762V200.357C173.795 200.393 172.875 200.398 172.066 200.398L171.902 199.32ZM179.461 204.031V193.461H180.75V204.031H179.461ZM191.941 201.676V202.73H182.262V201.676H186.41V199.227H187.699V201.676H191.941ZM182.543 198.406C184.758 198.049 186.346 196.461 186.352 194.867V194.094H187.734V194.867C187.734 196.467 189.334 198.049 191.566 198.406L191.004 199.484C189.217 199.145 187.746 198.119 187.043 196.73C186.346 198.113 184.893 199.15 183.105 199.484L182.543 198.406ZM200.93 193.449V197.586H202.5V198.676H200.93V204.02H199.629V193.449H200.93ZM192.574 201.125C195.152 199.836 196.547 198.043 196.805 195.629H193.148V194.551H198.129C198.123 197.662 196.834 200.398 193.312 202.133L192.574 201.125ZM208.395 193.613V194.445H212.965V193.613H214.254V197.141H207.105V193.613H208.395ZM205.852 198.863V197.797H215.508V198.863H211.312V199.648H214.301V202.215H208.277V202.953H214.594V203.949H207V201.301H213.023V200.609H206.988V199.648H210.012V198.863H205.852ZM208.395 196.168H212.965V195.395H208.395V196.168ZM224.52 193.449V197.586H226.09V198.676H224.52V204.02H223.219V193.449H224.52ZM216.164 201.125C218.742 199.836 220.137 198.043 220.395 195.629H216.738V194.551H221.719C221.713 197.662 220.424 200.398 216.902 202.133L216.164 201.125ZM235.16 196.203V197.258H227.848V193.637H229.148V196.203H235.16ZM226.594 199.332V198.277H236.262V199.332H226.594ZM227.719 202.051C227.719 200.803 229.107 200.1 231.41 200.094C233.695 200.1 235.072 200.803 235.078 202.051C235.072 203.293 233.695 203.996 231.41 203.996C229.107 203.996 227.719 203.293 227.719 202.051ZM229.043 202.051C229.037 202.66 229.869 202.994 231.41 203C232.928 202.994 233.766 202.66 233.777 202.051C233.766 201.424 232.928 201.119 231.41 201.113C229.869 201.119 229.037 201.424 229.043 202.051ZM245.32 193.449V196.062H246.797V197.141H245.32V199.637H244.02V193.449H245.32ZM236.977 195.477V194.434H239.473V193.367H240.773V194.434H243.258V195.477H236.977ZM237.516 197.703C237.516 196.578 238.57 195.84 240.117 195.84C241.646 195.84 242.701 196.578 242.707 197.703C242.701 198.828 241.646 199.572 240.117 199.566C238.57 199.572 237.516 198.828 237.516 197.703ZM238.477 203.914V200.059H239.766V200.973H244.02V200.059H245.32V203.914H238.477ZM238.781 197.703C238.775 198.277 239.314 198.605 240.117 198.605C240.92 198.605 241.465 198.277 241.465 197.703C241.465 197.146 240.92 196.801 240.117 196.801C239.314 196.801 238.775 197.146 238.781 197.703ZM239.766 202.883H244.02V201.98H239.766V202.883ZM256.172 193.449V204.043H254.883V193.449H256.172ZM247.945 201.383V194.48H249.234V200.27C250.717 200.246 252.299 200.117 253.934 199.789L254.098 200.879C252.234 201.266 250.506 201.389 248.859 201.383H247.945ZM266.004 193.449V197.469H267.633V198.535H266.004V204.055H264.703V193.449H266.004ZM258.141 201.465V194.457H263.098V195.512H259.441V200.375C261.088 200.369 262.395 200.287 263.848 200.035L264 201.137C262.354 201.418 260.93 201.465 259.02 201.465H258.141ZM269.367 203.094C268.863 203.094 268.447 202.684 268.453 202.18C268.447 201.688 268.863 201.283 269.367 201.277C269.854 201.283 270.27 201.688 270.27 202.18C270.27 202.684 269.854 203.094 269.367 203.094Z" fill="#A4A7AF"/>
</svg>
