<svg width="24" height="24" viewBox="0 0 24 24" fill="none" xmlns="http://www.w3.org/2000/svg">
    <path d="M3 9.38734V19.2632C3.00055 19.7236 3.18371 20.1651 3.50931 20.4907C3.83492 20.8163 4.27637 20.9995 4.73684 21H14.6124C15.0728 20.9994 15.5143 20.8163 15.8399 20.4907C16.1655 20.1651 16.3486 19.7236 16.3492 19.2632V9.38734C16.3486 8.92687 16.1655 8.48543 15.8399 8.15984C15.5143 7.83424 15.0728 7.65107 14.6124 7.6505H4.73684C4.27637 7.65104 3.83492 7.83421 3.50931 8.15981C3.18371 8.48541 3.00055 8.92687 3 9.38734ZM15 9.78947V18.898C14.9998 19.1073 14.9166 19.308 14.7686 19.4561C14.6205 19.6041 14.4198 19.6873 14.2105 19.6875H5.13068C4.92137 19.6873 4.72069 19.604 4.57268 19.456C4.42468 19.308 4.34143 19.1073 4.34121 18.898V9.78947C4.34143 9.58016 4.42468 9.37948 4.57268 9.23147C4.72069 9.08347 4.92137 9.00022 5.13068 9H14.2105C14.4198 9.00019 14.6205 9.08343 14.7686 9.23145C14.9166 9.37946 14.9998 9.58015 15 9.78947ZM8.598 5.79893V5.02364C8.59838 4.73826 8.71194 4.46468 8.91376 4.26291C9.11559 4.06115 9.3892 3.94767 9.67458 3.94737H10.8374C10.9618 3.94555 11.0805 3.89485 11.1679 3.80621C11.2552 3.71757 11.3042 3.59813 11.3042 3.47368C11.3042 3.34924 11.2552 3.22979 11.1679 3.14116C11.0805 3.05252 10.9618 3.00182 10.8374 3H9.6746C9.13804 3.00057 8.62361 3.21394 8.24418 3.59332C7.86474 3.97269 7.65128 4.48708 7.65063 5.02364V5.79893C7.65063 5.92456 7.70054 6.04504 7.78937 6.13388C7.8782 6.22271 7.99869 6.27261 8.12432 6.27261C8.24994 6.27261 8.37043 6.22271 8.45926 6.13388C8.54809 6.04504 8.598 5.92456 8.598 5.79893ZM20.5263 12.6889C20.4007 12.689 20.2802 12.7389 20.1914 12.8277C20.1026 12.9165 20.0527 13.037 20.0526 13.1626V14.3252C20.0523 14.6107 19.9388 14.8843 19.737 15.0862C19.5351 15.288 19.2615 15.4015 18.976 15.4018H18.2011C18.0754 15.4018 17.955 15.4517 17.8661 15.5406C17.7773 15.6294 17.7274 15.7499 17.7274 15.8755C17.7274 16.0011 17.7773 16.1216 17.8661 16.2105C17.955 16.2993 18.0754 16.3492 18.2011 16.3492H18.976C19.5127 16.3486 20.0271 16.1352 20.4065 15.7557C20.786 15.3763 20.9994 14.8618 21 14.3252V13.1626C21 13.037 20.9501 12.9165 20.8612 12.8277C20.7724 12.7389 20.6519 12.689 20.5263 12.6889ZM18.976 3H17.8134C17.689 3.00176 17.5702 3.05245 17.4828 3.14109C17.3954 3.22973 17.3464 3.34921 17.3464 3.47369C17.3464 3.59817 17.3954 3.71765 17.4828 3.80629C17.5702 3.89493 17.689 3.94561 17.8134 3.94737H18.976C19.2614 3.94767 19.535 4.06115 19.7369 4.26291C19.9387 4.46468 20.0522 4.73826 20.0526 5.02364V6.18657C20.0526 6.3122 20.1025 6.43269 20.1914 6.52152C20.2802 6.61035 20.4007 6.66026 20.5263 6.66026C20.6519 6.66026 20.7724 6.61035 20.8613 6.52152C20.9501 6.43269 21 6.3122 21 6.18657V5.02364C20.9993 4.48709 20.7859 3.9727 20.4065 3.59332C20.027 3.21395 19.5126 3.00057 18.976 3ZM15.4882 3.94737C15.6126 3.94555 15.7313 3.89484 15.8187 3.8062C15.906 3.71757 15.955 3.59812 15.955 3.47367C15.955 3.34923 15.906 3.22979 15.8187 3.14115C15.7313 3.05252 15.6126 3.00181 15.4882 3H13.1626C13.0382 3.00182 12.9195 3.05253 12.8321 3.14116C12.7448 3.2298 12.6958 3.34925 12.6958 3.47369C12.6958 3.59814 12.7448 3.71758 12.8321 3.80622C12.9195 3.89485 13.0382 3.94555 13.1626 3.94737H15.4882ZM20.5263 8.03814C20.4007 8.03817 20.2802 8.08809 20.1914 8.17691C20.1026 8.26574 20.0527 8.3862 20.0526 8.51182V10.8371C20.0545 10.9615 20.1052 11.0802 20.1938 11.1676C20.2824 11.2549 20.4019 11.3039 20.5263 11.3039C20.6508 11.3039 20.7702 11.2549 20.8588 11.1676C20.9475 11.0802 20.9982 10.9615 21 10.837V8.51182C21 8.3862 20.9501 8.26574 20.8612 8.17691C20.7724 8.08809 20.6519 8.03817 20.5263 8.03814Z" fill="black"/>
</svg>