<svg width="20" height="20" viewBox="0 0 20 20" fill="none" xmlns="http://www.w3.org/2000/svg">
<path d="M4.36262 11.3709L10.2547 17.8022C10.7308 18.3642 10.6618 19.2063 10.1005 19.6831C9.53925 20.1599 8.6982 20.0908 8.22204 19.5288L0.386717 10.9764C0.274049 10.8631 0.182749 10.7303 0.117214 10.5844C0.0357169 10.4031 -0.00421353 10.2059 0.000351688 10.0071L0.000371239 10.0059C0.00490797 9.8076 0.0534271 9.61278 0.142416 9.43555C0.151069 9.41839 0.160091 9.40142 0.169476 9.38465C0.223781 9.28736 0.290144 9.19733 0.366989 9.1167L8.41063 0.427329C8.91101 -0.113212 9.75426 -0.14524 10.2941 0.355755C10.8339 0.85675 10.8659 1.70111 10.3656 2.24163L4.38532 8.70196H18.6672C19.4033 8.70196 20 9.29943 20 10.0364C20 10.7735 19.4033 11.3709 18.6672 11.3709L4.36262 11.3709Z" fill="#7389A9"/>
</svg>
