<svg width="20" height="20" viewBox="0 0 20 20" fill="none" xmlns="http://www.w3.org/2000/svg">
<path d="M17.5747 10.9792C17.6164 10.6667 17.6372 10.3438 17.6372 10C17.6372 9.66667 17.6164 9.33333 17.5643 9.02083L19.6789 7.375C19.8664 7.22917 19.9185 6.94792 19.8039 6.73958L17.8039 3.28125C17.6789 3.05208 17.4185 2.97917 17.1893 3.05208L14.6997 4.05208C14.1789 3.65625 13.6268 3.32292 13.0122 3.07292L12.6372 0.427083C12.5956 0.177083 12.3872 0 12.1372 0H8.13724C7.88724 0 7.68932 0.177083 7.64766 0.427083L7.27266 3.07292C6.65807 3.32292 6.09557 3.66667 5.58516 4.05208L3.09557 3.05208C2.86641 2.96875 2.60599 3.05208 2.48099 3.28125L0.491407 6.73958C0.366407 6.95833 0.408073 7.22917 0.616406 7.375L2.73099 9.02083C2.67891 9.33333 2.63724 9.67708 2.63724 10C2.63724 10.3229 2.65807 10.6667 2.71016 10.9792L0.595573 12.625C0.408073 12.7708 0.35599 13.0521 0.470573 13.2604L2.47057 16.7188C2.59557 16.9479 2.85599 17.0208 3.08516 16.9479L5.57474 15.9479C6.09557 16.3437 6.64766 16.6771 7.26224 16.9271L7.63724 19.5729C7.68932 19.8229 7.88724 20 8.13724 20H12.1372C12.3872 20 12.5956 19.8229 12.6268 19.5729L13.0018 16.9271C13.6164 16.6771 14.1789 16.3437 14.6893 15.9479L17.1789 16.9479C17.4081 17.0312 17.6685 16.9479 17.7935 16.7188L19.7935 13.2604C19.9185 13.0312 19.8664 12.7708 19.6685 12.625L17.5747 10.9792ZM10.1372 13.75C8.07474 13.75 6.38724 12.0625 6.38724 10C6.38724 7.9375 8.07474 6.25 10.1372 6.25C12.1997 6.25 13.8872 7.9375 13.8872 10C13.8872 12.0625 12.1997 13.75 10.1372 13.75Z" fill="black"/>
</svg>
